<svg width="28" height="28" viewBox="0 0 28 28" fill="none" xmlns="http://www.w3.org/2000/svg">
<path d="M14 2.625C11.7502 2.625 9.551 3.29213 7.68039 4.54203C5.80978 5.79193 4.35182 7.56847 3.49088 9.64698C2.62993 11.7255 2.40467 14.0126 2.84357 16.2192C3.28248 18.4257 4.36584 20.4525 5.95667 22.0433C7.54749 23.6342 9.57432 24.7175 11.7809 25.1564C13.9874 25.5953 16.2745 25.3701 18.353 24.5091C20.4315 23.6482 22.2081 22.1902 23.458 20.3196C24.7079 18.449 25.375 16.2498 25.375 14C25.3718 10.9841 24.1724 8.09271 22.0398 5.96018C19.9073 3.82764 17.0159 2.62818 14 2.625ZM18.1191 16.8809C18.2004 16.9622 18.2649 17.0587 18.3088 17.165C18.3528 17.2712 18.3755 17.385 18.3755 17.5C18.3755 17.615 18.3528 17.7288 18.3088 17.835C18.2649 17.9413 18.2004 18.0378 18.1191 18.1191C18.0378 18.2004 17.9413 18.2648 17.835 18.3088C17.7288 18.3528 17.615 18.3755 17.5 18.3755C17.385 18.3755 17.2712 18.3528 17.165 18.3088C17.0588 18.2648 16.9622 18.2004 16.8809 18.1191L14 15.237L11.1191 18.1191C11.0378 18.2004 10.9413 18.2648 10.835 18.3088C10.7288 18.3528 10.615 18.3755 10.5 18.3755C10.385 18.3755 10.2712 18.3528 10.165 18.3088C10.0588 18.2648 9.96224 18.2004 9.88094 18.1191C9.79965 18.0378 9.73516 17.9413 9.69116 17.835C9.64716 17.7288 9.62452 17.615 9.62452 17.5C9.62452 17.385 9.64716 17.2712 9.69116 17.165C9.73516 17.0587 9.79965 16.9622 9.88094 16.8809L12.763 14L9.88094 11.1191C9.71676 10.9549 9.62452 10.7322 9.62452 10.5C9.62452 10.2678 9.71676 10.0451 9.88094 9.88094C10.0451 9.71675 10.2678 9.62451 10.5 9.62451C10.7322 9.62451 10.9549 9.71675 11.1191 9.88094L14 12.763L16.8809 9.88094C16.9622 9.79964 17.0588 9.73515 17.165 9.69116C17.2712 9.64716 17.385 9.62451 17.5 9.62451C17.615 9.62451 17.7288 9.64716 17.835 9.69116C17.9413 9.73515 18.0378 9.79964 18.1191 9.88094C18.2004 9.96223 18.2649 10.0587 18.3088 10.165C18.3528 10.2712 18.3755 10.385 18.3755 10.5C18.3755 10.615 18.3528 10.7288 18.3088 10.835C18.2649 10.9413 18.2004 11.0378 18.1191 11.1191L15.237 14L18.1191 16.8809Z" fill="#212529"/>
</svg>
