<svg width="28" height="28" viewBox="0 0 28 28" fill="none" xmlns="http://www.w3.org/2000/svg">
<path d="M9.36975 4.63089C9.28849 4.54954 9.19199 4.485 9.08576 4.44097C8.97954 4.39693 8.86568 4.37427 8.75069 4.37427C8.6357 4.37427 8.52184 4.39693 8.41562 4.44097C8.30939 4.485 8.21289 4.54954 8.13163 4.63089L4.63163 8.13089C4.50912 8.25327 4.42567 8.40924 4.39185 8.57906C4.35803 8.74889 4.37536 8.92493 4.44164 9.0849C4.50793 9.24487 4.62019 9.38157 4.7642 9.47771C4.90822 9.57385 5.07753 9.62509 5.25069 9.62496L7.87569 9.62496L7.87569 22.75C7.87569 22.982 7.96788 23.2046 8.13197 23.3687C8.29607 23.5328 8.51863 23.625 8.75069 23.625C8.98276 23.625 9.20531 23.5328 9.36941 23.3687C9.5335 23.2046 9.62569 22.982 9.62569 22.75L9.62569 9.62496L12.2507 9.62496C12.4238 9.62509 12.5932 9.57385 12.7372 9.47771C12.8812 9.38157 12.9935 9.24487 13.0597 9.0849C13.126 8.92493 13.1433 8.74889 13.1095 8.57906C13.0757 8.40924 12.9923 8.25327 12.8698 8.13089L9.36975 4.63089ZM18.6316 23.369L15.1316 19.869C15.0091 19.7466 14.9257 19.5907 14.8919 19.4208C14.858 19.251 14.8754 19.075 14.9416 18.915C15.0079 18.755 15.1202 18.6183 15.2642 18.5222C15.4082 18.4261 15.5775 18.3748 15.7507 18.375L18.3757 18.375L18.3757 5.24996C18.3757 5.01789 18.4679 4.79533 18.632 4.63124C18.7961 4.46714 19.0186 4.37496 19.2507 4.37496C19.4828 4.37496 19.7053 4.46714 19.8694 4.63124C20.0335 4.79533 20.1257 5.01789 20.1257 5.24996L20.1257 18.375L22.7507 18.375C22.9239 18.3748 23.0932 18.4261 23.2372 18.5222C23.3812 18.6183 23.4935 18.755 23.5597 18.915C23.626 19.075 23.6433 19.251 23.6095 19.4208C23.5757 19.5907 23.4923 19.7466 23.3698 19.869L19.8698 23.369C19.7885 23.4504 19.692 23.5149 19.5858 23.5589C19.4795 23.603 19.3657 23.6256 19.2507 23.6256C19.1357 23.6256 19.0218 23.603 18.9156 23.5589C18.8094 23.5149 18.7129 23.4504 18.6316 23.369Z" fill="#212529"/>
</svg>
