<svg width="42" height="42" viewBox="0 0 42 42" fill="none" xmlns="http://www.w3.org/2000/svg">
<circle cx="21" cy="21" r="21" fill="#37C084" fill-opacity="0.1"/>
<path d="M28.5 12H16.8103C16.6133 11.9994 16.4181 12.0379 16.236 12.1134C16.054 12.1889 15.8888 12.2998 15.75 12.4397L12.4397 15.75C12.2998 15.8888 12.1889 16.054 12.1134 16.236C12.0379 16.4181 11.9994 16.6133 12 16.8103V28.5C12 28.8978 12.158 29.2794 12.4393 29.5607C12.7207 29.842 13.1022 30 13.5 30H28.5C28.8978 30 29.2794 29.842 29.5607 29.5607C29.842 29.2794 30 28.8978 30 28.5V13.5C30 13.1022 29.842 12.7207 29.5607 12.4393C29.2794 12.158 28.8978 12 28.5 12ZM21 26.25C20.4067 26.25 19.8266 26.0741 19.3333 25.7444C18.84 25.4148 18.4554 24.9462 18.2284 24.3981C18.0013 23.8499 17.9419 23.2467 18.0577 22.6647C18.1734 22.0828 18.4591 21.5482 18.8787 21.1287C19.2982 20.7091 19.8328 20.4234 20.4147 20.3077C20.9967 20.1919 21.5999 20.2513 22.1481 20.4784C22.6962 20.7054 23.1648 21.09 23.4944 21.5833C23.8241 22.0766 24 22.6567 24 23.25C24 24.0457 23.6839 24.8087 23.1213 25.3713C22.5587 25.9339 21.7957 26.25 21 26.25ZM25.125 16.5C25.125 16.5995 25.0855 16.6948 25.0152 16.7652C24.9448 16.8355 24.8495 16.875 24.75 16.875H17.25C17.1506 16.875 17.0552 16.8355 16.9848 16.7652C16.9145 16.6948 16.875 16.5995 16.875 16.5V13.5H25.125V16.5Z" fill="#37C084"/>
</svg>
