<svg width="28" height="28" viewBox="0 0 28 28" fill="none" xmlns="http://www.w3.org/2000/svg">
<path d="M14 2.625C11.7502 2.625 9.551 3.29213 7.68039 4.54203C5.80978 5.79193 4.35182 7.56847 3.49088 9.64698C2.62993 11.7255 2.40467 14.0126 2.84357 16.2192C3.28248 18.4257 4.36584 20.4525 5.95667 22.0433C7.54749 23.6342 9.57432 24.7175 11.7809 25.1564C13.9874 25.5953 16.2745 25.3701 18.353 24.5091C20.4315 23.6482 22.2081 22.1902 23.458 20.3196C24.7079 18.449 25.375 16.2498 25.375 14C25.3718 10.9841 24.1724 8.09271 22.0398 5.96018C19.9073 3.82764 17.0159 2.62818 14 2.625ZM21.875 15.75H19.8428L18.3116 19.5781C18.2467 19.7406 18.1346 19.88 17.9897 19.9781C17.8449 20.0763 17.6739 20.1288 17.4989 20.1288C17.3239 20.1288 17.153 20.0763 17.0081 19.9781C16.8632 19.88 16.7511 19.7406 16.6863 19.5781L14 12.8559L11.3127 19.5781C11.2478 19.7406 11.1357 19.88 10.9908 19.9781C10.846 20.0763 10.675 20.1288 10.5 20.1288C10.325 20.1288 10.1541 20.0763 10.0092 19.9781C9.86432 19.88 9.75222 19.7406 9.68735 19.5781L8.1561 15.75H6.125C5.89294 15.75 5.67038 15.6578 5.50629 15.4937C5.34219 15.3296 5.25 15.1071 5.25 14.875C5.25 14.6429 5.34219 14.4204 5.50629 14.2563C5.67038 14.0922 5.89294 14 6.125 14H7.45719L6.18735 10.8281C6.14426 10.7214 6.12261 10.6072 6.12364 10.4922C6.12467 10.3771 6.14836 10.2633 6.19335 10.1574C6.28422 9.94345 6.45635 9.77437 6.67188 9.68734C6.88741 9.60032 7.12868 9.60248 7.34262 9.69335C7.55656 9.78421 7.72564 9.95634 7.81266 10.1719L10.5 16.8941L13.1873 10.1719C13.2522 10.0094 13.3643 9.87002 13.5092 9.77186C13.6541 9.67371 13.825 9.62124 14 9.62124C14.175 9.62124 14.346 9.67371 14.4908 9.77186C14.6357 9.87002 14.7478 10.0094 14.8127 10.1719L17.5 16.8941L20.1873 10.1719C20.2744 9.95634 20.4435 9.78421 20.6574 9.69335C20.8713 9.60248 21.1126 9.60032 21.3281 9.68734C21.5437 9.77437 21.7158 9.94345 21.8067 10.1574C21.8975 10.3713 21.8997 10.6126 21.8127 10.8281L20.5428 14H21.875C22.1071 14 22.3296 14.0922 22.4937 14.2563C22.6578 14.4204 22.75 14.6429 22.75 14.875C22.75 15.1071 22.6578 15.3296 22.4937 15.4937C22.3296 15.6578 22.1071 15.75 21.875 15.75Z" fill="#212529"/>
</svg>
