<svg width="28" height="28" viewBox="0 0 28 28" fill="none" xmlns="http://www.w3.org/2000/svg">
<path d="M22.75 3.50001H9.11204C8.88214 3.49927 8.65439 3.54425 8.44203 3.63231C8.22966 3.72037 8.03692 3.84977 7.87501 4.01298L4.01298 7.87501C3.84977 8.03692 3.72037 8.22966 3.63231 8.44203C3.54425 8.65439 3.49927 8.88214 3.50001 9.11204V22.75C3.50001 23.2141 3.68438 23.6593 4.01257 23.9874C4.34076 24.3156 4.78588 24.5 5.25001 24.5H22.75C23.2141 24.5 23.6593 24.3156 23.9874 23.9874C24.3156 23.6593 24.5 23.2141 24.5 22.75V5.25001C24.5 4.78588 24.3156 4.34076 23.9874 4.01257C23.6593 3.68438 23.2141 3.50001 22.75 3.50001ZM14 20.125C13.3078 20.125 12.6311 19.9197 12.0555 19.5352C11.4799 19.1506 11.0313 18.6039 10.7664 17.9644C10.5015 17.3249 10.4322 16.6211 10.5673 15.9422C10.7023 15.2633 11.0357 14.6396 11.5251 14.1501C12.0146 13.6607 12.6383 13.3273 13.3172 13.1923C13.9961 13.0572 14.6999 13.1265 15.3394 13.3914C15.9789 13.6563 16.5256 14.1049 16.9102 14.6805C17.2947 15.2561 17.5 15.9328 17.5 16.625C17.5 17.5533 17.1313 18.4435 16.4749 19.0999C15.8185 19.7563 14.9283 20.125 14 20.125ZM18.8125 8.75001C18.8125 8.86604 18.7664 8.97732 18.6844 9.05937C18.6023 9.14142 18.491 9.18751 18.375 9.18751H9.62501C9.50898 9.18751 9.3977 9.14142 9.31565 9.05937C9.2336 8.97732 9.18751 8.86604 9.18751 8.75001V5.25001H18.8125V8.75001Z" fill="#212529"/>
</svg>
