<svg width="28" height="28" viewBox="0 0 28 28" fill="none" xmlns="http://www.w3.org/2000/svg">
<path d="M14 2.625C11.7502 2.625 9.551 3.29213 7.68039 4.54203C5.80978 5.79193 4.35182 7.56847 3.49088 9.64698C2.62993 11.7255 2.40467 14.0126 2.84357 16.2192C3.28248 18.4257 4.36584 20.4525 5.95667 22.0433C7.54749 23.6342 9.57432 24.7175 11.7809 25.1564C13.9874 25.5953 16.2745 25.3701 18.353 24.5091C20.4315 23.6482 22.2081 22.1902 23.458 20.3196C24.7079 18.449 25.375 16.2498 25.375 14C25.3718 10.9841 24.1724 8.09271 22.0398 5.96018C19.9073 3.82764 17.0159 2.62818 14 2.625ZM14 21C13.7404 21 13.4867 20.923 13.2708 20.7788C13.055 20.6346 12.8868 20.4296 12.7874 20.1898C12.6881 19.9499 12.6621 19.686 12.7127 19.4314C12.7634 19.1768 12.8884 18.943 13.0719 18.7594C13.2555 18.5759 13.4893 18.4509 13.7439 18.4002C13.9985 18.3496 14.2624 18.3756 14.5023 18.4749C14.7421 18.5742 14.9471 18.7425 15.0913 18.9583C15.2355 19.1742 15.3125 19.4279 15.3125 19.6875C15.3125 20.0356 15.1742 20.3694 14.9281 20.6156C14.6819 20.8617 14.3481 21 14 21ZM14.875 15.6712V15.75C14.875 15.9821 14.7828 16.2046 14.6187 16.3687C14.4546 16.5328 14.2321 16.625 14 16.625C13.7679 16.625 13.5454 16.5328 13.3813 16.3687C13.2172 16.2046 13.125 15.9821 13.125 15.75V14.875C13.125 14.6429 13.2172 14.4204 13.3813 14.2563C13.5454 14.0922 13.7679 14 14 14C15.447 14 16.625 13.0156 16.625 11.8125C16.625 10.6094 15.447 9.625 14 9.625C12.553 9.625 11.375 10.6094 11.375 11.8125V12.25C11.375 12.4821 11.2828 12.7046 11.1187 12.8687C10.9546 13.0328 10.7321 13.125 10.5 13.125C10.2679 13.125 10.0454 13.0328 9.88129 12.8687C9.71719 12.7046 9.62501 12.4821 9.62501 12.25V11.8125C9.62501 9.64141 11.5872 7.875 14 7.875C16.4128 7.875 18.375 9.64141 18.375 11.8125C18.375 13.7134 16.87 15.3048 14.875 15.6712Z" fill="#212529"/>
</svg>
