<svg width="144" height="144" viewBox="0 0 144 144" fill="none" xmlns="http://www.w3.org/2000/svg">
<path d="M43.3013 123.832L40.5523 116.45L18.414 56.3501C18.218 55.818 18.4916 55.228 19.0243 55.0338L61.1612 39.6731C61.749 39.4589 62.3855 39.7952 62.5161 40.4071C64.5608 49.9862 73.4995 81.5 88.7225 103.857C89.212 104.386 89.0492 105.242 88.3896 105.532C71.3793 113.03 43.7502 125.172 43.3013 123.832Z" stroke="#212529" stroke-width="2.04844" stroke-linecap="round"/>
<path d="M26.7458 119.052C17.8787 104.238 7.18075 84.8227 1.19665 52.2936C1.10006 51.7683 1.42505 51.2503 1.94156 51.1141C17.3954 47.0374 31.7647 42.9067 46.2369 33.1782C46.8573 32.7611 47.7081 33.1112 47.8492 33.8451C52.3651 57.3214 65.1908 83.6885 73.9695 97.3569C74.2512 97.7961 74.1539 98.3728 73.7483 98.7003C56.3375 112.719 37.6474 115.696 28.0224 119.477C27.5477 119.663 27.0078 119.489 26.7458 119.052Z" fill="#212529"/>
<path d="M14.7285 62.9187C18.2763 62.2709 28.9447 59.2721 43.2354 52.46" stroke="white" stroke-width="2" stroke-linecap="round"/>
<path d="M22.9131 87.3171C26.4609 86.6693 37.1292 83.6706 51.4199 76.8584" stroke="white" stroke-width="2" stroke-linecap="round"/>
<path d="M17.1211 70.8766C19.2945 70.4281 25.2973 68.8895 31.9211 66.3228" stroke="white" stroke-width="2" stroke-linecap="round"/>
<path d="M19.7412 78.8346C21.9146 78.3861 27.9174 76.8475 34.5412 74.2808" stroke="white" stroke-width="2" stroke-linecap="round"/>
<path d="M35.08 7.7915C33.5385 9.27146 32.1637 10.9139 30.9798 12.6898C28.6478 12.757 26.3141 12.6429 24 12.3485C25.0362 14.194 26.2503 15.9258 27.4645 17.6576C26.797 19.3894 26.2503 21.2729 25.6973 23.1563C27.8014 22.2336 29.7911 21.3234 31.8125 20.5018C33.0297 22.1899 34.541 23.6476 36.275 24.806C36.5293 22.9351 36.7899 21.2539 37.1523 19.598C38.9322 18.0811 40.6168 16.836 42.1487 15.4265C40.4126 14.6042 38.5676 14.0318 36.6692 13.7263C36.4084 11.6864 35.8739 9.69034 35.08 7.7915Z" fill="#37C084"/>
<path d="M45.5906 19.8883C45.5916 20.0534 45.6345 20.2156 45.7152 20.3597C45.796 20.5038 45.9119 20.6251 46.0523 20.7122C46.2082 20.8096 46.3887 20.8605 46.5725 20.859C50.6749 20.8886 54.6924 22.0307 58.1968 24.1637C61.7012 26.2967 64.5612 29.3406 66.472 32.971C66.5292 33.0869 66.6088 33.1904 66.7063 33.2753C66.8038 33.3603 66.9172 33.425 67.0399 33.4657C67.1627 33.5065 67.2922 33.5225 67.4212 33.5127C67.5501 33.503 67.6758 33.4677 67.791 33.4089C67.9062 33.3502 68.0086 33.2692 68.0922 33.1705C68.1758 33.0719 68.239 32.9576 68.2781 32.8344C68.3172 32.7111 68.3314 32.5813 68.3199 32.4525C68.3084 32.3238 68.2715 32.1985 68.2112 32.0841C66.1325 28.1345 63.0212 24.8229 59.2088 22.5021C55.3965 20.1812 51.0259 18.9382 46.5628 18.9054C46.4344 18.9059 46.3073 18.9318 46.1889 18.9815C46.0705 19.0312 45.963 19.1038 45.8727 19.1951C45.7824 19.2864 45.711 19.3946 45.6626 19.5136C45.6142 19.6325 45.5897 19.7598 45.5906 19.8883Z" fill="#212529"/>
<path d="M78.1612 27.8724C77.4649 28.4101 76.8326 29.0259 76.2768 29.7078C74.8763 31.5271 73.9239 33.6507 73.4968 35.9065C73.0696 38.1624 73.1797 40.4871 73.818 42.6925C75.1466 47.0476 78.035 50.7594 81.9301 53.1172C82.0388 53.1922 82.1616 53.2444 82.291 53.2706C82.4204 53.2968 82.5538 53.2964 82.683 53.2696C82.8123 53.2428 82.9348 53.19 83.0431 53.1145C83.1514 53.0389 83.2433 52.9422 83.3131 52.8302C83.383 52.7181 83.4294 52.5931 83.4495 52.4626C83.4696 52.3321 83.4631 52.1988 83.4302 52.071C83.3974 51.9431 83.3389 51.8232 83.2584 51.7185C83.1779 51.6139 83.077 51.5266 82.9618 51.4621C79.4791 49.3635 76.8924 46.0546 75.6964 42.1683C75.1417 40.2638 75.0423 38.2555 75.4063 36.3056C75.7703 34.3556 76.5875 32.5184 77.792 30.9423C78.0517 30.6238 78.3316 30.3222 78.6299 30.0394C78.7729 30.5456 78.9378 31.0535 79.1254 31.5591C79.5984 32.982 80.3822 34.2818 81.4198 35.3643C81.9874 35.9562 82.6784 36.4158 83.4437 36.7106C84.2089 37.0054 85.0297 37.128 85.8477 37.0699C86.5474 36.9837 87.219 36.7424 87.8136 36.3636C88.4083 35.9848 88.9109 35.4781 89.2848 34.8805C90.1039 33.6588 90.4048 32.162 90.1215 30.7186C90.0892 30.5658 90.0504 30.4176 90.0051 30.2739C89.1787 27.6389 86.278 25.7491 83.2514 25.8753C82.1137 25.9433 81.0011 26.2389 79.9797 26.7445C79.4847 22.6455 80.4 18.5 82.575 14.9905C82.7132 14.7715 82.7587 14.5066 82.7015 14.254C82.6444 14.0014 82.4892 13.7819 82.2702 13.6437C82.0512 13.5055 81.7862 13.46 81.5337 13.5172C81.2811 13.5744 81.0615 13.7295 80.9234 13.9486C78.3468 18.1022 77.3653 23.0497 78.1612 27.8724ZM83.3406 27.8289C84.3586 27.759 85.3725 28.0148 86.2355 28.5592C87.0986 29.1036 87.7661 29.9084 88.1416 30.8573C88.2775 31.3547 88.3044 31.8756 88.2204 32.3844C88.1364 32.8932 87.9434 33.3778 87.6548 33.8052C87.4383 34.1599 87.1461 34.4623 86.7991 34.6908C86.4521 34.9193 86.0588 35.0683 85.6474 35.127C85.1156 35.151 84.5849 35.06 84.0914 34.8604C83.5979 34.6608 83.1533 34.3572 82.7877 33.9702C81.958 33.0859 81.3329 32.0299 80.9568 30.8771C80.6994 30.1871 80.4867 29.4813 80.3198 28.764C81.2386 28.2176 82.2738 27.8972 83.3406 27.8289Z" fill="#E75DCD"/>
<path d="M76.2734 56.6461C73.2925 54.6585 65.2864 51.7481 57.1094 56.0069" stroke="#9061EE" stroke-width="2" stroke-linecap="round"/>
<path d="M52.2657 95.3469C51.8126 97.145 51.3609 98.9449 50.9105 100.747C52.7635 100.117 54.572 99.37 56.3254 98.5087C58.2841 99.1696 60.1864 99.9995 62.0108 100.989C61.4119 98.947 60.7023 97.0483 59.9926 95.1496C61.1831 93.3806 62.4909 91.6963 63.9074 90.1077C61.7362 90.0654 59.6077 90.0576 57.1726 89.8732C56.1625 88.0544 55.0293 86.3055 53.7812 84.6395C53.7128 86.5791 53.2751 88.4775 52.4919 90.232C50.5695 90.7169 48.7094 91.4085 46.9433 92.2952C48.8307 93.089 50.6186 94.1141 52.2657 95.3469Z" fill="#E75DCD"/>
<path d="M91.6033 78.2503C95.4833 72.1903 103.227 67.3624 107.231 65.3931C107.601 65.2116 108.03 65.2727 108.33 65.5539C116.727 73.4205 133.644 95.3827 141.643 106.173C141.925 106.553 141.902 107.07 141.591 107.427C136.061 113.774 129.354 118.063 126.112 119.719C125.755 119.902 125.332 119.85 125.029 119.588C114.352 110.345 98.6172 89.3374 91.6283 79.3417C91.3985 79.013 91.387 78.5881 91.6033 78.2503Z" stroke="#212529" stroke-width="2.04844"/>
<path d="M88.474 68.6312C90.1296 64.8329 94.4989 62.05 96.4766 61.1332L85.5039 58.2583L88.474 68.6312Z" fill="#212529"/>
<path d="M107.597 65.2614L86.5404 57.6436C85.7435 57.3553 84.9612 58.1042 85.2145 58.9129L91.4891 78.9439" stroke="#212529" stroke-width="2.04844"/>
<path d="M120.282 115.011C127.978 111.141 135.055 104.248 137.376 101.29L133.148 95.7549C127.568 102.443 118.745 107.704 115.03 109.499L120.282 115.011Z" fill="#212529"/>
<path d="M110.254 102.44C117.949 98.5712 125.027 91.6772 127.348 88.72L123.12 83.1846C117.54 89.8725 108.716 95.1341 105.002 96.929L110.254 102.44Z" fill="#212529"/>
<path d="M99.7023 89.3695C107.398 85.5004 114.475 78.6065 116.796 75.6492L112.568 70.1138C106.988 76.8017 98.1645 82.0633 94.4502 83.8582L99.7023 89.3695Z" fill="#212529"/>
<path d="M94 48.769C94.0015 49.117 94.1061 49.4568 94.3006 49.7455C94.495 50.0341 94.7706 50.2587 95.0926 50.3909C95.4146 50.523 95.7685 50.5568 96.1097 50.488C96.4508 50.4191 96.764 50.2508 97.0095 50.0042C97.2551 49.7575 97.4221 49.4437 97.4895 49.1022C97.5568 48.7607 97.5215 48.407 97.3879 48.0856C97.2544 47.7642 97.0287 47.4895 96.7392 47.2963C96.4497 47.1031 96.1094 47 95.7614 47C95.5295 47.0001 95.2998 47.046 95.0857 47.135C94.8715 47.224 94.6771 47.3545 94.5134 47.5188C94.3498 47.6832 94.2202 47.8782 94.1321 48.0927C94.044 48.3073 93.9991 48.5371 94 48.769Z" fill="#37C084"/>
<path d="M83 7.769C83.0015 8.11704 83.1061 8.45683 83.3006 8.74548C83.495 9.03413 83.7706 9.25871 84.0926 9.39085C84.4146 9.523 84.7685 9.55679 85.1097 9.48797C85.4508 9.41915 85.764 9.2508 86.0095 9.00416C86.2551 8.75753 86.4221 8.44367 86.4895 8.10221C86.5568 7.76075 86.5215 7.40698 86.3879 7.08558C86.2544 6.76417 86.0287 6.48953 85.7392 6.29632C85.4497 6.10312 85.1094 6 84.7614 6C84.5295 6.0001 84.2998 6.04598 84.0857 6.13501C83.8715 6.22404 83.6771 6.35447 83.5134 6.51881C83.3498 6.68316 83.2202 6.87819 83.1321 7.09273C83.044 7.30726 82.9991 7.53708 83 7.769Z" fill="#1368EB"/>
<path d="M18 37.769C18.0015 38.117 18.1061 38.4568 18.3006 38.7455C18.495 39.0341 18.7706 39.2587 19.0926 39.3909C19.4146 39.523 19.7685 39.5568 20.1097 39.488C20.4508 39.4191 20.764 39.2508 21.0095 39.0042C21.2551 38.7575 21.4221 38.4437 21.4895 38.1022C21.5568 37.7607 21.5215 37.407 21.3879 37.0856C21.2544 36.7642 21.0287 36.4895 20.7392 36.2963C20.4497 36.1031 20.1094 36 19.7614 36C19.5295 36.0001 19.2998 36.046 19.0857 36.135C18.8715 36.224 18.6771 36.3545 18.5134 36.5188C18.3498 36.6832 18.2202 36.8782 18.1321 37.0927C18.044 37.3073 17.9991 37.5371 18 37.769Z" fill="#9061EE"/>
</svg>
