<svg width="136" height="136" viewBox="0 0 136 136" fill="none" xmlns="http://www.w3.org/2000/svg">
<path d="M79.241 74.7451C79.0636 74.7028 78.883 74.6748 78.701 74.6614L78.5471 74.6533C78.4895 74.6533 78.4328 74.6443 78.3761 74.6443C78.305 74.6443 78.2339 74.6515 78.1628 74.6551C78.0917 74.6587 78.0377 74.6551 77.9756 74.665C77.8361 74.6776 77.6975 74.6956 77.5598 74.7181C77.5202 74.7244 77.4797 74.728 77.4401 74.7352C77.2601 74.7667 77.0801 74.8045 76.9064 74.845L76.7111 74.8927L76.2737 74.9989C76.1477 75.0304 76.0226 75.0601 75.8975 75.0889C75.83 75.1051 75.7625 75.1204 75.6941 75.1348C75.578 75.16 75.4619 75.1807 75.3458 75.2005C75.2882 75.2113 75.2297 75.2221 75.1721 75.2302C75.0052 75.2552 74.8369 75.2705 74.6681 75.2761H74.4971C74.3603 75.2761 74.2271 75.2581 74.0894 75.2491C73.976 75.241 73.8617 75.2392 73.7483 75.2257C73.5755 75.205 73.4045 75.1717 73.2326 75.1357C73.1309 75.1168 73.0292 75.1033 72.9275 75.0808C72.7358 75.0385 72.5459 74.9908 72.356 74.9368C72.2759 74.9152 72.1949 74.8972 72.1148 74.8747C71.8448 74.8 71.5838 74.719 71.3201 74.6389C71.0564 74.5588 70.7972 74.4832 70.5335 74.4103C70.4534 74.3878 70.3715 74.3698 70.2905 74.3482C70.1042 74.2987 69.917 74.2501 69.728 74.2087C69.6263 74.1862 69.5237 74.1727 69.422 74.1538C69.2528 74.1223 69.0845 74.0917 68.9144 74.071C68.8019 74.0584 68.6885 74.0557 68.5751 74.0485C68.4473 74.0404 68.3204 74.0224 68.1917 74.0224C68.1215 74.0224 68.0513 74.0224 67.9811 74.0224H67.9721C67.4 74.0139 66.8343 74.1426 66.3222 74.3979C65.8101 74.6531 65.3667 75.0274 65.0291 75.4894C64.1786 76.8394 64.6853 78.6466 64.3253 80.191C64.275 80.4122 64.2033 80.628 64.1111 80.8354C63.6304 81.6972 62.9706 82.446 62.1761 83.0314V83.0359C61.9349 83.2456 61.7 83.4607 61.4831 83.6893C61.3462 83.8435 61.2182 84.0055 61.0997 84.1744C61.0331 84.2644 60.9539 84.3409 60.8936 84.4354C60.6727 84.7883 60.5164 85.1778 60.4319 85.5856C60.3892 85.7892 60.363 85.996 60.3536 86.2039C60.335 86.6213 60.3814 87.0391 60.4913 87.4423C60.6502 88.0525 60.9643 88.6112 61.403 89.0641C61.5778 89.2356 61.7645 89.3944 61.9619 89.5393C62.5848 89.9333 63.1691 90.3853 63.707 90.8893C64.0024 91.2299 64.2432 91.6143 64.4207 92.0287C64.4675 92.1313 64.5242 92.2276 64.5665 92.3329C64.7798 92.8603 64.9445 93.4183 65.129 93.9583C65.147 94.0213 65.174 94.0753 65.192 94.1383V94.1473C65.4681 95.1892 66.1186 96.0928 67.019 96.6853C67.1316 96.7439 67.2483 96.7941 67.3682 96.8356C67.4069 96.8491 67.4483 96.8572 67.4879 96.8698C67.568 96.8932 67.6481 96.9184 67.7309 96.9355C67.7804 96.9454 67.8317 96.9508 67.8821 96.958C67.9559 96.9697 68.0297 96.9823 68.1044 96.9895C68.1593 96.9895 68.2151 96.9949 68.27 96.9967C68.3249 96.9985 68.387 97.0057 68.45 97.0057H68.4743C68.7354 97.0031 68.996 96.9809 69.2537 96.9391L69.2897 96.9346C69.5597 96.8896 69.8297 96.8293 70.0916 96.76C70.3976 96.6781 70.7036 96.5863 71.0105 96.4963C71.2022 96.4405 71.3939 96.3838 71.5865 96.3343C71.6765 96.3109 71.7665 96.2965 71.8565 96.2758C72.0194 96.2389 72.1814 96.1993 72.3452 96.1741C72.4469 96.1579 72.5504 96.1579 72.653 96.148C72.743 96.139 72.8276 96.1291 72.9158 96.1255C72.9716 96.1255 73.0265 96.1111 73.0814 96.1111H73.1507C74.2907 96.2185 75.4027 96.5262 76.4357 97.0201C76.6517 97.1011 76.8677 97.1821 77.0837 97.2541C77.3283 97.329 77.5771 97.3891 77.8289 97.4341C77.8793 97.444 77.9297 97.4539 77.9801 97.462C78.1956 97.495 78.4129 97.5143 78.6308 97.5196C78.6641 97.5196 78.6974 97.5277 78.7307 97.5286C78.7496 97.5286 78.7685 97.534 78.7874 97.534C78.8333 97.534 78.8774 97.525 78.9224 97.5241C79.0448 97.5241 79.1663 97.5115 79.2824 97.4971C79.3544 97.4881 79.4246 97.4755 79.4948 97.4629C79.6091 97.4408 79.7221 97.4126 79.8332 97.3783C79.8998 97.3576 79.9664 97.3378 80.0303 97.3126C80.1437 97.2665 80.2535 97.212 80.3588 97.1497C80.4119 97.1223 80.4636 97.0923 80.5136 97.0597C80.668 96.9578 80.809 96.8369 80.933 96.6997C81.0829 96.5277 81.208 96.3357 81.3047 96.1291C81.3907 95.95 81.4612 95.764 81.5153 95.5729C81.6138 95.2009 81.6869 94.8226 81.734 94.4407C81.7745 94.1572 81.8123 93.8692 81.8636 93.5866C81.9102 93.3084 81.9782 93.0343 82.067 92.7667C82.1507 92.5251 82.2562 92.2917 82.382 92.0692C82.7863 91.4076 83.2766 90.8026 83.84 90.2701C84.6048 89.5817 85.2711 88.7913 85.82 87.9211C86.0905 87.4818 86.2484 86.9825 86.2798 86.4676C86.3112 85.9527 86.2151 85.438 86 84.9691C85.8598 84.719 85.6809 84.4927 85.4699 84.2986C85.2951 84.1379 85.1092 83.9896 84.9137 83.8549C84.5096 83.5678 84.0722 83.3086 83.6753 83.017C83.5583 82.927 83.444 82.837 83.336 82.747C83.0503 82.5081 82.8166 82.2131 82.6493 81.8803C82.6493 81.8713 82.6376 81.865 82.634 81.856C82.568 81.7116 82.517 81.5608 82.4819 81.406C82.4157 81.0977 82.3918 80.7819 82.4108 80.4673C82.4378 79.8265 82.5719 79.1641 82.5719 78.5188C82.5731 78.3581 82.5637 78.1976 82.544 78.0382C82.5227 77.87 82.4878 77.7039 82.4396 77.5414C82.2921 77.0586 82.0429 76.613 81.7088 76.2346C81.2511 75.7173 80.6851 75.3071 80.051 75.0331V75.0241C79.7879 74.9123 79.5172 74.8191 79.241 74.7451ZM75.344 91.0531C74.5042 91.3253 73.6126 91.3986 72.7396 91.267C71.8665 91.1355 71.0361 90.8028 70.3138 90.2951C69.5914 89.7875 68.9971 89.1188 68.5776 88.342C68.1581 87.5651 67.9249 86.7014 67.8966 85.819C67.8683 84.9366 68.0455 84.0597 68.4144 83.2575C68.7832 82.4554 69.3335 81.75 70.0217 81.1971C70.71 80.6441 71.5174 80.2588 72.3802 80.0716C73.243 79.8843 74.1375 79.9002 74.993 80.1181C76.2455 80.4301 77.3538 81.1605 78.1345 82.1884C78.9152 83.2162 79.3215 84.4798 79.286 85.7701C79.2367 86.945 78.8341 88.0778 78.1309 89.0203C77.4276 89.9628 76.4563 90.6713 75.344 91.0531Z" fill="#838C94"/>
<path d="M82.6098 98.2054C82.1237 98.7288 81.5303 99.141 80.8701 99.4138C80.2099 99.6866 79.4986 99.8135 78.7848 99.7858C78.5607 99.7858 78.3222 99.7498 78.0882 99.7264C77.4518 102.162 76.6778 104.56 75.7698 106.908C75.4701 107.69 75.1398 108.455 74.8086 109.223C75.9606 112.335 77.1891 115.48 78.5886 118.701C79.8216 116.217 81.0546 113.742 82.4316 111.204C84.9854 112.581 87.7172 113.599 90.5496 114.228C87.8082 108.819 85.3011 103.296 83.0283 97.6582C82.9032 97.8512 82.7633 98.0342 82.6098 98.2054Z" fill="#838C94"/>
<path d="M75.6429 99.1269C75.4629 99.0585 75.2784 98.9874 75.0966 98.9163C74.4765 98.6232 73.8119 98.4355 73.1301 98.361H73.0788C72.5127 98.4093 71.9552 98.5303 71.4201 98.721C71.1699 98.7957 70.9197 98.8695 70.665 98.937C69.9427 99.1411 69.1969 99.25 68.4465 99.261C67.5825 99.2726 66.7289 99.0717 65.9607 98.676C65.1735 98.2481 64.5066 97.6291 64.0212 96.876L64.0068 96.8535L63.9969 96.8769C61.6272 102.289 59.2755 107.718 57.0381 113.237C59.6014 112.853 62.0924 112.086 64.4271 110.96C64.9671 112.148 65.4486 113.361 65.9031 114.634C66.3576 115.907 66.7851 117.244 67.2171 118.673C68.5165 116.703 69.7074 114.663 70.7847 112.563C71.8612 110.462 72.8244 108.305 73.6701 106.101C74.5409 103.85 75.2843 101.552 75.8967 99.2178C75.8121 99.1872 75.7275 99.1584 75.6429 99.1269Z" fill="#838C94"/>
<path d="M119.126 60.372C118.993 60.3487 118.856 60.3487 118.723 60.372C105.818 62.6324 92.7532 63.8543 79.6532 64.026C75.7832 64.0962 71.7377 64.0899 67.6265 64.008C51.7081 63.6075 35.8223 62.3607 20.0363 60.273H20.03C20.012 60.273 19.9931 60.273 19.9742 60.2676C19.9553 60.2622 19.9445 60.2676 19.9292 60.2676C19.9139 60.2676 19.8995 60.2541 19.8833 60.2523C17.3673 60.0576 14.8405 60.4513 12.503 61.4021C10.1654 62.353 8.08135 63.8349 6.4157 65.7306C1.94 70.7067 0.769996 77.2101 0.572896 81.7902C0.319996 87.84 1.6871 92.97 4.523 96.6258C5.76339 98.2624 7.35663 99.5983 9.18431 100.534C11.012 101.471 13.0271 101.983 15.08 102.033C16.0444 102.035 17.0045 101.905 17.9339 101.648H17.96C32.315 98.8228 46.8869 97.2413 61.5137 96.921L62.4344 94.8177L62.5091 94.6494C49.2918 94.8824 36.1123 96.1389 23.0891 98.4078C24.2049 97.199 25.1067 95.8091 25.7558 94.2975C26.1889 93.308 26.53 92.2807 26.7746 91.2285C27.2453 89.1775 27.4969 87.0822 27.5252 84.978C27.6103 83.0318 27.4693 81.0823 27.1049 79.1685C26.9594 78.504 26.7739 77.8488 26.5496 77.2065C25.9954 75.6454 25.1128 74.2214 23.9612 73.0305C26.138 73.1475 28.3934 73.2297 30.7274 73.2771C31.6992 76.6783 32.2991 80.1749 32.5166 83.7054C32.5428 83.9844 32.672 84.2435 32.8791 84.4322C33.0861 84.6209 33.3561 84.7257 33.6362 84.726H33.6623C42.4121 84.528 50.5823 84.366 58.5023 84.2292C58.6314 83.8841 58.7942 83.5525 58.9883 83.2392C59.2915 82.7707 59.6469 82.338 60.0476 81.9495C51.9332 82.0845 43.5974 82.2483 34.6577 82.449C34.4162 78.8285 33.7292 75.2516 32.612 71.7993C32.6066 71.7831 32.5994 71.7678 32.594 71.7516V71.7435C32.4302 71.2746 32.2511 70.8129 32.054 70.3377C30.9327 67.6513 29.1973 65.2652 26.987 63.3708C41.7074 65.0547 55.0544 66.0042 67.5824 66.2508H67.6526C67.7312 68.0952 67.8095 69.9378 67.8875 71.7786H67.9028H67.9271C68.0171 71.7786 68.1071 71.7732 68.1971 71.7732C69.4714 71.8211 70.7315 72.0574 71.9366 72.4743L71.9834 72.4878C72.7945 72.7822 73.6426 72.9622 74.5034 73.0224H74.6177C75.0328 72.9814 75.4431 72.9019 75.8435 72.7848C76.6697 72.5466 77.5228 72.4138 78.3824 72.3897C78.8631 72.3889 79.3422 72.4466 79.8089 72.5616C79.8602 72.5751 79.9124 72.594 79.9637 72.6084C79.8815 70.4964 79.8008 68.3838 79.7216 66.2706C92.8643 66.0954 105.972 64.8741 118.921 62.6184C123.375 63.4542 127.33 65.9874 129.952 69.6834C132.337 73.0941 133.47 77.2241 133.16 81.3744C131.544 81.369 129.934 81.369 128.317 81.369H128.295C114.536 81.3735 100.17 81.4401 85.595 81.5976C86.5475 82.1336 87.3517 82.8982 87.935 83.8224C101.01 83.6874 113.893 83.6181 126.319 83.6181H127.115C126.83 86.8066 125.86 89.8961 124.271 92.6751C122.682 95.4541 120.512 97.8572 117.909 99.72C106.681 97.4843 95.3215 95.9675 83.9003 95.1786C83.7995 95.9509 83.5599 96.6985 83.1929 97.3854C94.8678 98.1652 106.479 99.7133 117.95 102.02C118.023 102.035 118.096 102.042 118.17 102.042C118.402 102.042 118.627 101.971 118.817 101.838C121.818 99.7756 124.321 97.0708 126.146 93.9198C127.97 90.7688 129.07 87.2509 129.365 83.6217C130.965 83.6217 132.565 83.6217 134.168 83.628H134.173C134.445 83.6281 134.708 83.5292 134.913 83.3497C135.118 83.1703 135.251 82.9225 135.288 82.6524C135.942 77.6287 134.694 72.5419 131.789 68.391C128.787 64.1566 124.238 61.2756 119.126 60.372ZM19.976 60.2685H19.9976C19.9901 60.2681 19.9835 60.2681 19.976 60.2685ZM19.5989 80.4186C21.4181 80.4486 23.2364 80.481 25.0538 80.5158C25.2565 81.9747 25.3311 83.4485 25.277 84.9204C25.2466 86.5932 25.0719 88.2601 24.755 89.9028L21.3062 90.1566L18.8321 90.3366C19.3361 89.7516 19.7408 89.0879 20.03 88.3719C20.4845 87.083 20.6803 85.7171 20.6063 84.3524C20.5324 82.9876 20.19 81.6509 19.5989 80.4186ZM24.4301 77.9589C24.4652 78.0588 24.4922 78.1569 24.5246 78.2559C22.2704 78.2145 20.0165 78.1752 17.7629 78.138C17.5622 78.1341 17.3641 78.1839 17.1891 78.2822C17.0141 78.3805 16.8686 78.5239 16.7676 78.6974C16.6666 78.8709 16.6139 79.0682 16.6148 79.2689C16.6157 79.4697 16.6703 79.6665 16.7729 79.839C18.383 82.539 18.8069 85.3479 17.9339 87.5466C17.5995 88.3534 17.068 89.0633 16.3881 89.6115C15.7082 90.1596 14.9016 90.5284 14.0423 90.684H14.0333C13.9475 90.6856 13.8619 90.6916 13.7768 90.702H13.7705C13.2343 90.7481 12.6949 90.6615 12.2 90.45C9.896 89.4258 9.347 86.2335 9.2174 84.906C8.98986 83.2483 9.09589 81.5618 9.52926 79.9457C9.96263 78.3295 10.7146 76.8162 11.741 75.4947C12.5417 74.5627 13.5414 73.8221 14.6662 73.3275C15.7911 72.833 17.0126 72.5971 18.2408 72.6372L18.5324 72.6597C19.135 72.7266 19.7238 72.8853 20.2784 73.1304C21.2586 73.6161 22.1312 74.2937 22.8444 75.1232C23.5576 75.9527 24.0969 76.917 24.4301 77.9589ZM29.8787 71.01C25.9394 70.9146 22.1963 70.722 18.7403 70.4232L18.3956 70.3971H18.3902H18.3812C16.8048 70.3328 15.2343 70.627 13.7881 71.2576C12.3418 71.8882 11.0575 72.8388 10.0319 74.0376C8.80908 75.5882 7.90907 77.3678 7.38492 79.2717C6.86077 81.1755 6.72309 83.165 6.98 85.1229C7.3346 88.7535 8.90419 91.4436 11.2856 92.5029C11.9943 92.8156 12.761 92.9751 13.5356 92.9709C13.6796 92.9709 13.8263 92.9547 13.9721 92.9439C14.0248 92.9442 14.0774 92.9409 14.1296 92.934H14.1449C14.1863 92.934 14.2268 92.934 14.2682 92.9268H14.2745H14.2934C16.6397 92.7621 19.0526 92.5839 21.4754 92.4057L24.1583 92.2086C24.0188 92.6199 23.8685 93.0186 23.6984 93.4011C22.6833 95.973 20.7124 98.0523 18.1985 99.2034C17.9501 99.2934 17.7098 99.3834 17.4695 99.4527H17.4632L17.4479 99.459L17.4344 99.4635H17.4281C17.4173 99.4635 17.4065 99.4635 17.3957 99.4635C13.6787 100.53 9.0176 98.7606 6.3113 95.247C3.1352 91.1646 2.66 85.7259 2.8211 81.8838C3.0011 77.6736 4.0559 71.7138 8.0852 67.2363C9.51969 65.6143 11.3072 64.3431 13.3101 63.5203C15.3131 62.6976 17.478 62.3453 19.6385 62.4906H19.6448C19.6817 62.496 19.7195 62.5023 19.7564 62.5059C20.497 62.5919 21.2255 62.7613 21.9281 63.0108C25.25 64.1574 28.13 67.0743 29.8787 71.01Z" fill="#838C94"/>
<path d="M31.4745 30.6896L31.5852 31.0082C31.6865 31.2853 31.8926 31.5115 32.1591 31.638C32.4256 31.7646 32.7311 31.7815 33.0099 31.6849C33.2887 31.5884 33.5184 31.3862 33.6495 31.1219C33.7807 30.8576 33.8027 30.5524 33.711 30.272L33.6012 29.9525C32.8272 27.7187 32.0502 25.484 31.2702 23.2484C31.2237 23.106 31.1493 22.9743 31.0513 22.8611C30.9533 22.7479 30.8336 22.6554 30.6994 22.589C30.5651 22.5226 30.419 22.4837 30.2695 22.4745C30.12 22.4654 29.9702 22.4861 29.8289 22.5356C29.6876 22.5851 29.5575 22.6623 29.4464 22.7627C29.3353 22.8631 29.2454 22.9847 29.1818 23.1203C29.1183 23.256 29.0826 23.4029 29.0766 23.5525C29.0706 23.7022 29.0946 23.8515 29.1471 23.9918C29.9283 26.2238 30.7041 28.4564 31.4745 30.6896Z" fill="#838C94"/>
<path d="M17.7116 30.9264C17.6028 30.8254 17.4752 30.7469 17.336 30.6955C17.1967 30.644 17.0487 30.6206 16.9004 30.6267C16.7521 30.6327 16.6065 30.668 16.4719 30.7305C16.3373 30.7931 16.2164 30.8816 16.1162 30.9911C16.016 31.1006 15.9385 31.2288 15.888 31.3684C15.8376 31.508 15.8152 31.6561 15.8223 31.8044C15.8294 31.9526 15.8657 32.098 15.9293 32.2322C15.9928 32.3663 16.0822 32.4865 16.1924 32.586C17.7962 34.0548 19.4027 35.5173 21.0119 36.9735C21.1214 37.0726 21.2495 37.1492 21.3886 37.1989C21.5278 37.2486 21.6754 37.2704 21.823 37.263C21.9706 37.2557 22.1153 37.2193 22.2488 37.1561C22.3824 37.0928 22.5021 37.0038 22.6013 36.8943C22.7004 36.7847 22.7771 36.6567 22.8267 36.5175C22.8764 36.3783 22.8982 36.2308 22.8909 36.0832C22.8835 35.9356 22.8472 35.7909 22.7839 35.6573C22.7206 35.5238 22.6316 35.404 22.5221 35.3049C20.9129 33.8487 19.3094 32.3892 17.7116 30.9264Z" fill="#838C94"/>
<path d="M121.001 37.948C121.295 37.9488 121.578 37.8337 121.787 37.6276C122.583 36.8476 123.381 36.0709 124.181 35.2975C124.961 34.5397 125.741 33.7804 126.521 33.0196C126.628 32.9169 126.715 32.7938 126.775 32.6574C126.835 32.521 126.867 32.3741 126.87 32.2252C126.872 32.0762 126.845 31.9282 126.79 31.7898C126.736 31.6513 126.654 31.5252 126.55 31.4186C126.445 31.3121 126.321 31.2273 126.184 31.1691C126.047 31.111 125.9 31.0806 125.751 31.0798C125.602 31.0791 125.454 31.1079 125.316 31.1647C125.179 31.2214 125.053 31.3049 124.948 31.4104C124.172 32.17 123.393 32.9278 122.613 33.6838C121.812 34.4638 121.013 35.242 120.215 36.0184C120.055 36.1747 119.946 36.375 119.9 36.5939C119.855 36.8127 119.875 37.0402 119.96 37.2473C120.044 37.4543 120.188 37.6316 120.373 37.7564C120.559 37.8812 120.777 37.9479 121.001 37.948Z" fill="#838C94"/>
<path d="M111.425 24.4455C110.778 25.8855 110.129 27.3237 109.477 28.7601L108.528 30.8607C108.467 30.9953 108.433 31.1406 108.429 31.2882C108.424 31.4359 108.448 31.5831 108.5 31.7213C108.553 31.8595 108.631 31.9861 108.732 32.0939C108.834 32.2016 108.955 32.2884 109.089 32.3493C109.235 32.4153 109.393 32.4494 109.552 32.4492C109.769 32.4493 109.981 32.387 110.163 32.2697C110.345 32.1523 110.489 31.985 110.578 31.7877L111.528 29.6871C112.177 28.2471 112.827 26.8071 113.477 25.3671C113.599 25.095 113.609 24.7853 113.503 24.5063C113.397 24.2274 113.185 24.0018 112.913 23.8794C112.641 23.7569 112.331 23.7476 112.052 23.8534C111.773 23.9592 111.547 24.1716 111.425 24.4437V24.4455Z" fill="#838C94"/>
<path d="M61.2904 18C59.4414 19.7854 57.7923 21.7669 56.3723 23.9094C53.575 23.9905 50.7758 23.8528 48 23.4976C49.2429 25.7241 50.6993 27.8134 52.1556 29.9026C51.355 31.9919 50.6993 34.2641 50.0359 36.5364C52.5598 35.4231 54.9464 34.3251 57.3711 33.3339C58.8311 35.3704 60.644 37.129 62.7239 38.5265C63.0289 36.2695 63.3415 34.2412 63.7761 32.2435C65.9111 30.4135 67.9318 28.9114 69.7694 27.211C67.6868 26.219 65.4737 25.5284 63.1966 25.1599C62.8838 22.6988 62.2427 20.2908 61.2904 18Z" fill="#838C94"/>
<path d="M86.9388 45.3209C87.9224 47.1966 88.9213 49.0343 90.0498 50.788C90.9343 48.7979 91.7883 46.9069 92.6346 45.0083C94.4471 44.1806 96.3056 43.4576 98.2009 42.8428C96.7452 41.29 94.9113 40.1418 92.8786 39.5106C92.7261 36.6665 92.6651 34.3333 92.6041 32C90.5225 33.7233 88.8526 35.3703 87.1751 37.0173C84.8073 36.563 82.409 36.2852 80 36.1861C80.8741 38.2746 81.9519 40.2718 83.2178 42.1489C82.169 43.8818 81.2268 45.677 80.3965 47.5245C82.6251 46.9405 84.811 46.2042 86.9388 45.3209Z" fill="#838C94"/>
</svg>
