<svg width="32" height="32" viewBox="0 0 32 32" fill="none" xmlns="http://www.w3.org/2000/svg">
<path d="M16.0002 3.83203C12.9435 3.83203 10.4585 6.31703 10.4585 9.3737C10.4585 12.372 12.8035 14.7987 15.8602 14.9037C15.9535 14.892 16.0468 14.892 16.1168 14.9037C16.1402 14.9037 16.1518 14.9037 16.1752 14.9037C16.1868 14.9037 16.1868 14.9037 16.1985 14.9037C19.1852 14.7987 21.5302 12.372 21.5418 9.3737C21.5418 6.31703 19.0568 3.83203 16.0002 3.83203Z" fill="#343A40"/>
<path d="M21.9266 18.0064C18.6716 15.8364 13.3633 15.8364 10.085 18.0064C8.60329 18.9981 7.78662 20.3397 7.78662 21.7747C7.78662 23.2097 8.60329 24.5397 10.0733 25.5197C11.7066 26.6164 13.8533 27.1647 16 27.1647C18.1466 27.1647 20.2933 26.6164 21.9266 25.5197C23.3966 24.5281 24.2133 23.1981 24.2133 21.7514C24.2016 20.3164 23.3966 18.9864 21.9266 18.0064Z" fill="#343A40"/>
</svg>
