<svg width="28" height="28" viewBox="0 0 28 28" fill="none" xmlns="http://www.w3.org/2000/svg">
<path d="M25.375 13.125V14C25.375 15.4972 25.0795 16.9797 24.5053 18.3624C23.9311 19.7451 23.0896 21.0009 22.029 22.0577C20.9685 23.1145 19.7097 23.9515 18.325 24.5208C16.9402 25.09 15.4567 25.3803 13.9595 25.375C8.05328 25.3542 3.24078 20.7747 2.68078 15.0084C2.67471 14.9333 2.68814 14.8579 2.71978 14.7895C2.75142 14.7211 2.80019 14.662 2.86136 14.618C2.92253 14.574 2.99404 14.5466 3.06894 14.5383C3.14385 14.5301 3.21962 14.5413 3.28891 14.5709C4.07592 14.9013 4.94908 14.9666 5.77645 14.7568C6.60382 14.547 7.34044 14.0737 7.875 13.4083C8.22525 13.8439 8.66442 14.1997 9.16316 14.452C9.6619 14.7043 10.2087 14.8473 10.7671 14.8714C11.3256 14.8956 11.8827 14.8002 12.4013 14.5919C12.92 14.3835 13.3882 14.0669 13.7747 13.6631C14.1289 14.2386 14.6105 14.725 15.1823 15.085C14.5425 15.5745 14.0241 16.2049 13.6673 16.9272C13.3105 17.6495 13.1249 18.4444 13.125 19.25C13.1246 19.3713 13.1494 19.4914 13.1979 19.6027C13.2464 19.7139 13.3174 19.8138 13.4066 19.8961C13.4958 19.9784 13.6011 20.0413 13.7159 20.0807C13.8307 20.1201 13.9524 20.1352 14.0733 20.125C14.2953 20.1011 14.5005 19.9953 14.6487 19.8282C14.797 19.6612 14.8776 19.4449 14.875 19.2216C14.8825 18.2982 15.2546 17.4153 15.9101 16.765C16.5657 16.1148 17.4516 15.75 18.375 15.75C18.495 15.7503 18.6137 15.7259 18.7238 15.6783C18.8339 15.6307 18.9331 15.5611 19.0152 15.4736C19.0972 15.3861 19.1604 15.2826 19.2008 15.1697C19.2412 15.0568 19.2579 14.9367 19.25 14.817C19.2304 14.5921 19.1265 14.3829 18.9592 14.2314C18.7918 14.0799 18.5734 13.9972 18.3477 14H17.5C16.8038 14 16.1361 13.7234 15.6438 13.2311C15.1516 12.7389 14.875 12.0712 14.875 11.375V9.62499H21.875C22.8033 9.62499 23.6935 9.99374 24.3499 10.6501C25.0063 11.3065 25.375 12.1967 25.375 13.125ZM4.89234 13.125C6.07797 13.0812 7 12.0717 7 10.885V8.36937C7 7.17827 6.07797 6.16874 4.89234 6.12499C4.59843 6.11426 4.30537 6.1629 4.03068 6.26802C3.756 6.37313 3.50533 6.53256 3.29367 6.73677C3.08201 6.94098 2.9137 7.18577 2.79881 7.45651C2.68392 7.72725 2.6248 8.01838 2.625 8.31249V10.9375C2.6248 11.2316 2.68392 11.5227 2.79881 11.7935C2.9137 12.0642 3.08201 12.309 3.29367 12.5132C3.50533 12.7174 3.756 12.8769 4.03068 12.982C4.30537 13.0871 4.59843 13.1357 4.89234 13.125ZM11.0173 13.125C12.203 13.0823 13.125 12.0728 13.125 10.8861V5.74546C13.125 4.55874 12.203 3.54921 11.0173 3.50656C10.724 3.49584 10.4315 3.54428 10.1572 3.64899C9.88297 3.75371 9.6326 3.91255 9.42103 4.11605C9.20946 4.31956 9.04102 4.56357 8.92573 4.83354C8.81045 5.10352 8.75069 5.39394 8.75 5.68749V10.9375C8.7498 11.2316 8.80892 11.5227 8.92381 11.7935C9.0387 12.0642 9.20701 12.309 9.41867 12.5132C9.63033 12.7174 9.881 12.8769 10.1557 12.982C10.4304 13.0871 10.7234 13.1357 11.0173 13.125ZM19.25 5.68749C19.2502 5.39338 19.1911 5.10225 19.0762 4.83151C18.9613 4.56077 18.793 4.31598 18.5813 4.11177C18.3697 3.90756 18.119 3.74813 17.8443 3.64302C17.5696 3.5379 17.2766 3.48926 16.9827 3.49999C15.797 3.54374 14.875 4.55327 14.875 5.73999V7.87499H18.8125C18.9285 7.87499 19.0398 7.8289 19.1219 7.74685C19.2039 7.66481 19.25 7.55353 19.25 7.43749V5.68749Z" fill="#212529"/>
</svg>
