<svg width="28" height="28" viewBox="0 0 28 28" fill="none" xmlns="http://www.w3.org/2000/svg">
<path d="M26.0266 11.7262C26.0022 11.6029 25.9516 11.4864 25.8782 11.3845C25.8048 11.2826 25.7103 11.1977 25.6011 11.1355L22.3385 9.27615L22.3254 5.59897C22.325 5.47233 22.2971 5.34728 22.2436 5.23247C22.1902 5.11765 22.1125 5.01581 22.0158 4.93397C20.8323 3.93286 19.4694 3.16566 17.9996 2.67319C17.8838 2.63401 17.7612 2.61951 17.6395 2.63062C17.5178 2.64174 17.3997 2.67822 17.293 2.73772L14.0019 4.5774L10.7075 2.73444C10.6007 2.6746 10.4826 2.63785 10.3607 2.62654C10.2388 2.61524 10.1159 2.62964 9.99989 2.66881C8.53095 3.16445 7.16952 3.93461 5.98801 4.93834C5.89151 5.02006 5.81386 5.12173 5.76043 5.23635C5.70699 5.35096 5.67903 5.47579 5.67848 5.60225L5.66207 9.28272L2.39942 11.1421C2.29026 11.2042 2.19577 11.2891 2.12235 11.3911C2.04893 11.493 1.99832 11.6095 1.97395 11.7327C1.67535 13.2332 1.67535 14.7778 1.97395 16.2783C1.99832 16.4016 2.04893 16.5181 2.12235 16.62C2.19577 16.7219 2.29026 16.8068 2.39942 16.869L5.66207 18.7283L5.6752 22.4066C5.67559 22.5333 5.70348 22.6583 5.75692 22.7731C5.81036 22.8879 5.88809 22.9898 5.98473 23.0716C7.16824 24.0727 8.53115 24.8399 10.001 25.3324C10.1167 25.3716 10.2394 25.3861 10.3611 25.375C10.4828 25.3639 10.6008 25.3274 10.7075 25.2679L14.0019 23.4227L17.2963 25.2657C17.4267 25.3383 17.5736 25.376 17.7229 25.3751C17.8184 25.375 17.9133 25.3595 18.0039 25.3291C19.4725 24.8337 20.8339 24.0643 22.0158 23.0618C22.1123 22.9801 22.19 22.8784 22.2434 22.7638C22.2968 22.6492 22.3248 22.5243 22.3254 22.3979L22.3418 18.7174L25.6044 16.858C25.7136 16.7959 25.8081 16.711 25.8815 16.6091C25.9549 16.5071 26.0055 16.3906 26.0299 16.2674C26.3268 14.7681 26.3257 13.225 26.0266 11.7262ZM14.0019 18.3751C13.1366 18.3751 12.2908 18.1185 11.5713 17.6377C10.8518 17.157 10.2911 16.4737 9.95994 15.6743C9.62881 14.8749 9.54217 13.9952 9.71098 13.1465C9.87979 12.2979 10.2965 11.5183 10.9083 10.9065C11.5202 10.2946 12.2997 9.87794 13.1484 9.70913C13.9971 9.54032 14.8767 9.62695 15.6762 9.95809C16.4756 10.2892 17.1589 10.85 17.6396 11.5694C18.1203 12.2889 18.3769 13.1348 18.3769 14.0001C18.3769 15.1604 17.916 16.2732 17.0955 17.0937C16.275 17.9141 15.1622 18.3751 14.0019 18.3751Z" fill="#212529"/>
</svg>
