<svg width="390" height="160" viewBox="0 0 390 160" fill="none" xmlns="http://www.w3.org/2000/svg">
<g clip-path="url(#clip0_1103_5604)">
<rect width="390" height="160" fill="#343A40"/>
<path fill-rule="evenodd" clip-rule="evenodd" d="M316.35 65.0957C314.499 65.4317 313.132 67.0127 313.067 68.8933L312.683 79.9898L212.531 98.1651C209.608 98.6955 207.513 101.285 207.605 104.254L211.212 220.986C211.325 224.652 214.672 227.359 218.28 226.704L389.352 195.659C392.275 195.128 394.37 192.539 394.278 189.57L390.671 72.8378C390.66 72.4806 390.619 72.1325 390.549 71.7958L390.822 56.443C390.867 53.9194 388.592 51.9855 386.108 52.4362L316.35 65.0957Z" fill="#C9410F"/>
<path d="M278.88 210.165C278.051 207.849 274.439 198.856 272.737 194.649L240.668 59.4117L315.406 30.2204C315.966 57.4376 357.636 125.874 376.457 168.114L376.1 168.28C340.678 184.768 279.913 213.051 278.88 210.165Z" fill="#DCDCE4"/>
<path d="M290.8 210.276C289.322 208.309 283.207 200.791 280.334 197.278L209.621 77.6229L272.347 27.5907C280.334 41.4373 326.966 118.937 371.528 141.192L371.236 141.456C342.292 167.702 292.642 212.725 290.8 210.276Z" fill="#EEEEF0"/>
<path d="M264.467 203.937C240.773 180.753 192.466 152.938 161.302 100.953C189.466 88.4375 223.966 54.4375 242.068 31.4548C259.966 68.9375 314.137 116.049 340.213 145.802C315.081 166.072 280.835 189.548 264.467 203.937Z" fill="white"/>
<path fill-rule="evenodd" clip-rule="evenodd" d="M278.806 98.3338C276.229 98.8015 274.789 101.579 275.892 103.954L279.37 111.444L182.304 129.059C177.343 129.959 174.442 135.169 176.289 139.861L209.903 225.231C211.302 228.785 215.018 230.854 218.775 230.172L387.705 199.515C392.666 198.614 395.568 193.404 393.72 188.712L360.106 103.343C359.816 102.604 359.425 101.93 358.954 101.331L352.744 87.955C351.977 86.304 350.192 85.3788 348.401 85.7039L278.806 98.3338Z" fill="url(#paint0_linear_1103_5604)"/>
<g clip-path="url(#clip1_1103_5604)">
<path d="M142.319 171.383L99.7897 137.438C99.7897 137.438 75.5659 137.784 63.9527 166.32C52.3394 194.855 36.4749 192.537 28.3799 187.534L72.1705 236.286C72.1705 236.286 75.018 239.337 81.1196 233.642C87.2213 227.947 96.8618 213.811 110.57 193.024C124.278 172.238 132.597 170.753 142.319 171.383Z" fill="white"/>
</g>
<g clip-path="url(#clip2_1103_5604)">
<path d="M90.8539 89.4806C90.8539 89.4806 110.453 95.0184 132.487 93.7244C142.829 91.0253 152.449 87.7126 159.686 83.789C159.686 83.789 111 72.5002 104.283 55.7952C104.283 55.7952 64.5002 76.5002 16.7125 64.4089C16.7125 64.4089 18.4475 74.1872 27.383 82.8682C27.383 82.8682 44.0494 101.388 69.1523 102.514C70.8153 102.589 72.8896 102.582 75.2979 102.495C79.2316 100.843 85.7493 97.1419 90.8539 89.4806Z" fill="white"/>
<path d="M92.0922 86.498C86.3502 97.0165 79.2296 100.842 75.298 102.495C88.5622 102.016 111.951 99.0808 132.487 93.724C110.453 95.0181 92.0922 86.498 92.0922 86.498Z" fill="#DCDCE4"/>
</g>
<path d="M339.377 36.6473C339.38 37.3772 339.599 38.0897 340.007 38.6951C340.415 39.3004 340.993 39.7714 341.668 40.0485C342.343 40.3256 343.086 40.3965 343.801 40.2522C344.517 40.1078 345.173 39.7548 345.688 39.2376C346.203 38.7203 346.553 38.0622 346.695 37.3461C346.836 36.63 346.762 35.8881 346.482 35.2141C346.202 34.5401 345.728 33.9641 345.121 33.5589C344.514 33.1537 343.801 32.9375 343.071 32.9375C342.089 32.9405 341.149 33.3328 340.456 34.0283C339.764 34.7239 339.376 35.6658 339.377 36.6473Z" fill="#F6DF6D"/>
<path d="M296.525 92.728C295.459 87.3096 294.528 81.1979 297.704 76.6831C300.057 73.341 304.251 71.682 308.331 71.4337C312.411 71.1854 316.457 72.1545 320.427 73.1168C317.071 63.4733 321.899 51.7018 331.057 47.1904" stroke="#9061EE" stroke-width="2.6286" stroke-miterlimit="10" stroke-linecap="round"/>
<path d="M119.987 39.6429C117.497 37.0456 117.639 32.6424 119.801 29.7713C121.962 26.9001 125.728 25.4974 129.355 25.5022C132.982 25.507 136.493 26.7528 139.732 28.3607C148.572 32.7452 155.937 39.9641 160.437 48.6541" stroke="#9061EE" stroke-width="2.6286" stroke-miterlimit="10" stroke-linecap="round"/>
<path d="M143 118.647C143.003 119.377 143.222 120.09 143.63 120.695C144.038 121.3 144.616 121.771 145.291 122.048C145.967 122.326 146.709 122.396 147.424 122.252C148.14 122.108 148.796 121.755 149.311 121.238C149.826 120.72 150.177 120.062 150.318 119.346C150.459 118.63 150.385 117.888 150.105 117.214C149.825 116.54 149.351 115.964 148.744 115.559C148.137 115.154 147.424 114.938 146.694 114.938C145.712 114.94 144.772 115.333 144.08 116.028C143.387 116.724 142.999 117.666 143 118.647Z" fill="#F6DF6D"/>
<path d="M43.9262 117.554C42.3729 115.586 41.058 113.712 39.62 111.938C38.6281 114.049 37.8361 116.06 37.1209 118.028C35.137 118.689 33.1454 119.343 31 120.162C32.8404 121.092 34.5699 122.202 36.1597 123.473C36.1136 125.527 36.1443 127.582 36.3212 129.937C37.9715 128.281 39.7473 126.737 41.6347 125.319C43.7109 126.447 45.7897 127.577 47.871 128.709C47.7018 126.648 46.533 122.783 46.4484 122.266C48.6246 120.226 51.0699 117.274 51.0237 116.958C48.642 116.922 46.2629 117.122 43.9262 117.554Z" fill="#E75DCD"/>
<path d="M197.493 17.8651C195.631 15.4597 194.055 13.1684 192.331 11C191.143 13.581 190.193 16.0391 189.336 18.4445C186.958 19.2522 184.571 20.0511 182 21.0519C184.206 22.1889 186.279 23.5455 188.184 25.099C188.129 27.6097 188.166 30.1205 188.378 33C190.356 30.9754 192.484 29.0889 194.746 27.3551C197.235 28.7334 199.726 30.1147 202.221 31.4988C202.018 28.9792 200.617 24.2562 200.516 23.6241C203.124 21.1309 206.055 17.5227 205.999 17.1365C203.145 17.0928 200.293 17.337 197.493 17.8651Z" fill="#37C084"/>
<path d="M41.7792 -91.4167C41.7792 -91.4167 62.2242 -96.9179 82.1058 -40.8151C102.875 17.7948 137.043 -16.2905 129.539 -31.4277L167.476 -56.4045C167.476 -56.4045 157.973 -50.91 153.488 -75.336C149.772 -95.5631 140.19 -109.302 129.958 -113.796C126.807 -115.18 122.095 -116.54 118.831 -115.452L41.7792 -91.4167Z" fill="white"/>
</g>
<defs>
<linearGradient id="paint0_linear_1103_5604" x1="273.22" y1="99.3475" x2="294.468" y2="216.435" gradientUnits="userSpaceOnUse">
<stop stop-color="#FF5414"/>
<stop offset="1" stop-color="#FB723E"/>
</linearGradient>
<clipPath id="clip0_1103_5604">
<rect width="390" height="160" fill="white"/>
</clipPath>
<clipPath id="clip1_1103_5604">
<rect width="114.431" height="100.479" fill="white" transform="translate(29.0752 135) rotate(1.97423)"/>
</clipPath>
<clipPath id="clip2_1103_5604">
<rect width="143.698" height="48.2476" fill="white" transform="translate(17.2744 51.8896) rotate(2.57007)"/>
</clipPath>
</defs>
</svg>
