<svg width="32" height="32" viewBox="0 0 32 32" fill="none" xmlns="http://www.w3.org/2000/svg">
<path d="M23 7.625H9C8.52167 7.625 8.125 7.22833 8.125 6.75C8.125 6.27167 8.52167 5.875 9 5.875H23C23.4783 5.875 23.875 6.27167 23.875 6.75C23.875 7.22833 23.4783 7.625 23 7.625Z" fill="#343A40"/>
<path d="M19.5 4.70703H12.5C12.0217 4.70703 11.625 4.31036 11.625 3.83203C11.625 3.3537 12.0217 2.95703 12.5 2.95703H19.5C19.9783 2.95703 20.375 3.3537 20.375 3.83203C20.375 4.31036 19.9783 4.70703 19.5 4.70703Z" fill="#343A40"/>
<path fill-rule="evenodd" clip-rule="evenodd" d="M9.0026 9.66797H23.0026C25.5693 9.66797 27.6693 11.768 27.6693 14.3346V22.5013C27.6693 25.068 25.5693 27.168 23.0026 27.168H9.0026C6.43594 27.168 4.33594 25.068 4.33594 22.5013V14.3346C4.33594 11.768 6.43594 9.66797 9.0026 9.66797ZM11.125 15.501C11.125 15.0177 11.5168 14.626 12 14.626H20C20.4832 14.626 20.875 15.0177 20.875 15.501C20.875 15.9842 20.4832 16.376 20 16.376H12C11.5168 16.376 11.125 15.9842 11.125 15.501ZM12 20.626C11.5168 20.626 11.125 21.0177 11.125 21.501C11.125 21.9842 11.5168 22.376 12 22.376H20C20.4832 22.376 20.875 21.9842 20.875 21.501C20.875 21.0177 20.4832 20.626 20 20.626H12Z" fill="#343A40"/>
</svg>
