<svg width="22" height="22" viewBox="0 0 22 22" fill="none" xmlns="http://www.w3.org/2000/svg">
<path d="M19.25 11C19.2502 13.169 18.3962 15.2508 16.873 16.7948C15.3497 18.3388 13.2796 19.2209 11.1109 19.25H11C8.89302 19.2553 6.86493 18.4489 5.33672 16.9984C5.27109 16.9364 5.21834 16.862 5.18146 16.7795C5.14458 16.6971 5.12431 16.6081 5.1218 16.5179C5.11928 16.4276 5.13458 16.3377 5.16681 16.2533C5.19904 16.1689 5.24758 16.0917 5.30965 16.0261C5.37172 15.9604 5.44611 15.9077 5.52857 15.8708C5.61102 15.8339 5.69994 15.8136 5.79023 15.8111C5.88053 15.8086 5.97043 15.8239 6.05482 15.8561C6.1392 15.8884 6.21641 15.9369 6.28203 15.999C7.26498 16.926 8.49929 17.5428 9.83076 17.7724C11.1622 18.002 12.5318 17.8341 13.7685 17.2898C15.0051 16.7456 16.054 15.849 16.784 14.712C17.514 13.5751 17.8929 12.2483 17.8732 10.8973C17.8536 9.54637 17.4363 8.23113 16.6735 7.11594C15.9107 6.00074 14.8362 5.13504 13.5842 4.62696C12.3323 4.11889 10.9584 3.99097 9.63415 4.25919C8.30992 4.52741 7.09408 5.17987 6.13852 6.13508C6.13149 6.14267 6.12403 6.14985 6.11617 6.15656L3.83195 8.25H6.1875C6.36984 8.25 6.5447 8.32243 6.67364 8.45136C6.80257 8.5803 6.875 8.75516 6.875 8.9375C6.875 9.11984 6.80257 9.2947 6.67364 9.42364C6.5447 9.55257 6.36984 9.625 6.1875 9.625H2.0625C1.88016 9.625 1.7053 9.55257 1.57636 9.42364C1.44743 9.2947 1.375 9.11984 1.375 8.9375V4.8125C1.375 4.63016 1.44743 4.4553 1.57636 4.32636C1.7053 4.19743 1.88016 4.125 2.0625 4.125C2.24484 4.125 2.4197 4.19743 2.54864 4.32636C2.67757 4.4553 2.75 4.63016 2.75 4.8125V7.37344L5.17773 5.15625C6.33272 4.00575 7.80267 3.22323 9.40202 2.90746C11.0014 2.5917 12.6584 2.75685 14.164 3.38206C15.6696 4.00727 16.9561 5.06452 17.8613 6.42035C18.7665 7.77617 19.2498 9.36978 19.25 11Z" fill="black"/>
</svg>
