<svg width="28" height="28" viewBox="0 0 28 28" fill="none" xmlns="http://www.w3.org/2000/svg">
<path d="M19.2501 25.3744C19.2501 25.6064 19.158 25.829 18.9939 25.9931C18.8298 26.1572 18.6072 26.2494 18.3751 26.2494H9.62514C9.39308 26.2494 9.17052 26.1572 9.00642 25.9931C8.84233 25.829 8.75014 25.6064 8.75014 25.3744C8.75014 25.1423 8.84233 24.9198 9.00642 24.7557C9.17052 24.5916 9.39308 24.4994 9.62514 24.4994H18.3751C18.6072 24.4994 18.8298 24.5916 18.9939 24.7557C19.158 24.9198 19.2501 25.1423 19.2501 25.3744ZM23.6251 11.3744C23.6289 12.833 23.2994 14.2733 22.6617 15.5852C22.0241 16.8971 21.0951 18.046 19.9458 18.9442C19.7309 19.1089 19.5565 19.3206 19.4359 19.5631C19.3153 19.8055 19.2518 20.0724 19.2501 20.3431V20.9994C19.2501 21.4635 19.0658 21.9086 18.7376 22.2368C18.4094 22.565 17.9643 22.7494 17.5001 22.7494H10.5001C10.036 22.7494 9.5909 22.565 9.26271 22.2368C8.93452 21.9086 8.75014 21.4635 8.75014 20.9994V20.3431C8.74996 20.0756 8.68845 19.8117 8.57032 19.5716C8.45219 19.3316 8.2806 19.1218 8.06874 18.9584C6.92227 18.0656 5.99394 16.9236 5.35403 15.6189C4.71411 14.3142 4.37937 12.8811 4.37514 11.428C4.34671 6.21516 8.55983 1.87406 13.7683 1.74938C15.0516 1.71845 16.3282 1.94456 17.5228 2.4144C18.7175 2.88423 19.8061 3.5883 20.7246 4.48516C21.643 5.38202 22.3728 6.45356 22.871 7.63669C23.3691 8.81982 23.6255 10.0907 23.6251 11.3744ZM20.1131 10.3528C19.8862 9.08548 19.2765 7.91809 18.366 7.0078C17.4555 6.09751 16.288 5.48802 15.0206 5.26141C14.9073 5.2423 14.7913 5.24571 14.6793 5.27143C14.5673 5.29715 14.4614 5.34468 14.3678 5.4113C14.2742 5.47793 14.1946 5.56235 14.1335 5.65974C14.0725 5.75713 14.0313 5.86558 14.0122 5.97891C13.9931 6.09223 13.9965 6.20821 14.0222 6.32022C14.0479 6.43223 14.0954 6.53808 14.1621 6.63173C14.2287 6.72537 14.3131 6.80497 14.4105 6.86599C14.5079 6.927 14.6163 6.96824 14.7297 6.98734C16.542 7.2925 18.0798 8.83031 18.3872 10.6459C18.4218 10.8497 18.5275 11.0347 18.6854 11.168C18.8434 11.3013 19.0434 11.3745 19.2501 11.3744C19.2996 11.3741 19.349 11.3701 19.3978 11.3623C19.6265 11.3233 19.8304 11.195 19.9645 11.0057C20.0986 10.8164 20.1521 10.5815 20.1131 10.3528Z" fill="#212529"/>
</svg>
