<svg width="144" height="144" viewBox="0 0 144 144" fill="none" xmlns="http://www.w3.org/2000/svg">
<path d="M35.475 26.6898L35.5857 27.0084C35.687 27.2855 35.8931 27.5117 36.1596 27.6383C36.4261 27.7649 36.7316 27.7817 37.0104 27.6852C37.2892 27.5886 37.5189 27.3864 37.65 27.1221C37.7812 26.8578 37.8032 26.5526 37.7115 26.2722L37.6017 25.9527C36.8277 23.7189 36.0507 21.4842 35.2707 19.2486C35.2242 19.1062 35.1498 18.9746 35.0518 18.8614C34.9537 18.7481 34.8341 18.6556 34.6999 18.5892C34.5656 18.5228 34.4195 18.4839 34.27 18.4748C34.1205 18.4656 33.9707 18.4864 33.8294 18.5359C33.688 18.5854 33.558 18.6626 33.4469 18.763C33.3358 18.8634 33.2458 18.985 33.1823 19.1206C33.1188 19.2562 33.083 19.4032 33.0771 19.5528C33.0711 19.7024 33.0951 19.8517 33.1476 19.992C33.9288 22.224 34.7046 24.4566 35.475 26.6898Z" fill="#E75DCD"/>
<path d="M21.7128 26.9266C21.604 26.8256 21.4764 26.7471 21.3372 26.6957C21.198 26.6443 21.0499 26.6209 20.9016 26.6269C20.7534 26.6329 20.6077 26.6682 20.4731 26.7308C20.3385 26.7933 20.2177 26.8819 20.1174 26.9914C20.0172 27.1008 19.9397 27.2291 19.8892 27.3686C19.8388 27.5082 19.8165 27.6564 19.8235 27.8046C19.8306 27.9529 19.867 28.0983 19.9305 28.2324C19.994 28.3665 20.0834 28.4868 20.1936 28.5862C21.7974 30.055 23.4039 31.5175 25.0131 32.9737C25.1227 33.0729 25.2507 33.1495 25.3899 33.1992C25.529 33.2489 25.6766 33.2706 25.8242 33.2633C25.9718 33.2559 26.1165 33.2196 26.25 33.1563C26.3836 33.093 26.5033 33.0041 26.6025 32.8945C26.7017 32.7849 26.7783 32.6569 26.828 32.5178C26.8776 32.3786 26.8994 32.231 26.8921 32.0834C26.8847 31.9358 26.8484 31.7911 26.7851 31.6576C26.7218 31.524 26.6329 31.4043 26.5233 31.3051C24.9141 29.8489 23.3106 28.3894 21.7128 26.9266Z" fill="#9061EE"/>
<path d="M125.001 33.9483C125.295 33.949 125.578 33.8339 125.788 33.6279C126.584 32.8479 127.381 32.0712 128.181 31.2978C128.961 30.54 129.741 29.7807 130.521 29.0199C130.629 28.9171 130.715 28.794 130.775 28.6576C130.835 28.5213 130.867 28.3743 130.87 28.2254C130.873 28.0765 130.846 27.9285 130.791 27.79C130.736 27.6516 130.654 27.5254 130.55 27.4189C130.446 27.3123 130.322 27.2275 130.185 27.1693C130.047 27.1112 129.9 27.0809 129.751 27.0801C129.602 27.0793 129.455 27.1082 129.317 27.1649C129.179 27.2216 129.054 27.3052 128.949 27.4107C128.172 28.1703 127.394 28.9281 126.613 29.6841C125.813 30.4641 125.014 31.2423 124.216 32.0187C124.056 32.1749 123.946 32.3752 123.901 32.5941C123.855 32.813 123.876 33.0405 123.96 33.2475C124.044 33.4546 124.188 33.6318 124.374 33.7566C124.559 33.8814 124.778 33.9481 125.001 33.9483Z" fill="#1368EB"/>
<path d="M115.427 20.4457C114.78 21.8857 114.131 23.3239 113.479 24.7603L112.53 26.8609C112.469 26.9955 112.435 27.1408 112.43 27.2885C112.426 27.4362 112.45 27.5833 112.502 27.7215C112.554 27.8598 112.633 27.9864 112.734 28.0941C112.835 28.2019 112.957 28.2886 113.091 28.3495C113.236 28.4156 113.394 28.4497 113.554 28.4494C113.77 28.4496 113.982 28.3873 114.164 28.2699C114.346 28.1526 114.491 27.9852 114.58 27.7879L115.529 25.6873C116.179 24.2473 116.829 22.8073 117.479 21.3673C117.601 21.0952 117.611 20.7856 117.505 20.5066C117.399 20.2276 117.187 20.0021 116.914 19.8796C116.642 19.7572 116.333 19.7478 116.054 19.8537C115.775 19.9595 115.549 20.1718 115.427 20.4439V20.4457Z" fill="#37C084"/>
<path d="M122.26 47.7004C122.188 47.6927 122.115 47.6927 122.043 47.7004C116.507 48.181 109.584 48.5221 101.479 48.7192C101.384 48.4771 101.282 48.2341 101.162 47.9911C100.64 46.9098 99.8765 45.9634 98.9299 45.2252C97.9832 44.4871 96.8791 43.9771 95.7033 43.735C94.0405 43.4503 92.332 43.8178 90.9333 44.761C89.9558 43.9481 88.7913 43.3913 87.5448 43.141C86.6085 42.9649 85.6462 42.9807 84.7161 43.1874C83.7861 43.3941 82.9077 43.7873 82.134 44.3434C81.9873 44.2435 81.8415 44.1427 81.684 44.0509C80.3983 43.3033 78.9342 42.9175 77.447 42.9344C75.9599 42.9514 74.505 43.3704 73.2366 44.1472C71.3917 43.0571 69.2168 42.6656 67.1076 43.0438C64.9625 43.5491 63.0383 44.7346 61.6221 46.4233C61.0101 47.1205 60.4508 47.8623 59.949 48.6427C38.6307 48.2125 21.1302 47.3782 20.9547 47.3692C20.2881 47.3125 19.6181 47.3059 18.9504 47.3494C15.4251 47.3494 12.0996 49.2808 9.58502 52.789C5.20832 58.9036 4.05092 68.2879 6.72032 76.1404C8.35292 80.9446 11.4075 84.2467 15.0975 85.1998C15.8278 85.3902 16.5794 85.4864 17.334 85.486C17.7283 85.4814 18.1218 85.4513 18.5121 85.396C18.567 85.3888 18.621 85.396 18.675 85.3834H18.6885L19.2105 85.3033C19.2533 85.2966 19.2957 85.2876 19.3374 85.2763C29.5452 83.5942 39.9204 82.3963 50.2011 81.6907C50.3565 83.4089 50.7086 85.1036 51.2505 86.7415C52.2811 89.4179 53.6309 91.9602 55.2708 94.3132C56.4027 95.9998 57.4228 97.7589 58.3245 99.5791C61.8822 107.213 60.8778 116.532 60.0714 124.021C60.0521 124.17 60.0627 124.321 60.1025 124.465C60.1423 124.61 60.2105 124.745 60.3032 124.862C60.3959 124.98 60.5112 125.078 60.6422 125.15C60.7733 125.223 60.9175 125.269 61.0664 125.285C61.2154 125.301 61.366 125.287 61.5095 125.244C61.653 125.201 61.7865 125.13 61.9021 125.035C62.0178 124.939 62.1132 124.822 62.1829 124.689C62.2526 124.557 62.2951 124.412 62.3079 124.262L62.3196 124.151C63.1548 116.404 64.1682 106.793 60.3639 98.6287C59.4214 96.7174 58.3532 94.8707 57.1662 93.1009C55.6239 90.8983 54.3523 88.5181 53.379 86.0116C52.7831 84.1997 52.4335 82.3159 52.3395 80.4109C52.2108 78.466 52.2405 76.5139 52.2882 74.344C52.3413 71.8492 52.3953 69.2698 52.5384 66.7336C52.6356 65.0164 52.7364 63.7069 52.8678 62.4793C52.9875 61.2733 53.1828 59.9269 53.9874 59.215C54.9882 58.3294 56.8143 58.765 57.7737 59.7343C58.7421 60.7243 59.3172 62.2849 59.5287 64.4782C59.589 65.209 59.6241 65.9479 59.661 66.7282C59.7027 68.0154 59.8642 69.2959 60.1434 70.5532C61.1217 74.4592 63.9468 77.3176 66.6792 80.0806L67.1976 80.6053C69.4863 82.9453 71.4573 85.1107 72.4023 87.8296C72.4508 87.9691 72.5263 88.0978 72.6244 88.2082C72.7226 88.3186 72.8416 88.4086 72.9746 88.4731C73.1075 88.5375 73.2519 88.5751 73.3994 88.5838C73.5469 88.5924 73.6946 88.5719 73.8342 88.5235C73.9738 88.475 74.1025 88.3995 74.2129 88.3013C74.3233 88.2032 74.4133 88.0842 74.4777 87.9512C74.5422 87.8183 74.5798 87.6739 74.5884 87.5264C74.5971 87.3789 74.5766 87.2311 74.5281 87.0916C73.6434 84.7895 72.3029 82.6898 70.587 80.9185H70.6509L72.7389 80.9095C76.0365 80.9095 79.4439 80.9653 83.1528 81.0796C87.2442 81.2083 91.5129 81.4333 95.8509 81.7438C95.7789 86.4382 94.9527 91.0906 93.4038 95.5228C92.2935 98.7553 91.5576 102.104 91.2105 105.505C90.6921 111.815 90.2637 123.228 90.2619 124.37V124.379C90.2619 124.678 90.3804 124.964 90.5914 125.175C90.8024 125.386 91.0886 125.504 91.3869 125.504C91.6853 125.504 91.9714 125.386 92.1824 125.175C92.3934 124.964 92.5119 124.678 92.5119 124.379C92.5119 123.541 92.9178 112.199 93.4524 105.689C93.7848 102.451 94.4899 99.2617 95.5539 96.1852C97.1559 91.5955 98.0157 86.7797 98.1009 81.9193C106.633 82.5862 115.211 83.5879 123.619 84.919C123.678 84.9289 123.738 84.9337 123.799 84.9334C124.051 84.9333 124.296 84.8486 124.494 84.6931C127.876 82.2268 130.393 78.7568 131.688 74.7769C132.378 72.4874 132.603 70.0832 132.35 67.7056L137.578 67.6984C137.729 67.6982 137.879 67.6675 138.018 67.6081C138.158 67.5487 138.284 67.4617 138.389 67.3525C138.494 67.2433 138.575 67.114 138.629 66.9724C138.683 66.8307 138.708 66.6797 138.702 66.5284C138.502 62.0268 136.85 57.711 133.993 54.2263C131.098 50.586 126.879 48.2398 122.26 47.7004ZM129.533 74.1235C128.428 77.5059 126.316 80.4704 123.481 82.6204C114.773 81.2551 105.886 80.23 97.0605 79.5739C92.7054 79.249 88.4205 79.0168 84.294 78.8719C86.7201 76.2791 88.3347 73.0333 88.9389 69.5344C89.0359 68.9438 89.1032 68.3488 89.1405 67.7515C89.1585 67.7515 89.1729 67.7614 89.1909 67.7614L130.088 67.7083C130.348 69.8615 130.159 72.0452 129.533 74.1217V74.1235ZM70.6509 78.6694C69.9246 78.6694 69.1974 78.6793 68.4711 78.6919L68.2821 78.5011C65.6469 75.8353 63.1575 73.3171 62.3277 70.0069C62.1555 69.2772 62.0442 68.5346 61.9947 67.7866L75.8871 67.7704C75.8529 68.2456 75.8061 68.719 75.7359 69.1924C75.2136 72.6549 73.7944 75.9205 71.6193 78.6649L70.6509 78.6694ZM25.1496 82.1092C25.3776 81.8842 25.596 81.6502 25.8048 81.4072C27.6275 79.1864 28.831 76.5234 29.2932 73.6879C29.4695 72.7487 29.5898 71.8 29.6532 70.8466C29.8399 68.5334 29.5899 66.2057 28.9161 63.985C28.6024 63.008 28.1708 62.0729 27.6309 61.2004C27.1097 60.3893 26.4781 59.6548 25.7544 59.0179C27.7524 59.0899 30.0132 59.1835 32.3055 59.2816C33.5417 61.6781 34.4323 64.2376 34.9506 66.8839C34.9959 67.1441 35.1314 67.3802 35.3333 67.5505C35.5353 67.7208 35.7907 67.8146 36.0549 67.8154C40.7853 67.8154 45.5154 67.81 50.2452 67.7992C50.1444 69.9826 50.0868 72.1714 50.0418 74.2981C50.0013 76.1125 49.9797 77.7829 50.0418 79.4434C41.7609 80.0104 33.4197 80.9104 25.1496 82.1092ZM19.8324 58.8604C19.9458 58.8604 20.0565 58.8604 20.1645 58.873C20.1894 58.8743 20.2143 58.8743 20.2392 58.873H20.2509H20.3139C21.4219 59.0166 22.4834 59.4078 23.4198 60.0174C24.3561 60.627 25.1432 61.4395 25.7229 62.3947C25.8735 62.6347 26.0139 62.8837 26.1441 63.1417C24.1707 63.0715 22.1973 63.0046 20.2239 62.941C19.995 62.935 19.7695 62.9981 19.5769 63.122C19.3843 63.2459 19.2334 63.4249 19.1439 63.6358C19.0564 63.8471 19.0354 64.0802 19.0836 64.3038C19.1318 64.5275 19.247 64.7311 19.4139 64.8877C19.9142 65.5351 20.2817 66.275 20.4951 67.0648C20.7086 67.8547 20.7638 68.679 20.6577 69.4903C20.6221 70.0705 20.4429 70.6328 20.1363 71.1267C19.8297 71.6206 19.4052 72.0306 18.9009 72.3199C18.6109 72.4789 18.2902 72.574 17.9604 72.5989C17.4675 72.624 16.9747 72.5467 16.5132 72.372C16.0516 72.1973 15.6312 71.9289 15.2784 71.5837C14.2427 70.4254 13.647 68.9399 13.5954 67.387C13.4035 65.4974 13.8073 63.5952 14.7501 61.9465C15.2046 61.1701 15.8192 60.4994 16.553 59.979C17.2869 59.4587 18.1232 59.1007 19.0062 58.9288C19.2795 58.8855 19.5557 58.8626 19.8324 58.8604ZM22.2561 65.263C23.8287 65.3152 25.401 65.3695 26.973 65.4259C27.3937 67.1486 27.5407 68.9269 27.4086 70.6954C27.3681 71.2804 27.3015 71.8339 27.2286 72.3721L26.2548 72.3946L21.9348 72.4963C22.4623 71.6734 22.7914 70.7392 22.896 69.7675C23.0559 68.2368 22.8361 66.6903 22.2561 65.2648V65.263ZM50.6322 62.2489C50.5269 63.2389 50.4396 64.291 50.3622 65.5474C45.9012 65.5552 41.4408 65.5606 36.981 65.5636C36.3399 62.8062 35.3367 60.1458 33.9975 57.6517C32.4586 54.6084 30.2439 51.9575 27.5229 49.9018C34.6698 50.1916 46.8477 50.6317 60.5403 50.9026C62.3403 50.9413 64.1754 50.9737 66.0249 51.0052C66.7348 53.2334 67.9655 55.2604 69.615 56.9182C70.5446 57.9252 71.71 58.6854 73.0062 59.1304C73.3784 59.2433 73.761 59.3184 74.1483 59.3545C74.3112 59.3689 74.4732 59.377 74.6334 59.377C74.6577 59.377 74.6811 59.3716 74.7054 59.3716C75.4329 61.3444 75.8462 63.4193 75.9303 65.5204L61.8471 65.5366C61.8237 65.1181 61.8066 64.7023 61.7715 64.2766C61.5078 61.5388 60.7284 59.539 59.382 58.1566C57.672 56.425 54.5004 55.759 52.4997 57.5266C51.1524 58.7245 50.8059 60.5083 50.6322 62.2507V62.2489ZM67.5585 45.2488C68.4433 45.0993 69.3488 45.1258 70.2233 45.3265C71.0978 45.5273 71.9242 45.8984 72.6552 46.4188C72.8433 46.5419 73.0237 46.6766 73.1952 46.822C74.3779 47.813 75.3184 49.0613 75.9447 50.4715C76.1929 51.0115 76.4098 51.5653 76.5945 52.1302C76.9066 52.9786 77.0375 53.883 76.9788 54.7852C76.9433 55.194 76.8267 55.5918 76.6359 55.9552C76.5005 56.245 76.3004 56.5 76.0509 56.7004C75.5553 57.0407 74.9519 57.1874 74.3553 57.1126C74.121 57.0904 73.8894 57.0449 73.6641 56.9767C72.7243 56.637 71.8818 56.0728 71.2098 55.3333C69.6324 53.7483 68.51 51.7686 67.9599 49.6012C67.8951 49.3636 67.8465 49.126 67.797 48.8875C67.7364 48.5955 67.5623 48.3395 67.3131 48.1758C67.0638 48.0121 66.7598 47.9541 66.4677 48.0145C66.2791 48.0556 66.1046 48.1454 65.9614 48.2748C65.8182 48.4043 65.7113 48.5689 65.6514 48.7525C64.6536 48.7357 63.6636 48.7177 62.6814 48.6985C62.892 48.4285 63.1026 48.163 63.3177 47.9218C64.4152 46.6071 65.8991 45.6718 67.5585 45.2488ZM80.5419 45.985C80.8617 46.1748 81.1644 46.3923 81.4464 46.6348C82.5853 47.6327 83.4247 48.9273 83.871 50.3743C84.1355 51.207 84.2868 52.0716 84.321 52.9447C84.3908 53.9486 84.1877 54.9528 83.7333 55.8508C83.524 56.2266 83.2242 56.5442 82.8612 56.7751C82.3916 57.0142 81.8696 57.132 81.3429 57.1177C80.8161 57.1034 80.3013 56.9574 79.8453 56.6932C79.5442 56.5287 79.2589 56.3368 78.993 56.1199C79.1099 55.7556 79.186 55.3795 79.2198 54.9985C79.3006 53.7933 79.1365 52.5843 78.7374 51.4444C78.5247 50.7933 78.2747 50.1551 77.9886 49.5328C77.3235 48.0668 76.3835 46.7421 75.2193 45.6304C76.0755 45.2828 76.9994 45.1342 77.9214 45.1956C78.8434 45.257 79.7394 45.5269 80.5419 45.985ZM87.1245 45.3496C88.2632 45.5826 89.3012 46.1642 90.0945 47.0137C90.6404 47.5718 91.0804 48.2244 91.3932 48.9397C91.573 49.3569 91.714 49.7898 91.8144 50.233C92.1385 51.7816 92.0538 53.388 91.5687 54.8941C91.4299 55.3456 91.2412 55.7803 91.0062 56.1901C90.7148 56.7687 90.2325 57.229 89.6409 57.4933C89.0004 57.7128 88.3 57.678 87.6843 57.3961C87.4191 57.2888 87.1657 57.1543 86.9283 56.9947C86.6087 56.762 86.3121 56.4992 86.0427 56.2099C86.4452 55.1409 86.6244 54.0009 86.5692 52.8601C86.5284 51.7797 86.3404 50.7099 86.0103 49.6804C85.5651 48.2857 84.8426 46.9954 83.8863 45.8869C84.8697 45.3385 86.013 45.1486 87.1209 45.3496H87.1245ZM95.3145 45.9454C96.1431 46.1231 96.9197 46.4891 97.5843 47.015C98.2488 47.541 98.7834 48.2127 99.1467 48.9784C99.3355 49.3567 99.4862 49.7528 99.5967 50.161C99.9465 51.4896 99.9638 52.8839 99.6471 54.2209C99.4629 55.1783 99.0545 56.0786 98.4555 56.848C97.9259 57.5215 97.1514 57.9583 96.3009 58.063C95.7254 58.0501 95.1599 57.9102 94.6447 57.6534C94.1296 57.3965 93.6776 57.029 93.321 56.5771C93.4695 56.2499 93.5984 55.9142 93.7071 55.5718C94.318 53.6865 94.4195 51.6733 94.0014 49.7362C93.8695 49.1558 93.6845 48.5888 93.4488 48.0424C93.1965 47.47 92.8827 46.9268 92.5128 46.4224C93.3661 45.9553 94.3511 45.7874 95.3109 45.9454H95.3145ZM89.1909 65.5114C89.1783 65.5114 89.1684 65.5177 89.1567 65.5186C89.0364 63.5532 88.6041 61.6195 87.876 59.7901C88.1979 59.8544 88.5252 59.8873 88.8534 59.8882C89.4104 59.8914 89.9629 59.7875 90.4806 59.5822C91.0775 59.3333 91.6151 58.9613 92.0583 58.4905C93.1163 59.6076 94.5707 60.2646 96.1083 60.3202C96.2325 60.3202 96.3576 60.3157 96.4827 60.3058C97.2025 60.2318 97.9004 60.015 98.5355 59.6683C99.1706 59.3215 99.7302 58.8517 100.182 58.2862C101.01 57.2449 101.577 56.0212 101.838 54.7168C102.12 53.4822 102.185 52.208 102.03 50.9512C109.915 50.7523 116.681 50.4166 122.129 49.9468C126.124 50.4389 129.763 52.489 132.254 55.651C134.547 58.4486 135.976 61.8537 136.365 65.4502L89.1909 65.5114ZM15.6609 83.0254C11.4786 81.9454 9.50402 77.3455 8.84882 75.4186C6.44402 68.332 7.49882 59.566 11.4165 54.1003C12.888 52.0474 15.39 49.6003 19.0287 49.6003C19.6189 49.5597 20.2114 49.5651 20.8008 49.6165C25.4988 50.0575 28.8252 53.5567 30.9906 56.9776C26.6211 56.7976 22.5306 56.6401 20.3571 56.632H20.2509C19.7193 56.5997 19.1858 56.6254 18.6597 56.7085C17.4535 56.9331 16.3093 57.4129 15.3036 58.1157C14.298 58.8185 13.4541 59.7282 12.8286 60.7837C11.6397 62.8378 11.1247 65.213 11.3562 67.5751C11.4464 69.6678 12.2795 71.6599 13.7061 73.1938C14.7885 74.2446 16.2324 74.8408 17.7408 74.8597C17.847 74.8597 17.9505 74.8534 18.0549 74.8471H18.0873C19.7973 74.8012 22.8573 74.7292 26.3052 74.6482L26.7552 74.6383C26.277 76.5842 25.3695 78.3984 24.0993 79.9483C22.7397 81.5416 20.8943 82.6442 18.8469 83.0866H18.8415L18.7857 83.0983L18.3501 83.1649C17.4535 83.3003 16.5387 83.2528 15.6609 83.0254Z" fill="#212529"/>
<path d="M63.2904 20C61.4414 21.7854 59.7923 23.7669 58.3723 25.9094C55.575 25.9905 52.7758 25.8528 50 25.4976C51.2429 27.7241 52.6993 29.8134 54.1556 31.9026C53.355 33.9919 52.6993 36.2641 52.0359 38.5364C54.5598 37.4231 56.9464 36.3251 59.3711 35.3339C60.8311 37.3704 62.644 39.129 64.7239 40.5265C65.0289 38.2695 65.3415 36.2412 65.7761 34.2435C67.9111 32.4135 69.9318 30.9114 71.7694 29.211C69.6868 28.219 67.4737 27.5284 65.1966 27.1599C64.8838 24.6988 64.2427 22.2908 63.2904 20Z" fill="#37C084"/>
<path d="M91.9388 17.3209C92.9224 19.1966 93.9213 21.0343 95.0498 22.788C95.9343 20.7979 96.7883 18.9069 97.6346 17.0083C99.4471 16.1806 101.306 15.4576 103.201 14.8428C101.745 13.29 99.9113 12.1418 97.8786 11.5106C97.7261 8.6665 97.6651 6.33325 97.6041 4C95.5225 5.72325 93.8526 7.37025 92.1751 9.01725C89.8073 8.56305 87.409 8.28524 85 8.18613C85.8741 10.2746 86.9519 12.2718 88.2178 14.1489C87.169 15.8818 86.2268 17.677 85.3965 19.5245C87.6251 18.9405 89.811 18.2042 91.9388 17.3209Z" fill="#9061EE"/>
</svg>
