<svg width="28" height="28" viewBox="0 0 28 28" fill="none" xmlns="http://www.w3.org/2000/svg">
<path d="M24.0619 18.4941L13.9994 24.3621L3.93687 18.4941C3.73764 18.3949 3.50809 18.3754 3.29495 18.4395C3.08181 18.5036 2.9011 18.6464 2.7896 18.8391C2.6781 19.0317 2.64419 19.2595 2.69477 19.4763C2.74535 19.693 2.87663 19.8823 3.06187 20.0057L13.5619 26.1307C13.6957 26.2087 13.8478 26.2498 14.0026 26.2498C14.1575 26.2498 14.3096 26.2087 14.4434 26.1307L24.9434 20.0057C25.0443 19.9486 25.1328 19.8721 25.2038 19.7806C25.2749 19.689 25.327 19.5843 25.3573 19.4724C25.3875 19.3606 25.3952 19.2438 25.3799 19.129C25.3647 19.0141 25.3268 18.9034 25.2684 18.8033C25.21 18.7032 25.1324 18.6157 25.0399 18.5459C24.9474 18.4761 24.842 18.4253 24.7298 18.3965C24.6175 18.3678 24.5007 18.3616 24.386 18.3783C24.2714 18.3951 24.1612 18.4345 24.0619 18.4941Z" fill="#343A40"/>
<path d="M24.0619 13.2441L13.9994 19.1121L3.93687 13.2441C3.73764 13.1449 3.50809 13.1254 3.29495 13.1895C3.08181 13.2536 2.9011 13.3964 2.7896 13.5891C2.6781 13.7817 2.64419 14.0095 2.69477 14.2263C2.74535 14.443 2.87663 14.6323 3.06187 14.7557L13.5619 20.8807C13.6957 20.9587 13.8478 20.9998 14.0026 20.9998C14.1575 20.9998 14.3096 20.9587 14.4434 20.8807L24.9434 14.7557C25.0443 14.6986 25.1328 14.6221 25.2038 14.5306C25.2749 14.439 25.327 14.3343 25.3573 14.2224C25.3875 14.1106 25.3952 13.9938 25.3799 13.879C25.3647 13.7641 25.3268 13.6534 25.2684 13.5533C25.21 13.4532 25.1324 13.3657 25.0399 13.2959C24.9474 13.2261 24.842 13.1753 24.7298 13.1465C24.6175 13.1178 24.5007 13.1116 24.386 13.1283C24.2714 13.1451 24.1612 13.1845 24.0619 13.2441Z" fill="#343A40"/>
<path d="M3.06298 9.50569L13.563 15.6307C13.6968 15.7087 13.8489 15.7498 14.0038 15.7498C14.1586 15.7498 14.3107 15.7087 14.4445 15.6307L24.9445 9.50569C25.0766 9.42863 25.1862 9.3183 25.2624 9.18569C25.3385 9.05309 25.3786 8.90284 25.3786 8.74991C25.3786 8.59699 25.3385 8.44674 25.2624 8.31413C25.1862 8.18152 25.0766 8.07119 24.9445 7.99413L14.4445 1.86913C14.3107 1.79111 14.1586 1.75 14.0038 1.75C13.8489 1.75 13.6968 1.79111 13.563 1.86913L3.06298 7.99413C2.93089 8.07119 2.8213 8.18152 2.74514 8.31413C2.66898 8.44674 2.62891 8.59699 2.62891 8.74991C2.62891 8.90284 2.66898 9.05309 2.74514 9.18569C2.8213 9.3183 2.93089 9.42863 3.06298 9.50569Z" fill="#343A40"/>
</svg>
