<svg width="44" height="44" viewBox="0 0 44 44" fill="none" xmlns="http://www.w3.org/2000/svg">
<circle cx="22" cy="22" r="22" fill="#FF2B5E" fill-opacity="0.08"/>
<path d="M32.201 27.0085L24.0026 12.7707C23.7977 12.4219 23.5052 12.1326 23.1541 11.9317C22.803 11.7307 22.4055 11.625 22.001 11.625C21.5965 11.625 21.199 11.7307 20.8479 11.9317C20.4968 12.1326 20.2043 12.4219 19.9994 12.7707L11.801 27.0085C11.6039 27.3459 11.5 27.7296 11.5 28.1204C11.5 28.5111 11.6039 28.8949 11.801 29.2322C12.0033 29.5832 12.2952 29.874 12.647 30.0748C12.9987 30.2756 13.3976 30.3793 13.8026 30.3751H30.1994C30.6041 30.3789 31.0026 30.2751 31.354 30.0743C31.7054 29.8735 31.997 29.5829 32.1991 29.2322C32.3965 28.895 32.5007 28.5114 32.5011 28.1206C32.5014 27.7299 32.3978 27.3461 32.201 27.0085ZM21.251 19.1251C21.251 18.9261 21.33 18.7354 21.4707 18.5947C21.6113 18.4541 21.8021 18.3751 22.001 18.3751C22.1999 18.3751 22.3907 18.4541 22.5313 18.5947C22.672 18.7354 22.751 18.9261 22.751 19.1251V22.8751C22.751 23.074 22.672 23.2647 22.5313 23.4054C22.3907 23.546 22.1999 23.6251 22.001 23.6251C21.8021 23.6251 21.6113 23.546 21.4707 23.4054C21.33 23.2647 21.251 23.074 21.251 22.8751V19.1251ZM22.001 27.3751C21.7785 27.3751 21.561 27.3091 21.376 27.1855C21.191 27.0618 21.0468 26.8861 20.9616 26.6806C20.8765 26.475 20.8542 26.2488 20.8976 26.0306C20.941 25.8124 21.0482 25.6119 21.2055 25.4546C21.3628 25.2972 21.5633 25.1901 21.7815 25.1467C21.9998 25.1033 22.226 25.1255 22.4315 25.2107C22.6371 25.2958 22.8128 25.44 22.9364 25.625C23.06 25.8101 23.126 26.0276 23.126 26.2501C23.126 26.5484 23.0075 26.8346 22.7965 27.0456C22.5855 27.2565 22.2994 27.3751 22.001 27.3751Z" fill="#FF2B5E"/>
</svg>
