<svg width="136" height="136" viewBox="0 0 136 136" fill="none" xmlns="http://www.w3.org/2000/svg">
<path d="M63.5248 12.6202C63.5005 12.4481 63.4426 12.2826 63.3543 12.1329C63.2661 11.9833 63.1492 11.8525 63.0104 11.748C62.8716 11.6436 62.7135 11.5675 62.5453 11.524C62.3771 11.4806 62.202 11.4708 62.03 11.4951C61.8579 11.5194 61.6924 11.5773 61.5427 11.6655C61.3931 11.7538 61.2623 11.8707 61.1578 12.0095C61.0533 12.1483 60.9772 12.3063 60.9338 12.4746C60.8904 12.6428 60.8806 12.8179 60.9049 12.9899L61.0765 14.2044C61.3241 15.9706 61.5738 17.7372 61.8328 19.5054C61.873 19.7795 61.998 20.0341 62.1904 20.2333C62.3828 20.4325 62.6329 20.5664 62.9054 20.6161C63.047 20.6418 63.1917 20.6445 63.3342 20.6242C63.5061 20.599 63.6714 20.5403 63.8206 20.4513C63.9698 20.3623 64.1 20.2447 64.2037 20.1054C64.3075 19.966 64.3828 19.8076 64.4254 19.6392C64.4679 19.4707 64.4769 19.2956 64.4517 19.1237C64.1929 17.3597 63.9441 15.5944 63.6955 13.8334L63.5248 12.6202Z" fill="#838C94"/>
<path d="M35.6713 31.1256C35.7998 31.2426 35.95 31.3332 36.1134 31.3921C36.2768 31.4511 36.4503 31.4773 36.6238 31.4693C36.7974 31.4612 36.9676 31.419 37.1249 31.3452C37.2821 31.2713 37.4233 31.1672 37.5403 31.0388C37.6573 30.9104 37.7479 30.7602 37.8069 30.5967C37.8659 30.4333 37.8921 30.2599 37.884 30.0863C37.876 29.9128 37.8338 29.7425 37.7599 29.5853C37.6861 29.428 37.582 29.2868 37.4535 29.1698C35.6763 27.552 33.9064 25.9335 32.144 24.3143C31.8853 24.0771 31.5431 23.9524 31.1925 23.9675C30.8419 23.9827 30.5116 24.1366 30.2745 24.3952C30.0373 24.6539 29.9126 24.9961 29.9278 25.3467C29.9429 25.6973 30.0968 26.0276 30.3554 26.2647C32.1242 27.8854 33.8962 29.5056 35.6713 31.1256Z" fill="#838C94"/>
<path d="M104.259 92.1592C104.387 92.2763 104.491 92.4175 104.565 92.5748C104.639 92.7321 104.681 92.9024 104.689 93.0759C104.697 93.2495 104.671 93.4229 104.612 93.5863C104.553 93.7497 104.462 93.8999 104.345 94.0283C104.228 94.1566 104.087 94.2607 103.929 94.3345C103.772 94.4082 103.602 94.4503 103.428 94.4583C103.255 94.4663 103.081 94.44 102.918 94.381C102.754 94.3219 102.604 94.2313 102.476 94.1142C100.701 92.4937 98.9262 90.8807 97.1513 89.275C96.8913 89.0394 96.7355 88.7101 96.7183 88.3596C96.7011 88.009 96.8238 87.666 97.0595 87.406C97.2952 87.146 97.6245 86.9903 97.975 86.9731C98.3255 86.9558 98.6685 87.0786 98.9285 87.3142C100.705 88.926 102.482 90.541 104.259 92.1592Z" fill="#838C94"/>
<path d="M23.548 56.0201L16.8442 55.1971C16.4961 55.1538 16.145 55.2507 15.8682 55.4663C15.7312 55.5731 15.6165 55.7058 15.5307 55.8569C15.445 56.0079 15.3898 56.1744 15.3684 56.3468C15.347 56.5192 15.3598 56.6942 15.406 56.8616C15.4522 57.0291 15.5309 57.1858 15.6376 57.3229C15.8533 57.5997 16.17 57.7794 16.5182 57.8227L23.2222 58.6467C23.3946 58.6681 23.5696 58.6553 23.7372 58.6091C23.9047 58.5629 24.0615 58.4841 24.1986 58.3773C24.3356 58.2704 24.4503 58.1377 24.5361 57.9865C24.6219 57.8353 24.677 57.6688 24.6984 57.4963C24.7198 57.3238 24.707 57.1488 24.6608 56.9813C24.6146 56.8138 24.5358 56.657 24.429 56.5199C24.3221 56.3828 24.1893 56.2682 24.0382 56.1824C23.887 56.0966 23.7205 56.0415 23.548 56.0201Z" fill="#838C94"/>
<path d="M110.919 54.4693C110.745 54.4654 110.573 54.4958 110.411 54.5588C110.249 54.6217 110.101 54.7159 109.975 54.836C109.85 54.9561 109.749 55.0998 109.679 55.2588C109.609 55.4178 109.571 55.589 109.567 55.7627C109.563 55.9364 109.594 56.1091 109.657 56.2711C109.72 56.433 109.814 56.581 109.934 56.7065C110.054 56.832 110.198 56.9327 110.357 57.0027C110.516 57.0727 110.687 57.1107 110.861 57.1145L114.201 57.1917C115.592 57.2279 116.986 57.2598 118.381 57.2873C118.492 57.2891 118.603 57.2773 118.712 57.2521C119.025 57.1787 119.302 56.9932 119.488 56.7305C119.675 56.4679 119.759 56.1461 119.726 55.8256C119.692 55.5051 119.542 55.208 119.305 54.99C119.068 54.7719 118.759 54.648 118.437 54.6415C117.043 54.613 115.652 54.5813 114.263 54.5465L110.919 54.4693Z" fill="#838C94"/>
<path d="M100.699 30.9685C100.572 31.0871 100.469 31.2295 100.398 31.3877C100.326 31.5458 100.286 31.7166 100.28 31.8902C100.274 32.0639 100.302 32.237 100.363 32.3996C100.424 32.5623 100.517 32.7114 100.635 32.8383C100.754 32.9653 100.896 33.0676 101.054 33.1395C101.213 33.2114 101.383 33.2515 101.557 33.2574C101.731 33.2633 101.904 33.2349 102.066 33.1739C102.229 33.1129 102.378 33.0205 102.505 32.9019L104.949 30.6237C105.97 29.6772 106.989 28.7265 108.006 27.7716C108.087 27.6952 108.158 27.6091 108.218 27.5153C108.391 27.2435 108.459 26.9179 108.409 26.5995C108.36 26.2811 108.195 25.9919 107.947 25.7862C107.699 25.5805 107.384 25.4724 107.062 25.4822C106.74 25.492 106.433 25.619 106.198 25.8394C105.181 26.7927 104.163 27.742 103.145 28.6873L100.699 30.9685Z" fill="#838C94"/>
<path d="M28.3793 84.4076C28.5293 84.3199 28.6605 84.2036 28.7656 84.0652C28.8706 83.9268 28.9474 83.7691 28.9915 83.6011C29.0356 83.433 29.0461 83.2579 29.0226 83.0858C28.999 82.9137 28.9417 82.7479 28.8541 82.5979C28.7664 82.4479 28.6501 82.3166 28.5117 82.2116C28.3733 82.1065 28.2156 82.0298 28.0476 81.9857C27.8795 81.9416 27.7045 81.931 27.5323 81.9546C27.3602 81.9782 27.1944 82.0354 27.0444 82.1231L24.1582 83.8056C22.9533 84.5033 21.7494 85.2055 20.5465 85.9122C20.4507 85.9689 20.3622 86.0371 20.2829 86.1153C20.0541 86.3422 19.9158 86.6448 19.8942 86.9663C19.8726 87.2878 19.9692 87.6062 20.1657 87.8616C20.3621 88.117 20.6451 88.2919 20.9614 88.3535C21.2778 88.4151 21.6057 88.359 21.8836 88.196C23.086 87.4907 24.2879 86.7895 25.4893 86.0923L28.3793 84.4076Z" fill="#838C94"/>
<path d="M73.6155 109.954C73.8493 110.056 74.1075 110.088 74.359 110.046C74.6105 110.004 74.8446 109.891 75.0331 109.719C75.2217 109.548 75.3567 109.326 75.4219 109.079C75.4871 108.833 75.4797 108.573 75.4006 108.33L73.1757 101.511C73.1234 101.344 73.0385 101.189 72.9258 101.055C72.8132 100.921 72.6752 100.81 72.5196 100.73C72.3641 100.65 72.1942 100.602 72.0197 100.587C71.8453 100.573 71.6698 100.594 71.5034 100.648C71.337 100.702 71.1831 100.789 71.0504 100.903C70.9178 101.017 70.8091 101.157 70.7307 101.313C70.6523 101.47 70.6057 101.64 70.5936 101.815C70.5815 101.989 70.6042 102.165 70.6603 102.33L72.8848 109.151C72.9427 109.329 73.0378 109.493 73.1638 109.631C73.2897 109.77 73.4437 109.88 73.6155 109.954Z" fill="#838C94"/>
<path d="M119.989 98C118.46 99.4787 117.097 101.12 115.923 102.894C113.61 102.961 111.295 102.847 109 102.553C110.028 104.397 111.232 106.127 112.436 107.858C111.774 109.588 111.232 111.47 110.683 113.352C112.77 112.43 114.744 111.52 116.749 110.699C117.956 112.386 119.455 113.843 121.174 115C121.427 113.131 121.685 111.451 122.044 109.796C123.81 108.281 125.481 107.037 127 105.629C125.278 104.807 123.448 104.235 121.565 103.93C121.307 101.892 120.777 99.8972 119.989 98Z" fill="#838C94"/>
<path d="M17.3666 7.26775C15.7959 5.06412 14.4005 3.02825 13.0051 1C12.3951 3.58488 11.8538 5.89525 11.1828 8.30475C8.74124 8.50864 6.3312 8.99218 4 9.74587C5.60887 11.1794 7.34738 12.4604 8.99438 14.0387C8.58487 16.2581 8.44406 18.5186 8.575 20.7716C10.4507 19.2314 12.2121 17.5463 14.0802 15.8383C15.5555 17.5878 17.4531 18.9316 19.5931 19.7423C20.0827 17.3788 20.2291 14.9571 20.0277 12.5519C21.3164 10.5541 22.5999 8.55892 23.8784 6.56625C21.6868 6.52221 19.4985 6.75795 17.3666 7.26775Z" fill="#838C94"/>
<path d="M117.939 19.3209C118.922 21.1966 119.921 23.0343 121.05 24.788C121.934 22.7979 122.788 20.9069 123.635 19.0083C125.447 18.1806 127.306 17.4576 129.201 16.8428C127.745 15.29 125.911 14.1418 123.879 13.5106C123.726 10.6665 123.665 8.33325 123.604 6C121.523 7.72325 119.853 9.37025 118.175 11.0173C115.807 10.563 113.409 10.2852 111 10.1861C111.874 12.2746 112.952 14.2718 114.218 16.1489C113.169 17.8818 112.227 19.677 111.397 21.5245C113.625 20.9405 115.811 20.2042 117.939 19.3209Z" fill="#838C94"/>
<path d="M103 73.769C103.002 74.117 103.106 74.4568 103.301 74.7455C103.495 75.0341 103.771 75.2587 104.093 75.3909C104.415 75.523 104.769 75.5568 105.11 75.488C105.451 75.4191 105.764 75.2508 106.01 75.0042C106.255 74.7575 106.422 74.4437 106.489 74.1022C106.557 73.7607 106.521 73.407 106.388 73.0856C106.254 72.7642 106.029 72.4895 105.739 72.2963C105.45 72.1031 105.109 72 104.761 72C104.529 72.0001 104.3 72.046 104.086 72.135C103.872 72.224 103.677 72.3545 103.513 72.5188C103.35 72.6832 103.22 72.8782 103.132 73.0927C103.044 73.3073 102.999 73.5371 103 73.769Z" fill="#838C94"/>
<path d="M25 41.769C25.0015 42.117 25.1061 42.4568 25.3006 42.7455C25.495 43.0341 25.7706 43.2587 26.0926 43.3909C26.4146 43.523 26.7685 43.5568 27.1097 43.488C27.4508 43.4191 27.764 43.2508 28.0095 43.0042C28.2551 42.7575 28.4221 42.4437 28.4895 42.1022C28.5568 41.7607 28.5215 41.407 28.3879 41.0856C28.2544 40.7642 28.0287 40.4895 27.7392 40.2963C27.4497 40.1031 27.1094 40 26.7614 40C26.5295 40.0001 26.2998 40.046 26.0857 40.135C25.8715 40.224 25.6771 40.3545 25.5134 40.5188C25.3498 40.6832 25.2202 40.8782 25.1321 41.0927C25.044 41.3073 24.9991 41.5371 25 41.769Z" fill="#838C94"/>
<path d="M83 22.769C83.0015 23.117 83.1061 23.4568 83.3006 23.7455C83.495 24.0341 83.7706 24.2587 84.0926 24.3909C84.4146 24.523 84.7685 24.5568 85.1097 24.488C85.4508 24.4191 85.764 24.2508 86.0095 24.0042C86.2551 23.7575 86.4221 23.4437 86.4895 23.1022C86.5568 22.7607 86.5215 22.407 86.3879 22.0856C86.2544 21.7642 86.0287 21.4895 85.7392 21.2963C85.4497 21.1031 85.1094 21 84.7614 21C84.5295 21.0001 84.2998 21.046 84.0857 21.135C83.8715 21.224 83.6771 21.3545 83.5134 21.5188C83.3498 21.6832 83.2202 21.8782 83.1321 22.0927C83.044 22.3073 82.9991 22.5371 83 22.769Z" fill="#838C94"/>
<path d="M48 99.769C48.0015 100.117 48.1061 100.457 48.3006 100.745C48.495 101.034 48.7706 101.259 49.0926 101.391C49.4146 101.523 49.7685 101.557 50.1097 101.488C50.4508 101.419 50.764 101.251 51.0095 101.004C51.2551 100.758 51.4221 100.444 51.4895 100.102C51.5568 99.7607 51.5215 99.407 51.3879 99.0856C51.2544 98.7642 51.0287 98.4895 50.7392 98.2963C50.4497 98.1031 50.1094 98 49.7614 98C49.5295 98.0001 49.2998 98.046 49.0857 98.135C48.8715 98.224 48.6771 98.3545 48.5134 98.5188C48.3498 98.6832 48.2202 98.8782 48.1321 99.0927C48.044 99.3073 47.9991 99.5371 48 99.769Z" fill="#838C94"/>
</svg>
