<svg width="28" height="28" viewBox="0 0 28 28" fill="none" xmlns="http://www.w3.org/2000/svg">
<path d="M25.1198 23.8809L19.6434 18.4056C21.2307 16.5 22.0222 14.0558 21.8532 11.5814C21.6843 9.10709 20.568 6.79313 18.7364 5.12091C16.9048 3.4487 14.4991 2.54697 12.0196 2.60332C9.54017 2.65967 7.17788 3.66976 5.42419 5.42345C3.67049 7.17715 2.6604 9.53944 2.60405 12.0189C2.5477 14.4984 3.44943 16.9041 5.12164 18.7357C6.79386 20.5672 9.10782 21.6836 11.5822 21.8525C14.0565 22.0214 16.5007 21.2299 18.4064 19.6427L23.8817 25.1191C23.963 25.2004 24.0595 25.2649 24.1657 25.3088C24.2719 25.3528 24.3858 25.3755 24.5007 25.3755C24.6157 25.3755 24.7296 25.3528 24.8358 25.3088C24.942 25.2649 25.0385 25.2004 25.1198 25.1191C25.2011 25.0378 25.2656 24.9413 25.3096 24.835C25.3536 24.7288 25.3762 24.615 25.3762 24.5C25.3762 24.385 25.3536 24.2712 25.3096 24.165C25.2656 24.0588 25.2011 23.9622 25.1198 23.8809ZM4.37574 12.25C4.37574 10.6925 4.8376 9.16993 5.70291 7.87489C6.56823 6.57985 7.79814 5.57049 9.23711 4.97445C10.6761 4.37841 12.2595 4.22246 13.7871 4.52632C15.3147 4.83018 16.7179 5.5802 17.8192 6.68154C18.9205 7.78288 19.6706 9.18607 19.9744 10.7137C20.2783 12.2413 20.1223 13.8247 19.5263 15.2636C18.9303 16.7026 17.9209 17.9325 16.6259 18.7978C15.3308 19.6631 13.8083 20.125 12.2507 20.125C10.1629 20.1227 8.16118 19.2923 6.68483 17.8159C5.20848 16.3396 4.37805 14.3379 4.37574 12.25Z" fill="#212529"/>
</svg>
