<svg width="144" height="144" viewBox="0 0 144 144" fill="none" xmlns="http://www.w3.org/2000/svg">
<path d="M49.0672 143.951C49.0672 137.564 50.2446 131.658 51.4871 125.405C51.8385 123.639 52.1935 121.834 52.5286 120C51.4566 120.599 50.3113 121.055 49.1215 121.359C46.9077 121.982 44.6577 122.47 42.3843 122.819C39.0822 123.332 35.7449 123.586 32.403 123.579C28.9959 123.572 25.593 123.337 22.2171 122.877C20.1069 122.598 17.8799 122.208 15.6012 121.72C14.3048 121.494 13.0518 121.067 11.888 120.452C11.7812 120.391 11.6689 120.343 11.5629 120.271C11.2187 120.053 10.8985 119.8 10.6074 119.515C11.7956 127.702 13.4295 135.614 13.4621 143.8H14.5923L49.0672 143.951Z" fill="#292929"/>
<path d="M80.3915 10.215C80.3707 10.0678 80.3212 9.92607 80.2456 9.79802C80.1701 9.66996 80.0701 9.55804 79.9513 9.46863C79.8325 9.37923 79.6973 9.31409 79.5533 9.27695C79.4094 9.23981 79.2595 9.23139 79.1123 9.25217C78.9651 9.27294 78.8234 9.32251 78.6953 9.39804C78.5673 9.47357 78.4553 9.57359 78.3659 9.69237C78.2765 9.81116 78.2114 9.94639 78.1743 10.0904C78.1371 10.2343 78.1287 10.3842 78.1495 10.5314L78.2963 11.5707C78.5082 13.0821 78.7219 14.5939 78.9436 16.1071C78.9779 16.3416 79.085 16.5594 79.2496 16.7299C79.4143 16.9004 79.6282 17.015 79.8614 17.0575C79.9826 17.0795 80.1065 17.0818 80.2284 17.0645C80.3755 17.0429 80.5169 16.9927 80.6446 16.9165C80.7723 16.8403 80.8837 16.7397 80.9725 16.6205C81.0613 16.5012 81.1258 16.3657 81.1622 16.2215C81.1986 16.0774 81.2062 15.9275 81.1847 15.7804C80.9633 14.2709 80.7503 12.7602 80.5376 11.2532L80.3915 10.215Z" fill="#292929"/>
<path d="M57.4591 22.4286C57.569 22.5287 57.6976 22.6062 57.8374 22.6567C57.9773 22.7072 58.1257 22.7296 58.2742 22.7227C58.4227 22.7158 58.5684 22.6797 58.703 22.6165C58.8376 22.5533 58.9584 22.4642 59.0585 22.3543C59.1587 22.2444 59.2362 22.1159 59.2867 21.976C59.3371 21.8362 59.3595 21.6878 59.3527 21.5392C59.3458 21.3907 59.3097 21.245 59.2465 21.1105C59.1833 20.9759 59.0942 20.8551 58.9843 20.7549C57.4634 19.3705 55.9488 17.9854 54.4406 16.5998C54.2192 16.3968 53.9263 16.2901 53.6263 16.3031C53.3263 16.3161 53.0437 16.4477 52.8407 16.669C52.6378 16.8904 52.531 17.1833 52.544 17.4833C52.557 17.7833 52.6887 18.0659 52.91 18.2689C54.4237 19.6558 55.94 21.0423 57.4591 22.4286Z" fill="#292929"/>
<path d="M107.561 64.6432C107.682 64.7298 107.784 64.8393 107.863 64.9656C107.942 65.0918 107.994 65.2323 108.019 65.3789C108.043 65.5256 108.038 65.6757 108.004 65.8205C107.971 65.9653 107.909 66.102 107.822 66.2229C107.736 66.3438 107.626 66.4464 107.5 66.525C107.374 66.6035 107.233 66.6564 107.087 66.6807C106.94 66.705 106.79 66.7001 106.645 66.6664C106.5 66.6327 106.363 66.5707 106.243 66.4842C104.571 65.2858 102.9 64.0938 101.23 62.9081C100.986 62.734 100.82 62.4699 100.77 62.1737C100.72 61.8776 100.79 61.5738 100.964 61.3291C101.138 61.0844 101.402 60.9188 101.698 60.8689C101.995 60.819 102.298 60.8887 102.543 61.0628C104.215 62.2536 105.888 63.447 107.561 64.6432Z" fill="#292929"/>
<path d="M49.8028 41.0155L44.066 40.3112C43.7681 40.2742 43.4676 40.3571 43.2308 40.5416C43.1135 40.633 43.0154 40.7465 42.942 40.8758C42.8686 41.0051 42.8214 41.1476 42.8031 41.2951C42.7848 41.4427 42.7957 41.5924 42.8352 41.7357C42.8747 41.879 42.9421 42.0131 43.0335 42.1304C43.218 42.3672 43.4891 42.5211 43.787 42.5581L49.524 43.2633C49.6716 43.2816 49.8213 43.2706 49.9647 43.2311C50.1081 43.1915 50.2422 43.1241 50.3595 43.0327C50.4768 42.9413 50.575 42.8276 50.6484 42.6983C50.7218 42.5689 50.769 42.4264 50.7873 42.2788C50.8056 42.1312 50.7947 41.9815 50.7551 41.8381C50.7155 41.6947 50.6481 41.5606 50.5567 41.4433C50.4653 41.3259 50.3517 41.2278 50.2223 41.1544C50.093 41.081 49.9504 41.0338 49.8028 41.0155Z" fill="#292929"/>
<path d="M107.362 36.9709C107.213 36.9676 107.066 36.9937 106.927 37.0475C106.789 37.1014 106.662 37.182 106.554 37.2848C106.447 37.3875 106.361 37.5105 106.301 37.6465C106.241 37.7826 106.209 37.9291 106.205 38.0778C106.202 38.2264 106.228 38.3742 106.282 38.5128C106.336 38.6514 106.416 38.778 106.519 38.8854C106.622 38.9929 106.745 39.079 106.881 39.1389C107.017 39.1988 107.163 39.2313 107.312 39.2346L110.17 39.3007C111.361 39.3317 112.554 39.3589 113.747 39.3825C113.843 39.384 113.938 39.3739 114.031 39.3524C114.299 39.2895 114.535 39.1308 114.695 38.906C114.855 38.6812 114.927 38.4059 114.898 38.1316C114.869 37.8574 114.741 37.6031 114.538 37.4165C114.335 37.2299 114.071 37.1239 113.795 37.1183C112.603 37.0939 111.412 37.0668 110.224 37.037L107.362 36.9709Z" fill="#292929"/>
<path d="M81.781 77.2073C81.981 77.2943 82.202 77.3216 82.4172 77.286C82.6324 77.2504 82.8327 77.1534 82.9941 77.0066C83.1555 76.8598 83.271 76.6695 83.3268 76.4586C83.3826 76.2478 83.3763 76.0252 83.3086 75.8179L81.4046 69.9818C81.3598 69.8389 81.2872 69.7063 81.1908 69.5916C81.0944 69.477 80.9763 69.3827 80.8431 69.314C80.71 69.2454 80.5646 69.2039 80.4154 69.1918C80.2661 69.1798 80.1159 69.1974 79.9735 69.2438C79.8312 69.2902 79.6994 69.3644 79.5859 69.4621C79.4724 69.5598 79.3794 69.679 79.3123 69.8129C79.2451 69.9468 79.2053 70.0927 79.1949 70.2421C79.1846 70.3915 79.204 70.5414 79.252 70.6833L81.1556 76.5202C81.2052 76.6725 81.2866 76.8126 81.3944 76.931C81.5022 77.0495 81.634 77.1437 81.781 77.2073Z" fill="#292929"/>
<path d="M20.9223 108.51C20.9622 108.852 21.0075 109.193 21.0419 109.537C21.0419 109.569 21.0419 109.603 21.05 109.636C21.0881 110.012 21.1071 110.394 21.1406 110.772C18.8911 111.191 16.6961 111.863 14.5972 112.775C13.601 113.217 11.2906 114.43 11.3205 116.159C11.3206 116.261 11.33 116.363 11.3486 116.463C11.4511 116.86 11.6307 117.233 11.8774 117.56C12.124 117.887 12.4327 118.163 12.7859 118.37C13.8079 118.942 14.9232 119.327 16.0798 119.509C17.8712 119.893 19.6119 120.194 21.3027 120.447C21.6759 120.502 22.0599 120.571 22.4257 120.62C22.4565 120.62 22.49 120.63 22.5208 120.634C22.8677 120.681 23.2091 120.714 23.5542 120.757C23.6384 119.191 23.6864 117.618 23.6728 116.059C23.6511 113.807 23.5261 111.535 23.2997 109.309C22.0459 96.5873 17.5655 84.3959 10.2826 73.8897C9.35797 72.5593 9.04189 71.5124 9.43042 71.0967C9.90861 70.594 11.1928 71.1483 12.1619 71.9254C15.3274 74.4922 18.1493 77.4557 20.5583 80.7429C20.7196 80.957 20.9518 81.107 21.2133 81.1659C21.4749 81.2249 21.7489 81.1892 21.9866 81.065C22.2243 80.9409 22.4101 80.7364 22.5111 80.488C22.6121 80.2396 22.6217 79.9634 22.538 79.7086C21.639 76.9602 20.7415 74.207 19.8455 71.449L17.7625 65.0577C17.4811 64.3666 17.3277 63.6301 17.3097 62.8842C17.3071 62.6559 17.3643 62.4309 17.4755 62.2315C17.5867 62.0322 17.7481 61.8653 17.9436 61.7476C18.1329 61.7005 18.3305 61.6978 18.5211 61.7395C18.7116 61.7813 18.89 61.8665 19.0422 61.9885C19.5307 62.3741 19.9462 62.844 20.2694 63.3759C23.5222 68.014 25.9683 73.1682 27.5047 78.6209C27.5818 78.8938 27.7585 79.1278 27.9999 79.2766C28.2413 79.4255 28.5297 79.4783 28.8082 79.4247C29.0866 79.3711 29.3348 79.2149 29.5036 78.9871C29.6725 78.7593 29.7497 78.4764 29.7199 78.1943C29.1476 72.6508 28.7137 67.0692 28.4257 61.5393C28.3562 60.8646 28.3922 60.1832 28.5326 59.5196C28.5815 59.2954 28.6801 59.0849 28.8211 58.9039C28.9622 58.7228 29.1422 58.5758 29.3477 58.4736C29.5989 58.4297 29.8572 58.4514 30.0976 58.5366C30.338 58.6218 30.5523 58.7676 30.7198 58.9599C31.2188 59.5448 31.5941 60.2247 31.8229 60.9587C33.7492 65.9399 34.5924 71.3113 35.4845 76.9989L35.7562 78.7151C35.7976 78.9967 35.9449 79.252 36.1681 79.4287C36.3912 79.6054 36.6734 79.6903 36.9571 79.666C37.2398 79.645 37.5043 79.5187 37.6985 79.3122C37.8926 79.1056 38.0023 78.8337 38.0058 78.5503C38.0652 73.246 38.815 67.9721 40.2365 62.8615C40.3797 62.1952 40.645 61.5611 41.0189 60.9913C41.133 60.8177 41.2883 60.675 41.471 60.5761C41.6537 60.4771 41.8581 60.425 42.0659 60.4244C42.7053 60.5376 43.0839 61.6334 43.2242 62.6197C43.5327 65.5342 43.5563 68.4719 43.2949 71.391C43.2297 72.5376 43.1645 73.6842 43.1319 74.8325C43.025 78.61 43.2224 83.458 45.7429 87.442C45.8552 87.6207 46.0154 87.7643 46.2053 87.8564C46.3952 87.9484 46.6071 87.9853 46.817 87.9628C49.2949 87.7065 51.089 85.7729 52.3777 84.1146L52.6585 83.7524C53.7118 82.3803 54.8004 80.9611 56.2395 80.4014C56.64 80.2612 57.0666 80.2117 57.4885 80.2565C57.9105 80.3013 58.3172 80.4393 58.6793 80.6605C58.8644 80.7638 59.0221 80.9098 59.1393 81.0864C59.2565 81.263 59.3298 81.465 59.3531 81.6757C59.2789 82.225 59.0539 82.7429 58.7029 83.1719C58.5082 83.478 58.3153 83.7868 58.1595 84.0974C56.2096 87.865 54.2869 91.2096 52.4285 94.4437C49.6221 99.0943 47.1074 103.915 44.8988 108.877C43.9507 111.121 43.1363 113.42 42.4599 115.76C41.9971 117.364 41.6067 119.021 41.2698 120.694C41.5243 120.658 41.7824 120.629 42.0351 120.589C42.1764 120.567 42.3131 120.535 42.4535 120.511C42.8629 120.445 43.2686 120.362 43.6707 120.287C45.3208 119.982 46.9474 119.629 48.5051 119.187C49.6998 118.911 50.8363 118.427 51.8624 117.755C52.5223 117.287 53.0048 116.609 53.2318 115.833L53.2454 115.752C53.2515 115.71 53.2599 115.668 53.2707 115.626C53.2707 115.604 53.2707 115.582 53.2707 115.559C53.2913 115.466 53.2999 115.37 53.2961 115.274C53.2617 113.268 50.6108 112.014 49.7993 111.677C48.7663 111.259 47.7034 110.919 46.6196 110.66C46.74 110.359 46.8568 110.06 46.9818 109.758C47.0072 109.698 47.0371 109.641 47.0624 109.577C47.2119 109.225 47.3821 108.884 47.537 108.534C49.5958 104.098 51.8823 99.772 54.3874 95.5722C56.2585 92.3163 58.1912 88.95 60.17 85.1317C60.3005 84.8763 60.458 84.63 60.6147 84.3827C61.2429 83.574 61.5924 82.5836 61.611 81.5598C61.5744 80.9892 61.3998 80.436 61.1023 79.9478C60.8048 79.4596 60.3932 79.0508 59.9029 78.7568C59.2405 78.3414 58.4917 78.0835 57.7141 78.0028C56.9365 77.9221 56.1507 78.0208 55.4171 78.2913C53.3866 79.0765 52.0436 80.8271 50.8589 82.3667L50.5873 82.7236C49.763 83.9577 48.6119 84.9385 47.2626 85.5565C45.4449 82.2055 45.3027 78.13 45.3942 74.8923C45.4268 73.7702 45.4902 72.6445 45.5545 71.5187C45.8278 68.4506 45.7975 65.363 45.4639 62.3009C45.1316 59.9707 44.0357 58.4736 42.4472 58.1928C41.8338 58.117 41.2113 58.2081 40.6453 58.4564C40.0793 58.7048 39.5908 59.1012 39.2312 59.6039C38.6688 60.4001 38.2688 61.2994 38.0538 62.2502C37.3953 64.6139 36.8754 67.0141 36.497 69.4384C35.9186 66.2734 35.0616 63.1658 33.9358 60.1518C33.6013 59.1174 33.0502 58.1661 32.3192 57.3614C31.8568 56.8688 31.2681 56.5123 30.6173 56.3309C29.9664 56.1495 29.2783 56.1501 28.6277 56.3326C28.0722 56.5491 27.5767 56.8957 27.1827 57.3432C26.7888 57.7907 26.5079 58.3262 26.3636 58.9047C26.1484 59.8293 26.0854 60.7828 26.177 61.7276C26.3201 64.4636 26.5003 67.2286 26.7159 70.0026C25.4273 67.2311 23.8936 64.5803 22.1332 62.0817C21.6596 61.3192 21.0448 60.654 20.3219 60.1219C19.8675 59.7853 19.3373 59.5658 18.7779 59.4829C18.2186 59.4 17.6474 59.4561 17.1149 59.6464C16.5137 59.9165 16.001 60.3508 15.6357 60.8994C15.2704 61.448 15.0674 62.0885 15.05 62.7474C15.0395 63.781 15.2299 64.8068 15.6106 65.7678L17.6937 72.1491C17.9799 73.0306 18.2663 73.9118 18.5531 74.7927C17.0148 73.1234 15.3514 71.5739 13.5774 70.1575C11.3821 68.3951 9.11163 68.1506 7.78574 69.5426C6.92627 70.46 6.33669 72.1835 8.42604 75.1839C15.2856 85.0869 19.5794 96.5379 20.9223 108.51Z" fill="#292929"/>
<path d="M88.761 81.5098C87.3764 82.849 86.1415 84.3352 85.0781 85.9422C82.9834 86.003 80.8872 85.8998 78.8086 85.6333C79.7393 87.3034 80.8299 88.8704 81.9205 90.4375C81.321 92.0046 80.8299 93.7089 80.3332 95.4133C82.2231 94.5783 84.0104 93.7547 85.8261 93.0112C86.9194 94.5387 88.277 95.8578 89.8345 96.906C90.0629 95.2131 90.297 93.6918 90.6225 92.1933C92.2213 90.8207 93.7344 89.694 95.1105 88.4186C93.551 87.6745 91.8937 87.1565 90.1885 86.8801C89.9543 85.0342 89.4742 83.228 88.761 81.5098Z" fill="#37C084"/>
<path d="M44.7267 5.67645C43.3042 3.68072 42.0404 1.83691 40.7767 0C40.2242 2.34102 39.7339 4.43343 39.1262 6.61562C36.915 6.80028 34.7324 7.2382 32.6211 7.92079C34.0782 9.21906 35.6527 10.3792 37.1443 11.8087C36.7734 13.8186 36.6459 15.8659 36.7645 17.9064C38.4633 16.5114 40.0585 14.9853 41.7504 13.4384C43.0864 15.0229 44.805 16.2399 46.7432 16.9741C47.1866 14.8336 47.3191 12.6404 47.1368 10.4621C48.3038 8.65279 49.4663 6.84581 50.6242 5.04113C48.6393 5.00125 46.6575 5.21474 44.7267 5.67645Z" fill="#E75DCD"/>
<path d="M126.753 40.1394C127.644 41.8382 128.548 43.5024 129.57 45.0907C130.371 43.2884 131.145 41.5758 131.911 39.8563C133.553 39.1067 135.236 38.4519 136.953 37.895C135.634 36.4888 133.973 35.4489 132.132 34.8773C131.994 32.3015 131.939 30.1883 131.884 28.0752C129.999 29.6359 128.486 31.1275 126.967 32.6191C124.823 32.2078 122.65 31.9562 120.469 31.8664C121.26 33.7579 122.236 35.5667 123.383 37.2666C122.433 38.836 121.58 40.4619 120.828 42.1351C122.846 41.6062 124.826 40.9394 126.753 40.1394Z" fill="#9061EE"/>
<path d="M111.414 54.1304C111.415 54.4456 111.51 54.7534 111.686 55.0148C111.862 55.2762 112.112 55.4796 112.404 55.5993C112.695 55.719 113.016 55.7496 113.325 55.6872C113.634 55.6249 113.917 55.4724 114.14 55.2491C114.362 55.0257 114.513 54.7415 114.574 54.4322C114.635 54.123 114.603 53.8026 114.482 53.5115C114.361 53.2204 114.157 52.9717 113.895 52.7967C113.633 52.6217 113.324 52.5283 113.009 52.5283C112.799 52.5284 112.591 52.57 112.397 52.6506C112.203 52.7312 112.027 52.8493 111.879 52.9982C111.731 53.147 111.613 53.3237 111.534 53.518C111.454 53.7123 111.413 53.9204 111.414 54.1304Z" fill="#37C084"/>
<path d="M47.1094 29.6773C47.1108 29.9925 47.2055 30.3002 47.3816 30.5617C47.5577 30.8231 47.8073 31.0265 48.0989 31.1462C48.3905 31.2658 48.711 31.2964 49.02 31.2341C49.329 31.1718 49.6126 31.0193 49.835 30.7959C50.0574 30.5726 50.2086 30.2883 50.2696 29.9791C50.3306 29.6698 50.2986 29.3494 50.1777 29.0584C50.0568 28.7673 49.8523 28.5185 49.5901 28.3436C49.328 28.1686 49.0198 28.0752 48.7046 28.0752C48.4946 28.0753 48.2866 28.1168 48.0926 28.1975C47.8987 28.2781 47.7226 28.3962 47.5744 28.5451C47.4262 28.6939 47.3088 28.8705 47.229 29.0648C47.1492 29.2591 47.1086 29.4673 47.1094 29.6773Z" fill="#9061EE"/>
<path d="M95.1094 14.2818C95.1108 14.597 95.2055 14.9047 95.3816 15.1662C95.5577 15.4276 95.8073 15.631 96.0989 15.7506C96.3905 15.8703 96.711 15.9009 97.02 15.8386C97.329 15.7763 97.6126 15.6238 97.835 15.4004C98.0574 15.1771 98.2086 14.8928 98.2696 14.5836C98.3306 14.2743 98.2986 13.9539 98.1777 13.6629C98.0568 13.3718 97.8523 13.123 97.5901 12.9481C97.328 12.7731 97.0198 12.6797 96.7046 12.6797C96.4946 12.6798 96.2866 12.7213 96.0926 12.802C95.8987 12.8826 95.7226 13.0007 95.5744 13.1496C95.4262 13.2984 95.3088 13.475 95.229 13.6693C95.1492 13.8636 95.1086 14.0718 95.1094 14.2818Z" fill="#E75DCD"/>
</svg>
