<svg width="350" height="93" viewBox="0 0 350 93" fill="none" xmlns="http://www.w3.org/2000/svg">
<rect width="350" height="93" rx="8" fill="#DF516B"/>
<path d="M225 85L338 85" stroke="#343A40" stroke-width="2" stroke-linecap="round"/>
<path d="M262.667 85L300.333 85" stroke="#F5F6F7" stroke-width="2" stroke-linecap="round"/>
<path d="M225 85L338 85" stroke="#343A40" stroke-width="2" stroke-linecap="round"/>
<path d="M262.667 85L300.333 85" stroke="#F5F6F7" stroke-width="2" stroke-linecap="round"/>
<rect x="24" y="48" width="110" height="27" rx="13.5" fill="white"/>
<path d="M39.0723 58.3711C39.0723 60.3945 40.2617 62.5273 42.2578 63.3613L41.4238 64.5645C39.9609 63.9287 38.8945 62.6367 38.3271 61.0645C37.7598 62.7598 36.6729 64.1816 35.2305 64.8652L34.3555 63.6758C36.3037 62.7734 37.5205 60.4697 37.5273 58.3711V57.332H34.8066V56.0742H41.7793V57.332H39.0723V58.3711ZM43.1602 67.2168V54.8574H44.6914V67.2168H43.1602ZM56.873 54.8711V64.2227H55.3418V63.1426H52.9219V62.0762H55.3418V54.8711H56.873ZM46.4551 60.4219C48.7314 60.4082 51.8008 60.3877 54.4258 60.0527L54.5078 61.1465C53.4893 61.3174 52.4365 61.4268 51.3906 61.502V63.8809H49.873V61.584C48.7178 61.6318 47.6172 61.6387 46.6465 61.6387L46.4551 60.4219ZM47.3984 57.5098C47.3984 56.2041 48.6562 55.3154 50.4883 55.3223C52.2861 55.3154 53.5508 56.2041 53.5645 57.5098C53.5508 58.8359 52.2861 59.6768 50.4883 59.6836C48.6562 59.6768 47.3984 58.8359 47.3984 57.5098ZM48.0957 66.9707V63.3203H49.6133V65.7402H57.1602V66.9707H48.0957ZM48.834 57.5098C48.834 58.1797 49.4971 58.5693 50.4883 58.5762C51.4316 58.5693 52.1084 58.1797 52.1152 57.5098C52.1084 56.8398 51.4316 56.4365 50.4883 56.4434C49.4971 56.4365 48.834 56.8398 48.834 57.5098ZM68.2891 54.8574V59.7793H70.1895V61.0371H68.2891V67.2168H66.7852V54.8574H68.2891ZM58.541 57.9746V56.7578H61.4668V55.0352H62.9844V56.7578H65.8281V57.9746H58.541ZM59.1152 61.6934C59.1016 59.9844 60.4277 58.7744 62.2324 58.7812C64.0098 58.7744 65.3291 59.9844 65.3359 61.6934C65.3291 63.3955 64.0098 64.5918 62.2324 64.5918C60.4277 64.5918 59.1016 63.3955 59.1152 61.6934ZM60.5645 61.6934C60.5576 62.6982 61.2617 63.3408 62.2324 63.334C63.1826 63.3408 63.873 62.6982 63.8867 61.6934C63.873 60.6885 63.1826 60.0254 62.2324 60.0254C61.2617 60.0254 60.5576 60.6885 60.5645 61.6934ZM81.0586 54.8574V67.2305H79.541V60.6543H77.4219V59.4102H79.541V54.8574H81.0586ZM71.1191 57.168V55.9375H76.7109V60.4629H72.6641V63.0605C74.5029 63.0537 75.9795 62.9922 77.6406 62.6914L77.7637 63.9355C75.9248 64.2568 74.2705 64.3252 72.1445 64.332H71.1602V59.2324H75.2207V57.168H71.1191ZM95.8105 54.8574V59.6836H97.6426V60.9551H95.8105V67.1895H94.293V54.8574H95.8105ZM86.0625 63.8125C89.0703 62.3086 90.6973 60.2168 90.998 57.4004H86.7324V56.1426H92.543C92.5361 59.7725 91.0322 62.9648 86.9238 64.9883L86.0625 63.8125ZM108.553 54.8574V67.2168H107.021V54.8574H108.553ZM98.3125 63.8125C101.553 62.2744 103.043 60.1826 103.316 57.373H98.9414V56.1699H104.861C104.861 59.8477 103.433 62.9717 99.1055 65.0293L98.3125 63.8125Z" fill="#C7324E"/>
<path d="M120.648 61.8979L116.898 65.6479C116.792 65.7536 116.649 65.813 116.5 65.813C116.35 65.813 116.207 65.7536 116.101 65.6479C115.995 65.5423 115.936 65.399 115.936 65.2495C115.936 65.1001 115.995 64.9567 116.101 64.8511L119.453 61.5L116.102 58.1479C116.05 58.0956 116.008 58.0335 115.98 57.9651C115.952 57.8968 115.937 57.8235 115.937 57.7495C115.937 57.6755 115.952 57.6022 115.98 57.5339C116.008 57.4655 116.05 57.4034 116.102 57.3511C116.154 57.2987 116.216 57.2572 116.285 57.2289C116.353 57.2006 116.426 57.186 116.5 57.186C116.574 57.186 116.648 57.2006 116.716 57.2289C116.784 57.2572 116.847 57.2987 116.899 57.3511L120.649 61.1011C120.701 61.1534 120.743 61.2155 120.771 61.2839C120.799 61.3524 120.814 61.4257 120.814 61.4997C120.814 61.5737 120.799 61.647 120.771 61.7154C120.742 61.7837 120.7 61.8458 120.648 61.8979Z" fill="#C7324E"/>
<path d="M29.5469 24.2812C29.5391 25.8281 30.75 27.3516 32.9688 27.9531L32.1562 29.2969C30.5312 28.8516 29.3594 27.9062 28.7109 26.6797C28.0938 28.0625 26.9219 29.1562 25.2344 29.6562L24.4219 28.3125C26.6328 27.6406 27.8125 25.9844 27.8125 24.2812V24.2031H24.8594V22.8281H27.8125V21.2031H29.5625V22.8281H32.5V24.2031H29.5469V24.2812ZM26.7188 32.7188C26.7031 31.0391 28.5469 30.0938 31.5156 30.0938C34.5 30.0938 36.3359 31.0391 36.3438 32.7188C36.3359 34.3984 34.5 35.375 31.5156 35.375C28.5469 35.375 26.7031 34.3984 26.7188 32.7188ZM28.4375 32.7188C28.4297 33.5547 29.5547 34.0312 31.5156 34.0312C33.5156 34.0312 34.6094 33.5547 34.6094 32.7188C34.6094 31.875 33.5156 31.4297 31.5156 31.4219C29.5547 31.4297 28.4297 31.875 28.4375 32.7188ZM32.0781 26.5469V25.1406H34.5625V21.2656H36.2969V29.8125H34.5625V26.5469H32.0781ZM50.125 21.2812V31.6875H48.3906V26.9844H44.7031V25.6094H48.3906V24.3281H44.7031V22.9531H48.3906V21.2812H50.125ZM39.1094 29.7656V22.2188H40.8281V28.3281C42.625 28.3047 44.3281 28.1953 46.2188 27.8594L46.3906 29.2656C44.2188 29.6797 42.3125 29.7578 40.2188 29.7656H39.1094ZM40.8438 35.1094V30.7656H42.5938V33.7031H50.4844V35.1094H40.8438ZM63.9688 21.2812V29.5156H62.2188V28.9375H59.5781V27.875H62.2188V21.2812H63.9688ZM52.1094 26.375C54.8359 26.375 58.25 26.3516 61.2812 26.0469L61.375 27.1406C60.0859 27.3125 58.7578 27.4297 57.4531 27.4922V29.5312H55.7344V27.5625C54.5234 27.5938 53.3594 27.6016 52.2969 27.5938L52.1094 26.375ZM53.1094 23.625C53.1094 22.3438 54.5234 21.5078 56.6719 21.5C58.7734 21.5078 60.1953 22.3438 60.2031 23.625C60.1953 24.9375 58.7734 25.7344 56.6719 25.7344C54.5234 25.7344 53.1094 24.9375 53.1094 23.625ZM54.1719 31.1406V29.9531H63.9688V33.125H55.9375V34.0312H64.3438V35.2656H54.2344V31.9844H62.25V31.1406H54.1719ZM54.7656 23.625C54.75 24.2188 55.4844 24.5859 56.6719 24.5781C57.8359 24.5859 58.5781 24.2188 58.5781 23.625C58.5781 23.0312 57.8359 22.6484 56.6719 22.6562C55.4844 22.6484 54.75 23.0312 54.7656 23.625ZM70.3594 24.9688C70.3672 27.25 71.1484 29.625 73.0625 30.8281L72.1094 32.1562C70.8359 31.3906 70.0078 30.0781 69.5391 28.5391C69.0312 30.2344 68.125 31.6719 66.7969 32.4844L65.7188 31.1875C67.7734 29.9453 68.6797 27.4531 68.6875 25.0469V22.5156H70.3594V24.9688ZM71.5469 27.5625V26.125H73.5625V21.5156H75.2031V34.7031H73.5625V27.5625H71.5469ZM76.4688 35.3906V21.2656H78.1406V35.3906H76.4688ZM94.7188 21.2812V25.7188H96.6875V27.1562H94.7188V31.8281H92.9844V21.2812H94.7188ZM83.5938 24.2344V22.8438H86.9219V21.2656H88.6562V22.8438H91.9688V24.2344H83.5938ZM84.3125 27.5156C84.3125 25.8906 85.7266 24.8125 87.7812 24.8125C89.8203 24.8125 91.2266 25.8906 91.2344 27.5156C91.2266 29.1328 89.8203 30.1875 87.7812 30.1875C85.7266 30.1875 84.3125 29.1328 84.3125 27.5156ZM85.6719 35.1094V31H87.4062V33.7031H95.2812V35.1094H85.6719ZM86 27.5156C85.9922 28.3672 86.7109 28.8516 87.7812 28.8438C88.8516 28.8516 89.5781 28.3672 89.5781 27.5156C89.5781 26.6562 88.8516 26.1562 87.7812 26.1562C86.7109 26.1562 85.9922 26.6562 86 27.5156ZM102.75 24.6562C102.734 27.25 104.102 29.8438 106.391 30.8281L105.359 32.2188C103.734 31.4688 102.547 29.9766 101.891 28.1328C101.242 30.1172 100.023 31.7422 98.3125 32.5469L97.25 31.0938C99.6016 30.0781 100.977 27.3828 100.984 24.6562V22.4062H102.75V24.6562ZM107.406 35.4062V21.2656H109.156V35.4062H107.406ZM127.906 28.6562V30.0156H115V28.6562H127.906ZM116.453 32.4844V31.0938H126.281V35.3906H124.531V32.4844H116.453ZM116.656 27.6094V21.6094H126.359V22.9688H118.391V23.9375H126.016V25.2344H118.391V26.2812H126.469V27.6094H116.656ZM140.688 21.2656V28.5625H138.953V27.0312H136.109V28.1094H129.5V21.8906H131.234V23.6719H134.391V21.8906H136.109V23.1406H138.953V21.2656H140.688ZM131.234 26.7344H134.391V25H131.234V26.7344ZM131.375 30.5V29.1406H140.688V32.7656H133.125V33.8438H141.141V35.2188H131.391V31.4844H138.953V30.5H131.375ZM136.109 25.7031H138.953V24.4531H136.109V25.7031ZM148.016 25.2812C148.016 27.5938 149.375 30.0312 151.656 30.9844L150.703 32.3594C149.031 31.6328 147.812 30.1562 147.164 28.3594C146.516 30.2969 145.273 31.9219 143.625 32.7031L142.625 31.3438C144.852 30.3125 146.242 27.6797 146.25 25.2812V24.0938H143.141V22.6562H151.109V24.0938H148.016V25.2812ZM152.688 35.3906V21.2656H154.438V35.3906H152.688ZM168.359 21.2812V31.9688H166.609V30.7344H163.844V29.5156H166.609V21.2812H168.359ZM156.453 27.625C159.055 27.6094 162.562 27.5859 165.562 27.2031L165.656 28.4531C164.492 28.6484 163.289 28.7734 162.094 28.8594V31.5781H160.359V28.9531C159.039 29.0078 157.781 29.0156 156.672 29.0156L156.453 27.625ZM157.531 24.2969C157.531 22.8047 158.969 21.7891 161.062 21.7969C163.117 21.7891 164.562 22.8047 164.578 24.2969C164.562 25.8125 163.117 26.7734 161.062 26.7812C158.969 26.7734 157.531 25.8125 157.531 24.2969ZM158.328 35.1094V30.9375H160.062V33.7031H168.688V35.1094H158.328ZM159.172 24.2969C159.172 25.0625 159.93 25.5078 161.062 25.5156C162.141 25.5078 162.914 25.0625 162.922 24.2969C162.914 23.5312 162.141 23.0703 161.062 23.0781C159.93 23.0703 159.172 23.5312 159.172 24.2969Z" fill="white"/>
<mask id="mask0_802_7503" style="mask-type:alpha" maskUnits="userSpaceOnUse" x="0" y="0" width="350" height="93">
<rect width="350" height="93" rx="8" fill="#DF516B"/>
</mask>
<g mask="url(#mask0_802_7503)">
<path d="M209.551 0H370V97H170L209.551 0Z" fill="#DA4662"/>
<g clip-path="url(#clip0_802_7503)">
<path d="M228 24.2048L280.795 45.5075V128.88L228 105.425V24.2048Z" fill="#EFDFD0"/>
<path d="M331 104.489L280.795 128.967V45.3334L331 23.1064V104.489Z" fill="#CDB9AA"/>
<path d="M300.734 103.358L289.802 108.589V47.9323L300.734 43.0498V103.358Z" fill="#D6B480"/>
<path d="M323.385 92.6691L312.709 97.78V37.8738L323.385 33.1108V92.6691Z" fill="#D6B480"/>
<path d="M299.598 67.1907L290.693 71.2685V55.5335L299.598 51.5317V67.1907Z" fill="url(#paint0_linear_802_7503)"/>
<g style="mix-blend-mode:multiply">
<path d="M295.319 69.7352L294.592 70.0723V52.8692L295.319 52.543V69.7352Z" fill="#B3B3B3"/>
</g>
<g style="mix-blend-mode:multiply">
<path d="M300.007 68.4629L299.28 68.8V50.7596L300.007 50.4333V68.4629Z" fill="#B3B3B3"/>
</g>
<path style="mix-blend-mode:multiply" d="M290.948 63.2758L299.833 59.2306V51.4011L290.948 55.4137V63.2758Z" fill="url(#paint1_linear_802_7503)"/>
<path d="M300.161 67.9409L299.444 68.2671V50.2376L300.161 49.9114V67.9409Z" fill="#EBD8CF"/>
<path d="M295.636 70.4746L294.91 70.8117V52.7278L295.636 52.4016V70.4746Z" fill="#EBCEC0"/>
<path d="M289.864 54.446V73.128L300.427 68.2672V49.6831L289.864 54.4352V54.446ZM299.597 67.1907L290.703 71.2794V55.5443L299.597 51.5426V67.2015V67.1907Z" fill="#C78F75"/>
<path d="M295.647 70.4638L295.135 70.703V52.63L295.647 52.4016V70.4638Z" fill="#C78F75"/>
<path d="M322.423 56.7078L313.743 60.6878V45.1485L322.423 41.2446V56.7078Z" fill="url(#paint2_linear_802_7503)"/>
<g style="mix-blend-mode:multiply">
<path d="M318.247 59.1981L317.551 59.5243V42.5387L318.247 42.2234V59.1981Z" fill="#B3B3B3"/>
</g>
<g style="mix-blend-mode:multiply">
<path d="M322.822 57.9694L322.126 58.2956V40.4836L322.822 40.1682V57.9694Z" fill="#B3B3B3"/>
</g>
<path style="mix-blend-mode:multiply" d="M313.989 52.7932L322.658 48.8459V41.1143L313.989 45.029V52.7932Z" fill="url(#paint3_linear_802_7503)"/>
<path d="M322.975 57.4474L322.279 57.7736V39.9616L322.975 39.6462V57.4474Z" fill="#EBD8CF"/>
<path d="M318.564 59.9267L317.858 60.2529V42.3974L318.564 42.082V59.9267Z" fill="#EBCEC0"/>
<path d="M312.924 44.0611V62.5148L323.221 57.7736V39.4287L312.924 44.0611ZM322.423 56.697L313.743 60.677V45.1377L322.423 41.223V56.6862V56.697Z" fill="#C78F75"/>
<path d="M318.574 59.9157L318.083 60.1549V42.2994L318.574 42.071V59.9157Z" fill="#C78F75"/>
<path d="M299.598 102.608L290.693 106.871V91.1357L299.598 86.96V102.608Z" fill="url(#paint4_linear_802_7503)"/>
<g style="mix-blend-mode:multiply">
<path d="M295.319 105.24L294.592 105.588V88.3954L295.319 88.0583V105.24Z" fill="#B3B3B3"/>
</g>
<g style="mix-blend-mode:multiply">
<path d="M300.007 103.88L299.28 104.228V86.1879L300.007 85.8508V103.88Z" fill="#B3B3B3"/>
</g>
<path style="mix-blend-mode:multiply" d="M290.948 98.8674L299.833 94.6591V86.8296L290.948 91.0053V98.8674Z" fill="url(#paint5_linear_802_7503)"/>
<path d="M300.161 103.347L299.444 103.695V85.666L300.161 85.3289V103.347Z" fill="#EBD8CF"/>
<path d="M295.636 105.979L294.91 106.327V88.2433L295.636 87.9062V105.979Z" fill="#EBCEC0"/>
<path d="M289.864 90.0592V108.741L300.427 103.685V85.1006L289.864 90.0592ZM299.597 102.619L290.703 106.871V91.1358L299.597 86.9601V102.619Z" fill="#C78F75"/>
<path d="M295.647 105.968L295.135 106.218V88.1345L295.647 87.8953V105.968Z" fill="#C78F75"/>
<path d="M322.443 91.6905L313.763 95.8336V80.3051L322.443 76.2273V91.6905Z" fill="url(#paint6_linear_802_7503)"/>
<g style="mix-blend-mode:multiply">
<path d="M318.267 94.2567L317.561 94.5938V77.6191L318.267 77.282V94.2567Z" fill="#B3B3B3"/>
</g>
<g style="mix-blend-mode:multiply">
<path d="M322.842 92.9411L322.136 93.2782V75.4661L322.842 75.1399V92.9411Z" fill="#B3B3B3"/>
</g>
<path style="mix-blend-mode:multiply" d="M313.999 87.9387L322.679 83.8283V76.0967L313.999 80.1745V87.9387Z" fill="url(#paint7_linear_802_7503)"/>
<path d="M322.996 92.4191L322.29 92.7562V74.9442L322.996 74.6179V92.4191Z" fill="#EBD8CF"/>
<path d="M318.574 94.9853L317.868 95.3224V77.4669L318.574 77.1406V94.9853Z" fill="#EBCEC0"/>
<path d="M312.945 79.2286V97.6822L323.242 92.7453V74.4004L312.945 79.2286ZM322.443 91.6905L313.763 95.8444V80.3051L322.443 76.2273V91.6905Z" fill="#C78F75"/>
<path d="M318.595 94.9745L318.093 95.2138V77.3691L318.595 77.1299V94.9745Z" fill="#C78F75"/>
<path d="M300.519 103.641L301.245 103.957V42.7997L300.519 42.5061V103.641Z" fill="#FCEDDE"/>
<path d="M323.16 92.7778L323.907 93.0931V31.2621L323.16 30.9685V92.7778Z" fill="#FCEDDE"/>
<g style="mix-blend-mode:multiply">
<path d="M311.931 98.1823L312.73 98.5194L323.968 93.1367L323.17 92.7996L311.931 98.1823Z" fill="#B3B3B3"/>
</g>
<path d="M288.062 48.922L302.044 42.6802V41.3318L288.062 47.5627V48.922Z" fill="#CDB9AA"/>
<path d="M310.734 38.7981L324.378 32.7085V29.468L310.734 35.5359V38.7981Z" fill="#CDB9AA"/>
<path d="M288.666 112.906L290.017 112.254V46.6929L288.666 47.291V112.906Z" fill="#CDB9AA"/>
<g style="mix-blend-mode:multiply">
<path d="M300.519 43.5283L290.017 48.2152V48.052L300.519 43.3652V43.5283Z" fill="#E6E6E6"/>
</g>
<g style="mix-blend-mode:multiply">
<path d="M323.17 33.4044L312.934 37.9825V37.8194L323.17 33.2522V33.4044Z" fill="#E6E6E6"/>
</g>
<path d="M311.87 101.738L313.19 101.108V36.3623L311.87 36.9495V101.738Z" fill="#CDB9AA"/>
<path d="M263.783 68.1041L271.726 71.4208V56.4796L263.783 53.2173V68.1041Z" fill="url(#paint8_linear_802_7503)"/>
<g style="mix-blend-mode:multiply">
<path d="M263.415 68.213L264.367 68.6153V52.9564L263.415 52.5649V68.213Z" fill="#8F8F8F"/>
</g>
<path style="mix-blend-mode:multiply" d="M271.511 63.8416L263.568 60.5576V53.1196L271.511 56.3819V63.8416Z" fill="url(#paint9_linear_802_7503)"/>
<path d="M263.282 68.8437L263.916 69.1156V51.9778L263.282 51.7168V68.8437Z" fill="#EBD8CF"/>
<path d="M263.046 51.521V69.1808L272.473 73.1281V55.3922L263.046 51.521ZM263.783 53.2174L271.726 56.4797V71.4209L263.783 68.1042V53.2283V53.2174Z" fill="#C78F75"/>
<path d="M236.485 56.5993L249.812 62.1778V47.3997L236.485 41.9299V56.5993Z" fill="url(#paint10_linear_802_7503)"/>
<g style="mix-blend-mode:multiply">
<path d="M242.883 59.8289L243.968 60.2748V44.1374L242.883 43.7024V59.8289Z" fill="#B3B3B3"/>
</g>
<g style="mix-blend-mode:multiply">
<path d="M235.871 56.9907L237.099 57.5018V41.8211L235.871 41.3101V56.9907Z" fill="#B3B3B3"/>
</g>
<path style="mix-blend-mode:multiply" d="M249.444 54.62L236.117 49.0958V41.7666L249.444 47.2364V54.62Z" fill="url(#paint11_linear_802_7503)"/>
<path d="M235.636 57.1972L236.71 57.643V40.7444L235.636 40.2986V57.1972Z" fill="#EBD8CF"/>
<path d="M242.412 60.4596L243.497 60.9163V43.9524L242.412 43.5066V60.4596Z" fill="#EBCEC0"/>
<path d="M235.247 40.0486V57.4691L251.061 64.0916V46.5405L235.247 40.0595V40.0486ZM236.485 41.9298L249.812 47.3996V62.1777L236.485 56.6101V41.9298Z" fill="#C78F75"/>
<path d="M242.391 60.4486L243.149 60.7639V43.811L242.391 43.4956V60.4486Z" fill="#C78F75"/>
<path d="M263.783 102.934L271.726 106.392V91.451L263.783 88.0474V102.934Z" fill="url(#paint12_linear_802_7503)"/>
<g style="mix-blend-mode:multiply">
<path d="M263.415 103.054L264.285 103.434V87.8951L263.415 87.5254V103.054Z" fill="#999999"/>
</g>
<path style="mix-blend-mode:multiply" d="M271.511 98.813L263.568 95.3767V87.9387L271.511 91.3424V98.813Z" fill="url(#paint13_linear_802_7503)"/>
<path d="M263.282 103.674L263.916 103.945V86.8185L263.282 86.5466V103.674Z" fill="#EBD8CF"/>
<path d="M263.046 86.3401V104L272.473 108.11V90.3744L263.046 86.3401ZM263.783 88.0473L271.726 91.4401V106.381L263.783 102.923V88.0473Z" fill="#C78F75"/>
<path d="M236.485 90.9727L249.812 96.7687V81.9906L236.485 76.2925V90.9727Z" fill="url(#paint14_linear_802_7503)"/>
<g style="mix-blend-mode:multiply">
<path d="M242.883 94.3001L243.968 94.7677V78.6303L242.883 78.1736V94.3001Z" fill="#B3B3B3"/>
</g>
<g style="mix-blend-mode:multiply">
<path d="M235.871 91.0704L237.202 91.6467V76.2923L235.871 75.7268V91.0704Z" fill="#999999"/>
</g>
<path style="mix-blend-mode:multiply" d="M249.444 89.2001L236.117 83.4585V76.1184L249.444 81.8165V89.2001Z" fill="url(#paint15_linear_802_7503)"/>
<path d="M235.636 91.549L236.71 92.0166V75.1071L235.636 74.6504V91.549Z" fill="#EBD8CF"/>
<path d="M242.412 94.92L243.497 95.3985V78.4346L242.412 77.967V94.92Z" fill="#EBCEC0"/>
<path d="M235.247 74.3894V91.7991L251.061 98.6934V81.1423L235.247 74.3894ZM236.485 76.2924L249.812 81.9905V96.7686L236.485 90.9726V76.2924Z" fill="#C78F75"/>
<path d="M242.391 94.909L243.149 95.2461V78.2823L242.391 77.9561V94.909Z" fill="#C78F75"/>
<path d="M271.961 86.4599L234.755 70.6378V62.5474L271.961 78.228V86.4599Z" fill="#F7D7A5"/>
<path d="M271.961 83.3716L234.755 67.6039V65.5813L271.961 81.3163V83.3716Z" fill="white"/>
<path d="M271.961 53.2283L234.755 38.0152V34.0896L271.961 49.2374V53.2283Z" fill="#F7D7A5"/>
<path d="M331 23.1065L278.533 3L228 24.2048L280.59 45.4313L331 23.1065Z" fill="#FAEFE6"/>
<path d="M321.409 23.2044L278.717 6.77344L237.621 24.107L280.385 41.2775L321.409 23.2044Z" fill="#D6B480"/>
<path d="M319.25 24.0743L279.004 8.5459L240.078 24.9986L280.385 41.1904L319.25 24.0743Z" fill="#EDCA95"/>
<path d="M295.043 19.5615L279.055 13.3523L257.151 22.6715L273.159 29.0221L295.043 19.5615Z" fill="white"/>
<path d="M289.034 14.9072L280.089 11.4492L269.157 16.0817L278.113 19.5832L289.034 14.9072Z" fill="white"/>
<g style="mix-blend-mode:multiply">
<path d="M237.621 24.107L278.717 6.77344L279.004 8.54594L240.078 24.9987L237.621 24.107Z" fill="#DBD1C1"/>
</g>
<path d="M295.145 22.4541L273.159 32.0017V29.0222L295.145 19.5181V22.4541Z" fill="#D6B480"/>
<path d="M257.151 25.7599L273.159 32.1322V29.0222L257.151 22.6716V25.7599Z" fill="#EBC186"/>
<path d="M289.045 19.1591L278.093 23.8677V19.5397L289.045 14.842V19.1591Z" fill="#D6B480"/>
<path d="M278.082 23.9003L269.126 20.377V16.0708L278.082 19.5723V23.9003Z" fill="#EBC186"/>
</g>
</g>
<defs>
<linearGradient id="paint0_linear_802_7503" x1="290.703" y1="61.4056" x2="299.598" y2="61.4056" gradientUnits="userSpaceOnUse">
<stop stop-color="#54443C"/>
<stop offset="0.23" stop-color="#6C5F57"/>
<stop offset="0.55" stop-color="#877D76"/>
<stop offset="0.81" stop-color="#989089"/>
<stop offset="1" stop-color="#9E9790"/>
</linearGradient>
<linearGradient id="paint1_linear_802_7503" x1="295.391" y1="61.1227" x2="295.391" y2="36.7317" gradientUnits="userSpaceOnUse">
<stop stop-color="white"/>
<stop offset="0.12" stop-color="#E3E3E3"/>
<stop offset="0.37" stop-color="#9C9C9C"/>
<stop offset="0.56" stop-color="#636363"/>
</linearGradient>
<linearGradient id="paint2_linear_802_7503" x1="313.753" y1="50.9662" x2="322.423" y2="50.9662" gradientUnits="userSpaceOnUse">
<stop stop-color="#54443C"/>
<stop offset="0.23" stop-color="#6C5F57"/>
<stop offset="0.55" stop-color="#877D76"/>
<stop offset="0.81" stop-color="#989089"/>
<stop offset="1" stop-color="#9E9790"/>
</linearGradient>
<linearGradient id="paint3_linear_802_7503" x1="318.328" y1="50.6727" x2="318.328" y2="26.6841" gradientUnits="userSpaceOnUse">
<stop stop-color="white"/>
<stop offset="0.12" stop-color="#E3E3E3"/>
<stop offset="0.37" stop-color="#9C9C9C"/>
<stop offset="0.56" stop-color="#636363"/>
</linearGradient>
<linearGradient id="paint4_linear_802_7503" x1="-465.691" y1="96.9099" x2="-464.668" y2="96.9099" gradientUnits="userSpaceOnUse">
<stop stop-color="#54443C"/>
<stop offset="0.23" stop-color="#6C5F57"/>
<stop offset="0.55" stop-color="#877D76"/>
<stop offset="0.81" stop-color="#989089"/>
<stop offset="1" stop-color="#9E9790"/>
</linearGradient>
<linearGradient id="paint5_linear_802_7503" x1="-215.423" y1="96.6817" x2="-216.578" y2="71.9489" gradientUnits="userSpaceOnUse">
<stop stop-color="white"/>
<stop offset="0.12" stop-color="#E3E3E3"/>
<stop offset="0.37" stop-color="#9C9C9C"/>
<stop offset="0.56" stop-color="#636363"/>
</linearGradient>
<linearGradient id="paint6_linear_802_7503" x1="313.763" y1="86.025" x2="322.443" y2="86.025" gradientUnits="userSpaceOnUse">
<stop stop-color="#54443C"/>
<stop offset="0.23" stop-color="#6C5F57"/>
<stop offset="0.55" stop-color="#877D76"/>
<stop offset="0.81" stop-color="#989089"/>
<stop offset="1" stop-color="#9E9790"/>
</linearGradient>
<linearGradient id="paint7_linear_802_7503" x1="318.339" y1="85.7856" x2="318.339" y2="61.4599" gradientUnits="userSpaceOnUse">
<stop stop-color="white"/>
<stop offset="0.12" stop-color="#E3E3E3"/>
<stop offset="0.37" stop-color="#9C9C9C"/>
<stop offset="0.56" stop-color="#636363"/>
</linearGradient>
<linearGradient id="paint8_linear_802_7503" x1="266.619" y1="62.7975" x2="274.124" y2="60.0089" gradientUnits="userSpaceOnUse">
<stop stop-color="#85746C"/>
<stop offset="0.08" stop-color="#8B7B73"/>
<stop offset="0.46" stop-color="#A69A92"/>
<stop offset="0.78" stop-color="#B7ADA5"/>
<stop offset="1" stop-color="#BDB4AC"/>
</linearGradient>
<linearGradient id="paint9_linear_802_7503" x1="267.53" y1="61.8952" x2="267.53" y2="39.853" gradientUnits="userSpaceOnUse">
<stop stop-color="white"/>
<stop offset="0.12" stop-color="#E3E3E3"/>
<stop offset="0.37" stop-color="#9C9C9C"/>
<stop offset="0.56" stop-color="#636363"/>
</linearGradient>
<linearGradient id="paint10_linear_802_7503" x1="240.928" y1="54.0112" x2="251.664" y2="45.6033" gradientUnits="userSpaceOnUse">
<stop stop-color="#85746C"/>
<stop offset="0.08" stop-color="#8B7B73"/>
<stop offset="0.46" stop-color="#A69A92"/>
<stop offset="0.78" stop-color="#B7ADA5"/>
<stop offset="1" stop-color="#BDB4AC"/>
</linearGradient>
<linearGradient id="paint11_linear_802_7503" x1="241.276" y1="50.7596" x2="255.532" y2="29.0881" gradientUnits="userSpaceOnUse">
<stop stop-color="white"/>
<stop offset="0.12" stop-color="#E3E3E3"/>
<stop offset="0.37" stop-color="#9C9C9C"/>
<stop offset="0.56" stop-color="#636363"/>
</linearGradient>
<linearGradient id="paint12_linear_802_7503" x1="266.916" y1="97.8994" x2="273.526" y2="93.1849" gradientUnits="userSpaceOnUse">
<stop stop-color="#85746C"/>
<stop offset="0.08" stop-color="#8B7B73"/>
<stop offset="0.46" stop-color="#A69A92"/>
<stop offset="0.78" stop-color="#B7ADA5"/>
<stop offset="1" stop-color="#BDB4AC"/>
</linearGradient>
<linearGradient id="paint13_linear_802_7503" x1="267.53" y1="96.8339" x2="267.53" y2="74.5199" gradientUnits="userSpaceOnUse">
<stop stop-color="white"/>
<stop offset="0.12" stop-color="#E3E3E3"/>
<stop offset="0.37" stop-color="#9C9C9C"/>
<stop offset="0.56" stop-color="#636363"/>
</linearGradient>
<linearGradient id="paint14_linear_802_7503" x1="240.754" y1="90.4181" x2="248.684" y2="79.0164" gradientUnits="userSpaceOnUse">
<stop stop-color="#85746C"/>
<stop offset="0.08" stop-color="#8B7B73"/>
<stop offset="0.46" stop-color="#A69A92"/>
<stop offset="0.78" stop-color="#B7ADA5"/>
<stop offset="1" stop-color="#BDB4AC"/>
</linearGradient>
<linearGradient id="paint15_linear_802_7503" x1="240.907" y1="85.3615" x2="257.1" y2="64.6583" gradientUnits="userSpaceOnUse">
<stop stop-color="white"/>
<stop offset="0.12" stop-color="#E3E3E3"/>
<stop offset="0.37" stop-color="#9C9C9C"/>
<stop offset="0.56" stop-color="#636363"/>
</linearGradient>
<clipPath id="clip0_802_7503">
<rect width="103" height="126" fill="white" transform="translate(228 3)"/>
</clipPath>
</defs>
</svg>
