<svg width="122" height="122" viewBox="0 0 122 122" fill="none" xmlns="http://www.w3.org/2000/svg">
<path d="M42.0442 13.8465C40.5039 11.7573 39.2001 9.76716 37.7742 7.88379C36.7906 10.1255 36.0052 12.2605 35.2961 14.3498C33.3288 15.0513 31.3539 15.7452 29.2266 16.6144C31.0515 17.602 32.7665 18.7803 34.3429 20.1295C34.2972 22.3103 34.3277 24.491 34.5031 26.992C36.1395 25.2335 37.9004 23.595 39.7719 22.0892C41.8307 23.2863 43.892 24.486 45.9558 25.6882C45.7881 23.4998 44.6291 19.3975 44.5452 18.8485C46.7031 16.683 49.1278 13.5492 49.0821 13.2137C46.7203 13.1757 44.3612 13.3878 42.0442 13.8465Z" fill="#E75DCD"/>
<path d="M94.5952 108.739C95.9143 110.447 97.236 112.155 98.5602 113.863C99.2767 111.683 99.8549 109.46 100.291 107.207C102.253 105.849 104.33 104.666 106.498 103.669C104.226 102.769 102.007 102.075 99.7878 101.381C99.0078 99.0052 98.3863 96.5802 97.9273 94.1221C96.3795 96.1198 94.8926 98.1023 93.0321 100.245C90.6769 99.8888 88.2998 99.6977 85.918 99.6731C87.6331 101.123 89.0542 102.888 90.1041 104.873C89.2082 107.015 88.5436 109.247 88.1216 111.53C90.1551 110.334 92.3298 109.397 94.5952 108.739Z" fill="#9061EE"/>
<path d="M41.0226 115.023C41.1417 115.062 41.2673 115.077 41.3922 115.067C41.5171 115.057 41.6387 115.022 41.7502 114.965C41.8616 114.907 41.9606 114.829 42.0414 114.733C42.1223 114.637 42.1834 114.526 42.2212 114.407C42.9435 112.151 43.8493 109.958 44.9296 107.849C44.9868 107.738 45.0215 107.617 45.0317 107.492C45.0419 107.367 45.0274 107.242 44.9891 107.122C44.9508 107.003 44.8894 106.893 44.8084 106.797C44.7274 106.702 44.6284 106.623 44.5171 106.566C44.4057 106.509 44.2842 106.474 44.1595 106.464C44.0347 106.454 43.9092 106.468 43.79 106.507C43.6708 106.545 43.5604 106.606 43.465 106.687C43.3695 106.768 43.291 106.867 43.2338 106.979C42.106 109.18 41.1604 111.47 40.4065 113.826C40.3297 114.066 40.3515 114.327 40.467 114.552C40.5825 114.776 40.7823 114.946 41.0226 115.023Z" fill="#292929"/>
<path d="M26.7629 108.191C26.9903 108.191 27.2102 108.11 27.3828 107.962L34.1073 102.197C34.2025 102.116 34.2806 102.016 34.3373 101.905C34.394 101.793 34.4282 101.671 34.4379 101.547C34.4475 101.422 34.4325 101.296 34.3937 101.177C34.3548 101.058 34.2929 100.948 34.2114 100.853C34.13 100.758 34.0306 100.679 33.9189 100.623C33.8072 100.566 33.6855 100.532 33.5606 100.522C33.4358 100.512 33.3102 100.527 33.1912 100.566C33.0721 100.605 32.9619 100.667 32.8667 100.749L26.1423 106.513C25.9941 106.64 25.8884 106.809 25.8393 106.998C25.7902 107.186 25.8002 107.385 25.8678 107.568C25.9355 107.751 26.0575 107.909 26.2176 108.02C26.3777 108.131 26.568 108.191 26.7629 108.191Z" fill="#37C084"/>
<path d="M10.1495 47.4699C10.0302 47.4268 9.90357 47.4081 9.77694 47.4146C9.65032 47.4212 9.52627 47.4529 9.41207 47.508C9.29787 47.5631 9.1958 47.6404 9.11186 47.7354C9.02791 47.8304 8.96377 47.9413 8.92319 48.0614C8.8826 48.1815 8.8664 48.3085 8.87551 48.435C8.88463 48.5615 8.91889 48.6848 8.97629 48.7979C9.03368 48.911 9.11306 49.0114 9.20977 49.0934C9.30648 49.1754 9.41858 49.2373 9.5395 49.2755C11.5891 49.9693 13.6392 50.668 15.6898 51.3716C15.7881 51.4049 15.8911 51.4222 15.9948 51.4227C16.2203 51.422 16.4383 51.3414 16.6099 51.1952C16.7816 51.049 16.8959 50.8467 16.9325 50.6242C16.9691 50.4016 16.9256 50.1734 16.8097 49.9799C16.6939 49.7865 16.5132 49.6403 16.2998 49.5675C14.2518 48.866 12.2016 48.1668 10.1495 47.4699Z" fill="#1368EB"/>
<path d="M116.282 44.7403L109.389 43.6148C109.265 43.5948 109.139 43.5993 109.017 43.6281C108.895 43.6569 108.78 43.7094 108.679 43.7826C108.577 43.8558 108.491 43.9483 108.425 44.0548C108.36 44.1613 108.316 44.2797 108.295 44.4032C108.275 44.5268 108.28 44.6531 108.309 44.7749C108.338 44.8967 108.39 45.0117 108.463 45.1132C108.611 45.3183 108.834 45.4562 109.084 45.4967L115.977 46.6252C116.1 46.6452 116.227 46.6407 116.349 46.6119C116.47 46.5831 116.585 46.5306 116.687 46.4574C116.788 46.3842 116.875 46.2917 116.94 46.1852C117.006 46.0787 117.05 45.9603 117.07 45.8367C117.09 45.7132 117.086 45.5869 117.057 45.4651C117.028 45.3432 116.976 45.2283 116.903 45.1267C116.829 45.0252 116.737 44.9391 116.63 44.8733C116.524 44.8075 116.405 44.7633 116.282 44.7433V44.7403Z" fill="#1368EB"/>
<path d="M115.455 29.5473C115.374 29.3078 115.201 29.1103 114.975 28.9979C114.748 28.8856 114.486 28.8676 114.247 28.948L106.835 31.4413C106.621 31.5133 106.439 31.6593 106.322 31.8532C106.205 32.047 106.161 32.2761 106.198 32.4994C106.235 32.7227 106.35 32.9256 106.522 33.072C106.695 33.2183 106.914 33.2984 107.14 33.298C107.244 33.2982 107.347 33.2812 107.445 33.2477L114.858 30.7543C115.097 30.6732 115.294 30.5006 115.406 30.2743C115.518 30.048 115.535 29.7865 115.455 29.5473Z" fill="#292929"/>
<path d="M103.12 16.0036L101.168 18.2911C99.878 19.8064 98.5871 21.3197 97.2955 22.831C97.214 22.9261 97.1522 23.0363 97.1134 23.1554C97.0746 23.2744 97.0596 23.3999 97.0693 23.5248C97.079 23.6496 97.1132 23.7713 97.1699 23.8829C97.2266 23.9945 97.3048 24.0939 97.3999 24.1753C97.495 24.2567 97.6053 24.3186 97.7243 24.3574C97.8433 24.3962 97.9689 24.4112 98.0937 24.4015C98.2185 24.3918 98.3402 24.3576 98.4518 24.3008C98.5634 24.2441 98.6628 24.1659 98.7442 24.0708C100.037 22.559 101.329 21.0445 102.62 19.5271L104.57 17.2396C104.657 17.1453 104.724 17.0345 104.767 16.9137C104.811 16.7929 104.829 16.6647 104.821 16.5367C104.814 16.4087 104.78 16.2835 104.723 16.1687C104.666 16.0539 104.586 15.9519 104.489 15.8686C104.391 15.7853 104.278 15.7226 104.155 15.6842C104.033 15.6458 103.904 15.6324 103.777 15.6449C103.649 15.6575 103.525 15.6956 103.413 15.7571C103.3 15.8186 103.201 15.9022 103.122 16.0028L103.12 16.0036Z" fill="#37C084"/>
<path d="M25.479 43.7513C25.665 43.5802 25.7754 43.3422 25.786 43.0897C25.7966 42.8372 25.7065 42.5908 25.5354 42.4048C24.0745 40.8157 22.6155 39.2246 21.1587 37.6315L20.5807 37.0002C20.4964 36.9068 20.3946 36.831 20.2809 36.7772C20.1673 36.7234 20.0441 36.6926 19.9185 36.6866C19.7929 36.6806 19.6674 36.6995 19.5491 36.7423C19.4309 36.785 19.3222 36.8507 19.2295 36.9356C19.1367 37.0205 19.0617 37.1229 19.0087 37.237C18.9557 37.351 18.9258 37.4744 18.9207 37.6C18.9156 37.7257 18.9354 37.8511 18.979 37.969C19.0226 38.087 19.0891 38.1951 19.1746 38.2873L19.7534 38.9186C21.2143 40.5143 22.674 42.1064 24.1324 43.6949C24.2171 43.7871 24.3191 43.8617 24.4326 43.9144C24.5461 43.9672 24.6689 43.997 24.794 44.0023C24.9191 44.0075 25.0439 43.988 25.1615 43.945C25.279 43.9019 25.3869 43.8361 25.479 43.7513Z" fill="#292929"/>
<path d="M90.5849 78.7425C88.9684 71.3335 87.3499 63.9246 85.7293 56.5156C79.4006 60.8664 72.9513 65.1578 66.5357 69.2753C66.3167 69.4158 66.0713 69.51 65.8145 69.5521C65.5577 69.5942 65.2951 69.5833 65.0427 69.5201C57.436 67.6138 49.8262 65.5802 42.4102 63.4757C43.0545 71.1861 43.6873 78.9156 44.1639 86.7564C51.0035 91.3771 80.3217 94.8389 90.5849 78.7425Z" fill="#292929"/>
<path d="M9.39766 93.6658C10.3672 94.4427 11.4837 95.0156 12.6802 95.3502C18.0047 90.609 22.4239 84.9404 25.7228 78.6202C24.5854 77.9031 23.5032 77.102 22.4852 76.2236C21.4452 77.2561 20.3838 78.2687 19.2827 79.2439C17.2549 81.0466 15.1294 82.7363 12.9158 84.3054C10.6555 85.9071 8.30323 87.3748 5.87109 88.7012C6.018 89.0895 6.18321 89.4693 6.36672 89.8404C7.08399 91.3225 8.1188 92.6286 9.39766 93.6658Z" fill="#292929"/>
<path d="M34.2008 61.0945C32.5561 63.1845 30.6208 65.8281 28.3295 69.1107C27.962 69.6378 27.5856 70.181 27.2003 70.7401C27.1759 70.7348 27.1522 70.7264 27.124 70.7218C26.9921 70.6991 26.8583 70.6884 26.7245 70.6898C26.684 70.6898 26.6482 70.6974 26.6047 70.6997C26.514 70.704 26.4236 70.7137 26.3341 70.7287C26.2845 70.7378 26.2365 70.7516 26.1877 70.7638C26.1114 70.7828 26.0306 70.8034 25.9536 70.8301C25.9032 70.8476 25.8537 70.869 25.8011 70.8896C25.7286 70.9193 25.6562 70.9521 25.5853 70.9879C25.5365 71.0131 25.4884 71.0398 25.4404 71.0642C25.371 71.1046 25.3039 71.1481 25.2368 71.1938C25.1926 71.2243 25.1476 71.2556 25.1041 71.2884C25.0378 71.3394 24.9738 71.3936 24.9112 71.4492C24.8723 71.4836 24.835 71.5171 24.7946 71.5529C24.729 71.6162 24.668 71.6841 24.607 71.752C24.578 71.7847 24.546 71.8168 24.5178 71.8503C24.4318 71.9538 24.3516 72.062 24.2776 72.1744C24.1229 72.4102 23.989 72.6589 23.8773 72.9178C23.6634 73.434 23.5022 73.9705 23.3961 74.5191C23.4224 74.5332 23.4479 74.5487 23.4724 74.5656C24.5155 75.4884 25.6336 76.3226 26.8152 77.0597C27.4839 76.6363 28.0577 76.0788 28.5003 75.4226C28.7662 75.0139 28.9563 74.5606 29.0615 74.0844C29.1119 73.8491 29.1374 73.6091 29.1378 73.3685C29.1385 73.1281 29.1103 72.8885 29.0539 72.6548C28.9883 72.383 28.881 72.1229 28.7359 71.8839L28.7253 71.8694C29.1141 71.3046 29.4934 70.7569 29.8629 70.2262C32.3235 66.6951 34.3746 63.9043 36.0857 61.7624C36.1085 61.7335 36.1322 61.706 36.1551 61.677C36.4921 61.2508 36.8413 60.833 37.1547 60.457C37.173 60.4389 37.1903 60.4198 37.2065 60.3999C37.3019 60.2878 37.3979 60.1864 37.4932 60.0758C39.0691 60.5409 40.648 60.9984 42.2299 61.4483C44.1707 62.0009 46.1115 62.545 48.0523 63.0808C49.9932 63.6166 51.9335 64.1437 53.8733 64.6622C57.7529 65.6992 61.6264 66.7019 65.4938 67.6703C72.158 63.3927 78.7511 59.0058 85.273 54.5095C90.6181 50.8495 95.915 47.1133 101.164 43.3008C87.0954 39.7323 73.2789 36.1943 59.5234 32.4199C46.9571 39.4246 34.8534 47.2288 23.2871 55.7845C27.3497 57.0609 31.4209 58.2969 35.5008 59.4925C35.1958 59.8547 34.8908 60.2169 34.6049 60.5806C34.4737 60.7445 34.3357 60.9237 34.2008 61.0945Z" fill="#292929"/>
</svg>
