<svg width="42" height="42" viewBox="0 0 42 42" fill="none" xmlns="http://www.w3.org/2000/svg">
<circle cx="21" cy="21" r="21" fill="#E75DCD" fill-opacity="0.1"/>
<path d="M22.4419 10.6734C22.3494 10.5965 22.2398 10.543 22.1224 10.5174C22.0049 10.4917 21.883 10.4947 21.7669 10.526C21.6508 10.5574 21.544 10.6162 21.4554 10.6975C21.3668 10.7787 21.299 10.8801 21.2578 10.9931L19.1953 16.6565L16.9303 14.4618C16.8542 14.3881 16.7634 14.3312 16.6638 14.2951C16.5642 14.259 16.458 14.2444 16.3523 14.2523C16.2467 14.2602 16.1439 14.2904 16.0507 14.3409C15.9576 14.3914 15.8762 14.461 15.8119 14.5453C13.7813 17.2059 12.75 19.8825 12.75 22.5C12.75 24.688 13.6192 26.7864 15.1664 28.3336C16.7135 29.8808 18.812 30.75 21 30.75C23.188 30.75 25.2865 29.8808 26.8336 28.3336C28.3808 26.7864 29.25 24.688 29.25 22.5C29.25 16.9265 24.4884 12.375 22.4419 10.6734ZM26.2397 23.3756C26.0452 24.4619 25.5226 25.4625 24.7422 26.2428C23.9618 27.023 22.961 27.5454 21.8747 27.7397C21.8335 27.7467 21.7918 27.7502 21.75 27.75C21.5619 27.7499 21.3806 27.6792 21.2422 27.5518C21.1038 27.4243 21.0183 27.2495 21.0028 27.0621C20.9872 26.8746 21.0426 26.6881 21.1581 26.5396C21.2736 26.3911 21.4407 26.2914 21.6262 26.2603C23.1797 25.9987 24.4978 24.6806 24.7612 23.1243C24.7946 22.9282 24.9045 22.7533 25.0667 22.6381C25.229 22.5229 25.4304 22.477 25.6266 22.5103C25.8227 22.5436 25.9976 22.6535 26.1128 22.8158C26.228 22.978 26.2739 23.1794 26.2406 23.3756H26.2397Z" fill="#E75DCD"/>
</svg>
