<svg width="28" height="28" viewBox="0 0 28 28" fill="none" xmlns="http://www.w3.org/2000/svg">
<g clip-path="url(#clip0_715_10723)">
<path d="M24.7188 9.63379C24.675 9.52441 24.6291 9.41504 24.582 9.30566C23.8763 7.6782 22.7343 6.27761 21.2822 5.25879H23.625C23.8571 5.25879 24.0796 5.1666 24.2437 5.00251C24.4078 4.83841 24.5 4.61585 24.5 4.38379C24.5 4.15172 24.4078 3.92916 24.2437 3.76507C24.0796 3.60098 23.8571 3.50879 23.625 3.50879H12.25C9.83073 3.51186 7.50109 4.42465 5.72368 6.06589C3.94627 7.70714 2.8511 9.9568 2.65563 12.3682C1.8998 12.556 1.22824 12.9907 0.747237 13.6032C0.266237 14.2157 0.00328291 14.9712 0 15.75C0 15.9821 0.0921873 16.2047 0.256282 16.3688C0.420376 16.5329 0.642936 16.625 0.875 16.625C1.10706 16.625 1.32962 16.5329 1.49372 16.3688C1.65781 16.2047 1.75 15.9821 1.75 15.75C1.7502 15.431 1.83764 15.118 2.00285 14.845C2.16806 14.5721 2.40476 14.3495 2.68734 14.2013C2.90514 16.1644 3.72372 18.0124 5.03125 19.4929L6.405 23.3385C6.52645 23.6786 6.75017 23.9729 7.04547 24.1808C7.34077 24.3888 7.69319 24.5003 8.05437 24.5H9.44563C9.80662 24.5001 10.1588 24.3885 10.4539 24.1805C10.749 23.9726 10.9725 23.6785 11.0939 23.3385L11.3039 22.75H17.5711L17.7811 23.3385C17.9025 23.6785 18.126 23.9726 18.4211 24.1805C18.7162 24.3885 19.0684 24.5001 19.4294 24.5H20.8206C21.1816 24.5001 21.5338 24.3885 21.8289 24.1805C22.124 23.9726 22.3475 23.6785 22.4689 23.3385L24.2419 18.375H24.5C25.1962 18.375 25.8639 18.0985 26.3562 17.6062C26.8484 17.1139 27.125 16.4462 27.125 15.75V12.25C27.1251 11.5916 26.8778 10.9573 26.4321 10.4727C25.9864 9.98807 25.3749 9.68865 24.7188 9.63379ZM16.625 7.87504H12.25C12.0179 7.87504 11.7954 7.78285 11.6313 7.61876C11.4672 7.45466 11.375 7.2321 11.375 7.00004C11.375 6.76797 11.4672 6.54541 11.6313 6.38132C11.7954 6.21723 12.0179 6.12504 12.25 6.12504H16.625C16.8571 6.12504 17.0796 6.21723 17.2437 6.38132C17.4078 6.54541 17.5 6.76797 17.5 7.00004C17.5 7.2321 17.4078 7.45466 17.2437 7.61876C17.0796 7.78285 16.8571 7.87504 16.625 7.87504ZM19.6875 14C19.4279 14 19.1742 13.9231 18.9583 13.7788C18.7425 13.6346 18.5742 13.4296 18.4749 13.1898C18.3756 12.95 18.3496 12.6861 18.4002 12.4315C18.4509 12.1769 18.5759 11.943 18.7594 11.7595C18.943 11.5759 19.1768 11.4509 19.4314 11.4003C19.686 11.3496 19.9499 11.3756 20.1898 11.4749C20.4296 11.5743 20.6346 11.7425 20.7788 11.9584C20.923 12.1742 21 12.428 21 12.6875C21 13.0356 20.8617 13.3695 20.6156 13.6156C20.3694 13.8618 20.0356 14 19.6875 14Z" fill="#212529"/>
</g>
<defs>
<clipPath id="clip0_715_10723">
<rect width="28" height="28" fill="white"/>
</clipPath>
</defs>
</svg>
