<svg width="21" height="20" viewBox="0 0 21 20" fill="none" xmlns="http://www.w3.org/2000/svg">
<path d="M19.5086 7.10226L9.47736 17.1335C9.24296 17.3677 8.92514 17.4993 8.59376 17.4993C8.26238 17.4993 7.94457 17.3677 7.71017 17.1335L2.11486 11.5085C1.88085 11.2741 1.74942 10.9565 1.74942 10.6253C1.74942 10.2941 1.88085 9.97646 2.11486 9.7421L3.67736 8.1796C3.91162 7.94631 4.22877 7.81533 4.55939 7.81533C4.89 7.81533 5.20715 7.94631 5.44142 8.1796L8.62501 11.2671L16.1844 3.80069C16.4187 3.56716 16.736 3.43604 17.0668 3.43604C17.3976 3.43604 17.7149 3.56716 17.9492 3.80069L19.5078 5.32726C19.625 5.44341 19.7181 5.58162 19.7816 5.73391C19.8451 5.88621 19.8779 6.04958 19.878 6.21459C19.878 6.37961 19.8454 6.543 19.782 6.69536C19.7186 6.84771 19.6257 6.986 19.5086 7.10226Z" fill="white"/>
</svg>
