<svg width="28" height="28" viewBox="0 0 28 28" fill="none" xmlns="http://www.w3.org/2000/svg">
<path d="M19.8695 14.6191L11.1195 23.3691C11.0383 23.4504 10.9417 23.5148 10.8355 23.5588C10.7293 23.6028 10.6155 23.6255 10.5005 23.6255C10.3855 23.6255 10.2717 23.6028 10.1655 23.5588C10.0592 23.5148 9.96272 23.4504 9.88142 23.3691C9.80013 23.2878 9.73564 23.1913 9.69164 23.085C9.64764 22.9788 9.625 22.865 9.625 22.75C9.625 22.635 9.64764 22.5212 9.69164 22.415C9.73564 22.3087 9.80013 22.2122 9.88142 22.1309L18.0135 14L9.88142 5.86906C9.71724 5.70488 9.625 5.48219 9.625 5.25C9.625 5.0178 9.71724 4.79512 9.88142 4.63094C10.0456 4.46675 10.2683 4.37451 10.5005 4.37451C10.7327 4.37451 10.9554 4.46675 11.1195 4.63094L19.8695 13.3809C19.9509 13.4622 20.0154 13.5587 20.0595 13.6649C20.1035 13.7711 20.1262 13.885 20.1262 14C20.1262 14.115 20.1035 14.2288 20.0595 14.3351C20.0154 14.4413 19.9509 14.5378 19.8695 14.6191Z" fill="black"/>
</svg>
