<svg width="32" height="32" viewBox="0 0 32 32" fill="none" xmlns="http://www.w3.org/2000/svg">
<path fill-rule="evenodd" clip-rule="evenodd" d="M20.8885 3.83203H11.1118C6.86516 3.83203 4.3335 6.3637 4.3335 10.6104V20.3754C4.3335 24.6337 6.86516 27.1654 11.1118 27.1654H20.8768C25.1235 27.1654 27.6552 24.6337 27.6552 20.387V10.6104C27.6668 6.3637 25.1352 3.83203 20.8885 3.83203ZM17.4709 13.0328L17.1442 12.3678C16.5142 11.0961 15.4876 11.0961 14.8576 12.3561L14.5309 13.0211C14.3676 13.3478 13.9476 13.6628 13.5976 13.7211L13.1542 13.7911C11.8242 14.0128 11.5092 14.9928 12.4659 15.9611L12.8742 16.3811C13.1426 16.6611 13.2942 17.1978 13.2126 17.5711L13.1542 17.8161C12.7809 19.4261 13.6326 20.0561 15.0442 19.2045L15.3476 19.0295C15.7092 18.8195 16.2926 18.8195 16.6542 19.0295L16.9576 19.2045C18.3576 20.0445 19.2092 19.4261 18.8476 17.8161L18.7892 17.5711C18.7076 17.1978 18.8592 16.6611 19.1276 16.3811L19.5359 15.9728C20.4926 15.0045 20.1776 14.0245 18.8476 13.8028L18.4042 13.7328C18.0426 13.6628 17.6342 13.3595 17.4709 13.0328Z" fill="#343A40"/>
</svg>
