<svg width="28" height="28" viewBox="0 0 28 28" fill="none" xmlns="http://www.w3.org/2000/svg">
<path d="M24.5007 14C24.5007 14.2321 24.4085 14.4546 24.2444 14.6187C24.0803 14.7828 23.8577 14.875 23.6257 14.875H6.48772L12.8698 21.2559C12.951 21.3372 13.0155 21.4337 13.0595 21.54C13.1035 21.6462 13.1262 21.76 13.1262 21.875C13.1262 21.99 13.1035 22.1038 13.0595 22.21C13.0155 22.3163 12.951 22.4128 12.8698 22.4941C12.7885 22.5754 12.6919 22.6398 12.5857 22.6838C12.4795 22.7278 12.3657 22.7505 12.2507 22.7505C12.1357 22.7505 12.0219 22.7278 11.9157 22.6838C11.8094 22.6398 11.7129 22.5754 11.6316 22.4941L3.75663 14.6191C3.67527 14.5378 3.61073 14.4413 3.5667 14.3351C3.52266 14.2288 3.5 14.115 3.5 14C3.5 13.885 3.52266 13.7711 3.5667 13.6649C3.61073 13.5587 3.67527 13.4622 3.75663 13.3809L11.6316 5.50594C11.7958 5.34175 12.0185 5.24951 12.2507 5.24951C12.4829 5.24951 12.7056 5.34175 12.8698 5.50594C13.0339 5.67012 13.1262 5.8928 13.1262 6.125C13.1262 6.35719 13.0339 6.57988 12.8698 6.74406L6.48772 13.125H23.6257C23.8577 13.125 24.0803 13.2172 24.2444 13.3813C24.4085 13.5454 24.5007 13.7679 24.5007 14Z" fill="#212529"/>
</svg>
