<svg width="28" height="28" viewBox="0 0 28 28" fill="none" xmlns="http://www.w3.org/2000/svg">
<circle cx="14" cy="14" r="14" fill="#DEEEFF"/>
<path d="M18.4851 9.06418H17.1389V8.61547C17.1389 8.49646 17.0916 8.38233 17.0075 8.29817C16.9233 8.21402 16.8092 8.16675 16.6902 8.16675C16.5712 8.16675 16.4571 8.21402 16.3729 8.29817C16.2888 8.38233 16.2415 8.49646 16.2415 8.61547V9.06418H11.7543V8.61547C11.7543 8.49646 11.707 8.38233 11.6229 8.29817C11.5387 8.21402 11.4246 8.16675 11.3056 8.16675C11.1866 8.16675 11.0724 8.21402 10.9883 8.29817C10.9041 8.38233 10.8569 8.49646 10.8569 8.61547V9.06418H9.51072C9.2727 9.06418 9.04444 9.15874 8.87613 9.32704C8.70783 9.49534 8.61328 9.72361 8.61328 9.96162V18.936C8.61328 19.174 8.70783 19.4023 8.87613 19.5706C9.04444 19.7389 9.2727 19.8334 9.51072 19.8334H18.4851C18.7231 19.8334 18.9514 19.7389 19.1197 19.5706C19.288 19.4023 19.3825 19.174 19.3825 18.936V9.96162C19.3825 9.72361 19.288 9.49534 19.1197 9.32704C18.9514 9.15874 18.7231 9.06418 18.4851 9.06418ZM18.4851 11.7565H9.51072V9.96162H10.8569V10.4103C10.8569 10.5293 10.9041 10.6435 10.9883 10.7276C11.0724 10.8118 11.1866 10.8591 11.3056 10.8591C11.4246 10.8591 11.5387 10.8118 11.6229 10.7276C11.707 10.6435 11.7543 10.5293 11.7543 10.4103V9.96162H16.2415V10.4103C16.2415 10.5293 16.2888 10.6435 16.3729 10.7276C16.4571 10.8118 16.5712 10.8591 16.6902 10.8591C16.8092 10.8591 16.9233 10.8118 17.0075 10.7276C17.0916 10.6435 17.1389 10.5293 17.1389 10.4103V9.96162H18.4851V11.7565Z" fill="#1368EB"/>
</svg>
