<svg width="28" height="28" viewBox="0 0 28 28" fill="none" xmlns="http://www.w3.org/2000/svg">
<path d="M24.5 5.25H3.5C3.03587 5.25 2.59075 5.43437 2.26256 5.76256C1.93437 6.09075 1.75 6.53587 1.75 7V21C1.75 21.4641 1.93437 21.9092 2.26256 22.2374C2.59075 22.5656 3.03587 22.75 3.5 22.75H24.5C24.9641 22.75 25.4092 22.5656 25.7374 22.2374C26.0656 21.9092 26.25 21.4641 26.25 21V7C26.25 6.53587 26.0656 6.09075 25.7374 5.76256C25.4092 5.43437 24.9641 5.25 24.5 5.25ZM7.875 18.375C7.76006 18.3751 7.64623 18.3525 7.54001 18.3086C7.43379 18.2647 7.33726 18.2003 7.25594 18.1191L4.63094 15.4941C4.46675 15.3299 4.37451 15.1072 4.37451 14.875C4.37451 14.6428 4.46675 14.4201 4.63094 14.2559C4.79512 14.0918 5.01781 13.9995 5.25 13.9995C5.48219 13.9995 5.70488 14.0918 5.86906 14.2559L7.875 16.263L14.2559 9.88094C14.3372 9.79964 14.4337 9.73515 14.54 9.69116C14.6462 9.64716 14.76 9.62451 14.875 9.62451C14.99 9.62451 15.1038 9.64716 15.21 9.69116C15.3163 9.73515 15.4128 9.79964 15.4941 9.88094C15.5754 9.96223 15.6398 10.0587 15.6838 10.165C15.7278 10.2712 15.7505 10.385 15.7505 10.5C15.7505 10.615 15.7278 10.7288 15.6838 10.835C15.6398 10.9413 15.5754 11.0378 15.4941 11.1191L8.49406 18.1191C8.41274 18.2003 8.31621 18.2647 8.20999 18.3086C8.10377 18.3525 7.98994 18.3751 7.875 18.375ZM23.3691 11.1191L16.3691 18.1191C16.2878 18.2004 16.1913 18.265 16.0851 18.309C15.9788 18.353 15.865 18.3757 15.75 18.3757C15.635 18.3757 15.5212 18.353 15.4149 18.309C15.3087 18.265 15.2122 18.2004 15.1309 18.1191L13.3809 16.3691C13.2168 16.2049 13.1245 15.9822 13.1245 15.75C13.1245 15.5178 13.2168 15.2951 13.3809 15.1309C13.5451 14.9668 13.7678 14.8745 14 14.8745C14.2322 14.8745 14.4549 14.9668 14.6191 15.1309L15.75 16.263L22.1309 9.88094C22.2122 9.79964 22.3087 9.73515 22.415 9.69116C22.5212 9.64716 22.635 9.62451 22.75 9.62451C22.865 9.62451 22.9788 9.64716 23.085 9.69116C23.1913 9.73515 23.2878 9.79964 23.3691 9.88094C23.4504 9.96223 23.5148 10.0587 23.5588 10.165C23.6028 10.2712 23.6255 10.385 23.6255 10.5C23.6255 10.615 23.6028 10.7288 23.5588 10.835C23.5148 10.9413 23.4504 11.0378 23.3691 11.1191Z" fill="#212529"/>
</svg>
