<svg width="123" height="122" viewBox="0 0 123 122" fill="none" xmlns="http://www.w3.org/2000/svg">
<g clip-path="url(#clip0_715_9342)">
<path d="M103.222 23.176C102.834 23.3465 102.663 23.8115 102.849 24.1989C105.937 30.9405 104.479 38.984 99.234 44.2223C92.7324 50.7314 82.5068 51.2429 75.3846 45.4621C75.0897 45.8961 74.8104 46.33 74.5156 46.764C78.0845 49.6156 82.3671 51.0414 86.6188 51.0414C91.5842 51.0414 96.534 49.1196 100.336 45.3226C106.046 39.6194 107.613 30.8785 104.261 23.548C104.075 23.1605 103.61 22.9901 103.222 23.176Z" fill="black"/>
<path d="M67.8435 40.7043C68.1072 40.2859 68.34 39.8674 68.5727 39.4335L68.4797 39.3405C57.7575 31.0181 46.8181 28.6314 41.8993 33.5443C38.9976 36.4424 38.5787 41.4172 40.72 47.5389C42.4579 52.4828 45.7009 57.7211 49.9991 62.5874C50.387 62.262 50.7594 61.921 51.1318 61.5491C46.9888 56.8222 43.8544 51.7699 42.1941 47.0275C40.2545 41.4947 40.5338 37.1088 43.001 34.6446C47.2836 30.3672 57.6023 32.8623 67.5176 40.5648C67.6107 40.6423 67.7193 40.6888 67.8435 40.7043Z" fill="black"/>
<path d="M84.6955 75.1873C84.3852 74.8928 83.8886 74.8928 83.5938 75.1873C81.1266 77.6514 76.7354 77.9304 71.1959 75.9932C66.6339 74.3969 61.7927 71.4677 57.2307 67.5623C56.8738 67.9342 56.5169 68.2907 56.1445 68.6626C60.8772 72.7231 65.9201 75.8072 70.6838 77.4655C73.2596 78.3643 75.6492 78.8138 77.744 78.8138C80.6301 78.8138 83.0042 77.9614 84.6955 76.2876C84.9903 75.9932 84.9903 75.4972 84.6955 75.1873Z" fill="black"/>
<path d="M79.9316 35.032C81.7005 31.9014 84.2919 29.2978 87.4573 27.562L94.083 23.8735C94.595 23.5945 94.9519 23.1141 95.0916 22.5562C95.2312 21.9827 95.1226 21.4093 94.8123 20.9134C94.2226 20.061 93.0899 19.751 92.1589 20.216L84.1057 24.2299C78.892 26.8491 74.5783 31.1575 71.9715 36.3648C66.9751 46.33 60.3338 55.1639 52.1875 62.7114C52.6996 63.2848 53.2426 63.8428 53.8013 64.4007C54.5461 65.1446 55.3064 65.873 56.0822 66.5549C65.4544 57.2096 73.4145 46.6865 79.8385 35.2025L79.9316 35.032Z" fill="black"/>
<path d="M112.137 36.769C112.138 37.117 112.243 37.4568 112.438 37.7455C112.632 38.0341 112.908 38.2587 113.231 38.3909C113.553 38.523 113.907 38.5568 114.249 38.488C114.591 38.4191 114.904 38.2508 115.15 38.0042C115.396 37.7575 115.563 37.4437 115.63 37.1022C115.698 36.7607 115.662 36.407 115.529 36.0856C115.395 35.7642 115.169 35.4895 114.879 35.2963C114.589 35.1031 114.249 35 113.9 35C113.432 35.0014 112.983 35.1885 112.652 35.5202C112.321 35.8518 112.136 36.301 112.137 36.769Z" fill="#E75DCD"/>
<path d="M111.137 1.769C111.138 2.11704 111.243 2.45683 111.438 2.74548C111.632 3.03413 111.908 3.25871 112.231 3.39085C112.553 3.523 112.907 3.55679 113.249 3.48797C113.591 3.41915 113.904 3.2508 114.15 3.00416C114.396 2.75753 114.563 2.44367 114.63 2.10221C114.698 1.76074 114.662 1.40698 114.529 1.08558C114.395 0.764171 114.169 0.489532 113.879 0.296324C113.589 0.103117 113.249 3.26121e-06 112.9 0C112.432 0.00141361 111.983 0.188488 111.652 0.520152C111.321 0.851817 111.136 1.30097 111.137 1.769Z" fill="#1368EB"/>
<path d="M61.0742 20.769C61.0757 21.117 61.1805 21.4568 61.3751 21.7455C61.5698 22.0341 61.8458 22.2587 62.1682 22.3909C62.4905 22.523 62.8449 22.5568 63.1865 22.488C63.528 22.4191 63.8416 22.2508 64.0874 22.0042C64.3333 21.7575 64.5005 21.4437 64.5679 21.1022C64.6354 20.7607 64.6 20.407 64.4663 20.0856C64.3326 19.7642 64.1066 19.4895 63.8167 19.2963C63.5269 19.1031 63.1862 19 62.8378 19C62.6056 19.0001 62.3756 19.046 62.1612 19.135C61.9468 19.224 61.7521 19.3545 61.5883 19.5188C61.4244 19.6832 61.2947 19.8782 61.2065 20.0927C61.1183 20.3073 61.0733 20.5371 61.0742 20.769Z" fill="#37C084"/>
<path d="M44.2157 67.3993C43.7626 66.9467 43.1652 66.7205 42.5693 66.7205C41.9735 66.7205 41.3761 66.9467 40.923 67.3993C40.0153 68.3059 40.0153 69.7813 40.923 70.6879L47.5068 77.2637C48.413 78.1688 49.8902 78.1704 50.7995 77.2637C51.7056 76.3571 51.7056 74.8817 50.7995 73.9751L44.2157 67.3993Z" fill="black"/>
<path d="M18.2721 90.9316C16.8973 92.0939 16.0997 93.7227 16.0252 95.519C15.9507 97.3152 16.6102 99.006 17.8841 100.277C19.1565 101.548 20.8494 102.203 22.6478 102.133C24.4462 102.059 26.077 101.263 27.2408 99.8894L45.9076 77.8559L40.3339 72.2891L18.2721 90.9316Z" fill="black"/>
<path d="M51.0548 63.7498C50.5427 64.1837 50.0307 64.6331 49.5186 65.0826L46.5859 67.5778L50.6824 71.6692C52.141 70.3519 53.584 69.0036 54.9805 67.6242C54.2047 66.9423 53.4599 66.2294 52.7151 65.4855C52.141 64.9121 51.5824 64.3387 51.0548 63.7498Z" fill="black"/>
<path d="M84.0122 5.61692C82.4589 3.64884 81.1439 1.77414 79.706 0C78.714 2.11173 77.922 4.1229 77.2069 6.09098C75.2229 6.75179 73.2313 7.40543 71.0859 8.22426C72.9263 9.15458 74.6559 10.2645 76.2457 11.5355C76.1995 13.5898 76.2303 15.6441 76.4071 18C78.0575 16.3435 79.8332 14.8 81.7207 13.3815C83.7968 14.5092 85.8756 15.6393 87.9569 16.7717C87.7877 14.7103 86.6189 10.846 86.5343 10.3288C88.7105 8.28891 91.1558 5.33679 91.1097 5.02075C88.7279 4.98498 86.3488 5.18481 84.0122 5.61692Z" fill="#9061EE"/>
<path d="M100.134 75.0684C101.353 76.7122 102.575 78.3561 103.799 80C104.462 77.9016 104.996 75.7618 105.399 73.5933C107.213 72.287 109.133 71.1476 111.136 70.1881C109.036 69.3221 106.985 68.6543 104.934 67.9865C104.213 65.6998 103.638 63.3659 103.214 61C101.783 62.9227 100.409 64.8308 98.6893 66.893C96.5123 66.5503 94.3149 66.3663 92.1133 66.3426C93.6987 67.7379 95.0122 69.4369 95.9828 71.3476C95.1547 73.4092 94.5403 75.557 94.1502 77.7543C96.0299 76.6036 98.0401 75.7014 100.134 75.0684Z" fill="#37C084"/>
</g>
<defs>
<clipPath id="clip0_715_9342">
<rect width="122.149" height="122" fill="white"/>
</clipPath>
</defs>
</svg>
