<svg width="122" height="122" viewBox="0 0 122 122" fill="none" xmlns="http://www.w3.org/2000/svg">
<path d="M104.543 3.29584C103.003 2.16889 101.155 1.53942 99.2476 1.49176C93.4594 1.30343 82.4604 1.25158 69.7228 1.19134C57.4923 1.13263 43.6239 1.06705 32.5502 0.859652C31.1727 0.743286 29.7868 0.940292 28.4964 1.4359C27.2059 1.9315 26.0444 2.71284 25.099 3.72131C21.2987 7.60396 20.7474 13.033 20.7093 17.8314C20.6079 30.7245 23.5801 43.4895 26.454 55.8336C28.9321 66.4735 31.4865 77.4673 32.0477 88.4297C29.138 88.4226 26.2273 88.418 23.3155 88.416C20.2269 88.4125 17.1375 88.4074 14.0473 88.4008C13.919 88.4009 13.792 88.4269 13.6739 88.4772C13.5559 88.5276 13.4492 88.6012 13.3603 88.6938C13.2713 88.7863 13.202 88.8959 13.1564 89.0158C13.1108 89.1358 13.0899 89.2638 13.095 89.392C13.2383 92.9186 13.6066 96.6357 15.323 99.9366C17.2292 103.582 20.6201 105.884 23.9903 105.884C24.0994 105.884 24.2092 105.884 24.3182 105.876C24.412 105.876 24.5119 105.868 24.608 105.86C40.8492 105.29 58.0695 105.371 72.2307 105.46C72.2307 105.149 72.2246 104.839 72.223 104.519C72.2215 104.199 72.2291 103.876 72.2299 103.554C59.4771 103.478 44.2461 103.401 29.4658 103.804C30.8598 102.639 31.9574 101.161 32.6683 99.489C34.0668 96.2332 34.1339 92.7028 33.9959 89.3646V89.2372C33.5178 77.7753 30.8696 66.4011 28.3076 55.4005C25.4589 43.1647 22.5126 30.5125 22.6125 17.8459C22.6491 13.2053 23.1409 8.44348 26.4578 5.05416C27.1631 4.30695 28.0158 3.71429 28.962 3.31371C29.9082 2.91313 30.9272 2.71335 31.9546 2.72701C32.0314 2.74635 32.1103 2.75608 32.1895 2.75599L32.4182 2.76209C32.5852 2.78268 32.756 2.80936 32.8979 2.83071C39.0207 3.99429 39.8885 13.2488 40.0082 16.057C40.018 16.303 40.1227 16.5357 40.3002 16.7062C40.4777 16.8768 40.7144 16.972 40.9605 16.972H40.9651C52.2997 16.9149 63.6464 17.1291 74.6188 17.335C79.0886 17.4178 83.5619 17.4941 88.0388 17.5637C88.0396 19.3952 88.1529 21.2248 88.3781 23.0423C89.9862 37.8615 92.7785 53.5324 97.4328 73.8515L97.509 74.1717C98.729 79.4841 99.9849 84.9771 99.5045 90.3711C99.4289 91.2423 99.2998 92.1081 99.1179 92.9636C98.5889 95.3913 97.4013 97.6263 95.6855 99.4235C93.9698 101.221 91.7921 102.51 89.3915 103.151C89.3915 103.6 89.3869 104.046 89.3823 104.51C89.3823 104.711 89.3739 104.913 89.3717 105.113C92.2218 104.456 94.8264 103.002 96.882 100.921C98.9377 98.8396 100.36 96.2173 100.982 93.3593C101.18 92.4284 101.321 91.4862 101.403 90.538C101.91 84.8467 100.618 79.205 99.3673 73.7478L99.291 73.4268C94.6543 53.1832 91.8734 37.5809 90.2745 22.838C90.0582 21.0986 89.9485 19.3477 89.9458 17.595C96.6124 17.6918 102.156 17.7323 107.302 17.7185C107.506 17.7181 107.705 17.6517 107.869 17.5294C108.033 17.407 108.153 17.2351 108.212 17.0391C109.903 11.3997 108.532 6.26273 104.543 3.29584ZM30.9207 98.7372C29.645 101.698 27.125 103.747 24.4989 103.958H24.4821C24.4128 103.966 24.343 103.97 24.2732 103.97C21.1188 104.101 18.344 101.601 17.0104 99.0536C15.6219 96.3849 15.2109 93.3074 15.0447 90.3078C17.8009 90.3139 20.5571 90.3182 23.3132 90.3207C26.2519 90.3243 29.1896 90.3286 32.1262 90.3337C32.2025 93.174 32.0507 96.1081 30.9207 98.7372ZM106.574 15.8123C101.401 15.8252 95.8003 15.7764 89.0278 15.6735C84.2276 15.6049 79.4368 15.5225 74.6554 15.4265C64.8466 15.2442 54.7412 15.0559 44.6038 15.0559C43.6888 15.0559 42.7738 15.0574 41.8588 15.0605C41.6163 11.6551 40.67 5.90206 37.1366 2.84215C47.3 2.99465 59.1172 3.04726 69.7121 3.09759C82.4344 3.15783 93.4259 3.20968 99.1805 3.39649C100.701 3.43153 102.174 3.93008 103.403 4.82541C106.567 7.17696 107.727 11.2487 106.574 15.8123Z" fill="#ACB5BD"/>
<path d="M76.6772 58.972C76.5225 58.7723 76.295 58.642 76.0445 58.6097C75.7939 58.5774 75.5408 58.6457 75.3405 58.7997C74.7768 59.3178 74.0969 59.6931 73.358 59.8939C72.8548 59.9754 72.2974 59.7345 72.2143 59.4081C72.191 59.2949 72.178 59.1798 72.1754 59.0643C72.1649 58.7694 72.1149 58.4773 72.0267 58.1958C71.9174 57.8989 71.7443 57.6297 71.5195 57.4072C71.2947 57.1846 71.0238 57.0142 70.7259 56.9079C70.3112 56.7609 69.8702 56.7027 69.4316 56.7373C68.9929 56.7718 68.5665 56.8983 68.1799 57.1084C67.6214 57.439 67.111 57.8449 66.6633 58.3147C66.4084 58.5733 66.1361 58.8141 65.8482 59.0353C65.3594 59.3929 64.6884 59.4928 64.4703 59.2518C64.3875 59.0828 64.3416 58.898 64.3358 58.7099C64.33 58.5217 64.3645 58.3345 64.4368 58.1607C64.4871 57.983 64.5473 57.8069 64.6068 57.6315C64.8249 57.0773 64.9521 56.4916 64.9835 55.8968C65.016 55.303 64.8235 54.7187 64.4443 54.2605C64.0651 53.8023 63.5272 53.5039 62.9377 53.4248C62.5633 53.4395 62.1955 53.5278 61.8553 53.6848C61.5151 53.8418 61.2092 54.0644 60.9552 54.3398C58.4787 56.6009 56.252 59.1212 54.3131 61.8573C54.1668 62.0635 54.1083 62.3193 54.1507 62.5686C54.193 62.8178 54.3326 63.04 54.5388 63.1863C54.7449 63.3326 55.0008 63.3911 55.25 63.3487C55.4993 63.3064 55.7215 63.1668 55.8678 62.9606C57.7275 60.3346 59.8636 57.9156 62.2393 55.7451C62.5443 55.466 62.7395 55.328 62.8393 55.3311C62.9184 55.3978 62.9807 55.482 63.0215 55.577C63.0623 55.6721 63.0803 55.7753 63.0742 55.8785C63.0395 56.2713 62.9467 56.6567 62.7989 57.0223C62.7288 57.2282 62.6594 57.4348 62.5969 57.6529C62.4236 58.1299 62.3736 58.6429 62.4516 59.1444C62.5296 59.6459 62.733 60.1195 63.0429 60.5214C64.0677 61.6651 65.8299 61.4074 66.9675 60.5809C67.3263 60.3079 67.6659 60.0106 67.9839 59.691C68.3125 59.3422 68.6849 59.0375 69.0918 58.7844C69.2373 58.7071 69.3966 58.6594 69.5606 58.6439C69.7245 58.6285 69.8899 58.6457 70.0473 58.6944C70.1959 58.7509 70.2203 58.8172 70.2242 58.8271C70.2521 58.9488 70.2676 59.0729 70.2707 59.1977C70.2804 59.4273 70.3113 59.6555 70.3629 59.8794C70.5847 60.5438 71.042 61.104 71.6486 61.4543C72.2553 61.8045 72.9691 61.9205 73.6554 61.7803C74.7144 61.5415 75.6944 61.0351 76.5018 60.3094C76.6012 60.2332 76.6846 60.1381 76.7472 60.0296C76.8099 59.9211 76.8505 59.8013 76.8668 59.6771C76.8831 59.5528 76.8747 59.4266 76.8422 59.3057C76.8096 59.1847 76.7536 59.0713 76.6772 58.972Z" fill="#ACB5BD"/>
<path d="M87.4755 99.293C87.323 99.3167 87.1621 99.3388 86.9913 99.3563C86.8037 99.3746 86.6146 99.3899 86.4255 99.4051C85.9029 99.4122 85.3846 99.5004 84.8891 99.6667C84.5792 99.8432 84.288 100.051 84.0198 100.286C83.2595 100.993 82.3269 101.488 81.3153 101.722C81.0729 101.765 80.8272 101.787 80.581 101.787C79.189 101.717 77.8663 101.158 76.8447 100.21C76.6998 100.091 76.5565 99.9679 76.4116 99.8443C75.968 99.3996 75.4434 99.044 74.866 98.7967C74.6652 98.7503 74.4613 98.7177 74.256 98.6991L74.1882 98.6907C74.1775 99.3388 74.1653 99.9869 74.1569 100.635C74.1439 101.609 74.1386 102.588 74.1348 103.567C74.1348 103.885 74.1279 104.201 74.1279 104.52C74.1279 104.839 74.1348 105.154 74.1378 105.471C74.1493 106.652 74.1683 107.835 74.2065 109.031C74.2537 110.546 74.3262 112.073 74.4352 113.617C75.4188 112.778 76.4383 111.975 77.5203 111.212C78.6023 110.45 79.746 109.724 80.9775 109.026C81.4807 109.43 81.9809 109.839 82.4826 110.255C83.9901 111.501 85.5182 112.808 87.2223 114.227C87.291 112.607 87.3461 110.985 87.3878 109.361C87.4221 108.054 87.4412 106.746 87.4572 105.44C87.461 105.122 87.4709 104.806 87.474 104.489C87.477 104.173 87.474 103.846 87.474 103.525C87.4801 102.659 87.4869 101.794 87.4854 100.928C87.4885 100.383 87.4793 99.8375 87.4755 99.293Z" fill="#ACB5BD"/>
<path d="M90.2249 93.0977C90.3218 92.6595 90.493 92.2412 90.7312 91.8609C90.9593 91.5012 91.2123 91.158 91.4884 90.8338C91.5791 90.7225 91.6706 90.6127 91.7621 90.5013C91.9444 90.2802 92.1251 90.0568 92.2959 89.8265C92.6174 89.4453 92.8501 88.9973 92.9771 88.515C93.1041 88.0327 93.1222 87.5282 93.0302 87.0381C92.9903 86.9053 92.9359 86.7775 92.8678 86.6568C92.613 86.2712 92.29 85.9353 91.9146 85.6656C91.7337 85.522 91.5601 85.3693 91.3946 85.2081C91.2315 85.0486 91.0932 84.8656 90.9844 84.6652C90.7952 84.2605 90.7102 83.8148 90.7373 83.3689C90.7419 82.9152 90.7922 82.4486 90.7709 81.9964C90.7649 81.8472 90.7481 81.6986 90.7206 81.5519C90.6935 81.4054 90.6516 81.2621 90.5955 81.1241C90.4939 80.8837 90.3472 80.665 90.1632 80.4798C90.0722 80.3869 89.974 80.3012 89.8696 80.2236C89.5403 79.9865 89.175 79.8039 88.7876 79.683C88.5284 79.5988 88.2637 79.5325 87.9954 79.4847C86.9242 79.4094 85.8741 79.1489 84.892 78.7146C84.3923 78.3795 83.9319 77.9892 83.5195 77.551C83.3731 77.413 83.2237 77.2773 83.0673 77.1515C82.4232 76.6843 81.644 76.4407 80.8485 76.4576C80.7342 76.4609 80.6201 76.4703 80.5069 76.4858C80.4245 76.4942 80.3399 76.4942 80.2591 76.5087C80.1487 76.533 80.0398 76.5633 79.9327 76.5994C79.8565 76.6223 79.7802 76.6353 79.7108 76.6627C79.5945 76.7126 79.4815 76.7696 79.3723 76.8335C79.3174 76.864 79.2579 76.8854 79.2045 76.9189C79.0441 77.0208 78.8942 77.1383 78.7569 77.2697H78.7524C78.609 77.4031 78.471 77.5434 78.333 77.6845C77.9494 78.1293 77.4899 78.5023 76.9757 78.7863C76.6749 78.92 76.3561 79.0089 76.0295 79.0501C75.0382 79.1942 73.9707 79.0852 73.1709 79.6601C72.9854 79.7941 72.8229 79.9574 72.6897 80.1435C72.5556 80.3329 72.4447 80.5377 72.3596 80.7535C72.3153 80.8618 72.2764 80.9731 72.2421 81.0868C72.1418 81.4291 72.0724 81.7797 72.0347 82.1344C72.008 82.367 71.9882 82.6018 71.9661 82.8367C71.9352 83.3036 71.8637 83.7669 71.7526 84.2214C71.6933 84.4458 71.6116 84.6637 71.5086 84.8718C71.3339 85.2027 71.1216 85.5123 70.8757 85.7944C70.509 86.2336 70.0987 86.6492 69.7854 87.0907C69.4679 87.4969 69.2905 87.995 69.2798 88.5105C69.2798 88.5272 69.2737 88.5425 69.2745 88.5593C69.3447 89.1808 69.6118 89.7635 70.037 90.2223C70.2368 90.4762 70.451 90.727 70.647 90.9848C70.8473 91.2367 71.0193 91.5097 71.1601 91.7991C71.4296 92.5622 71.5813 93.3618 71.61 94.1705C71.6642 94.8889 71.9551 95.569 72.4373 96.1042C72.4948 96.1709 72.5572 96.2331 72.6241 96.2902C72.7372 96.3705 72.8583 96.4387 72.9856 96.4938C73.3804 96.645 73.7958 96.7357 74.2178 96.763C74.6107 96.7986 75.0006 96.8623 75.3844 96.9536C75.7688 97.0666 76.1335 97.2381 76.4656 97.4622C76.6906 97.6112 76.908 97.7716 77.1168 97.9426C77.434 98.1995 77.7413 98.4763 78.0531 98.7302C78.1507 98.8095 78.2511 98.8878 78.3543 98.9651C78.3856 98.9887 78.4184 99.0108 78.4504 99.0337C78.5228 99.0863 78.596 99.1382 78.6708 99.1862C78.7112 99.2129 78.7524 99.2388 78.7935 99.2625C78.8622 99.3052 78.9308 99.3471 79.0009 99.3875C79.0459 99.4127 79.0917 99.4371 79.1374 99.4638C79.206 99.5004 79.2754 99.5347 79.3456 99.5667C79.3929 99.5888 79.4394 99.6102 79.4874 99.63C79.5591 99.6597 79.6315 99.6857 79.7047 99.7108C79.7512 99.7268 79.7977 99.7436 79.8443 99.7573C79.9243 99.7802 80.0051 99.7977 80.086 99.8138C80.1271 99.8221 80.1676 99.8328 80.2087 99.8389C80.3305 99.8586 80.4537 99.8688 80.577 99.8694C80.7097 99.8694 80.8421 99.8577 80.9728 99.8343C81.4136 99.7414 81.8283 99.5515 82.1867 99.2785C82.4352 99.1031 82.6747 98.9064 82.9171 98.7112C83.0384 98.6143 83.1596 98.5175 83.2831 98.4245C83.5256 98.2363 83.7861 98.0725 84.0609 97.9357C84.9393 97.6198 85.8648 97.4548 86.7983 97.4477C87.0184 97.4259 87.2373 97.3928 87.454 97.3486C88.0945 97.2536 88.6923 96.9707 89.1719 96.5358C89.2184 96.49 89.2718 96.4534 89.3145 96.4031C89.7829 95.7211 90.0413 94.9169 90.0579 94.0897C90.106 93.761 90.1502 93.4248 90.2249 93.0977ZM76.4999 86.4875C76.841 85.493 77.4883 84.6321 78.3491 84.0285C79.2099 83.4248 80.2398 83.1093 81.291 83.1274C82.3422 83.1454 83.3606 83.4961 84.2001 84.129C85.0396 84.7619 85.657 85.6445 85.9637 86.6502C86.2704 87.6558 86.2505 88.7328 85.9071 89.7264C85.5636 90.7201 84.9141 91.5794 84.0518 92.181C83.1896 92.7825 82.1589 93.0954 81.1078 93.0748C80.0566 93.0541 79.039 92.701 78.2011 92.066C77.3835 91.4198 76.7826 90.5394 76.4787 89.5426C76.1749 88.5458 76.1818 87.4799 76.4999 86.4875Z" fill="#ACB5BD"/>
<path d="M44.2251 34.3623C45.623 34.7436 49.1813 36.4973 52.2313 40.4623" stroke="#ACB5BD" stroke-width="2" stroke-linecap="round"/>
<path d="M51.0876 32.8374C49.8837 35.1673 46.8256 40.1066 44.2251 41.2249" stroke="#ACB5BD" stroke-width="2" stroke-linecap="round"/>
<path d="M70.9126 34.3623C72.3105 34.7436 75.8688 36.4973 78.9188 40.4623" stroke="#ACB5BD" stroke-width="2" stroke-linecap="round"/>
<path d="M77.7751 32.8374C76.5712 35.1673 73.5131 40.1066 70.9126 41.2249" stroke="#ACB5BD" stroke-width="2" stroke-linecap="round"/>
<path d="M108 43.769C108.002 44.117 108.106 44.4568 108.301 44.7455C108.495 45.0341 108.771 45.2587 109.093 45.3909C109.415 45.523 109.768 45.5568 110.11 45.488C110.451 45.4191 110.764 45.2508 111.01 45.0042C111.255 44.7575 111.422 44.4437 111.489 44.1022C111.557 43.7607 111.521 43.407 111.388 43.0856C111.254 42.7642 111.029 42.4895 110.739 42.2963C110.45 42.1031 110.109 42 109.761 42C109.293 42.0014 108.845 42.1885 108.515 42.5202C108.185 42.8518 107.999 43.301 108 43.769Z" fill="#ACB5BD"/>
<path d="M104 26.769C104.002 27.117 104.106 27.4568 104.301 27.7455C104.495 28.0341 104.771 28.2587 105.093 28.3909C105.415 28.523 105.769 28.5568 106.11 28.488C106.451 28.4191 106.764 28.2508 107.01 28.0042C107.255 27.7575 107.422 27.4437 107.489 27.1022C107.557 26.7607 107.521 26.407 107.388 26.0856C107.254 25.7642 107.029 25.4895 106.739 25.2963C106.45 25.1031 106.109 25 105.761 25C105.529 25.0001 105.3 25.046 105.086 25.135C104.872 25.224 104.677 25.3545 104.513 25.5188C104.35 25.6832 104.22 25.8782 104.132 26.0927C104.044 26.3073 103.999 26.5371 104 26.769Z" fill="#ACB5BD"/>
<path d="M100 36V40" stroke="#ACB5BD" stroke-width="2" stroke-linecap="round"/>
<path d="M102 38L98 38" stroke="#ACB5BD" stroke-width="2" stroke-linecap="round"/>
<path d="M114 31V35" stroke="#ACB5BD" stroke-width="2" stroke-linecap="round"/>
<path d="M116 33L112 33" stroke="#ACB5BD" stroke-width="2" stroke-linecap="round"/>
<path d="M11 66.769C11.0015 67.117 11.1061 67.4568 11.3006 67.7455C11.495 68.0341 11.7706 68.2587 12.0926 68.3909C12.4146 68.523 12.7685 68.5568 13.1097 68.488C13.4508 68.4191 13.764 68.2508 14.0095 68.0042C14.2551 67.7575 14.4221 67.4437 14.4895 67.1022C14.5568 66.7607 14.5215 66.407 14.3879 66.0856C14.2544 65.7642 14.0287 65.4895 13.7392 65.2963C13.4497 65.1031 13.1094 65 12.7614 65C12.5295 65.0001 12.2998 65.046 12.0857 65.135C11.8715 65.224 11.6771 65.3545 11.5134 65.5188C11.3498 65.6832 11.2202 65.8782 11.1321 66.0927C11.044 66.3073 10.9991 66.5371 11 66.769Z" fill="#ACB5BD"/>
<path d="M22 74V78" stroke="#ACB5BD" stroke-width="2" stroke-linecap="round"/>
<path d="M24 76L20 76" stroke="#ACB5BD" stroke-width="2" stroke-linecap="round"/>
</svg>
