<svg width="28" height="28" viewBox="0 0 28 28" fill="none" xmlns="http://www.w3.org/2000/svg">
<path d="M24.8631 8.02482L19.9752 3.13795C19.8127 2.9754 19.6197 2.84646 19.4074 2.75849C19.195 2.67052 18.9674 2.62524 18.7376 2.62524C18.5077 2.62524 18.2801 2.67052 18.0678 2.75849C17.8555 2.84646 17.6625 2.9754 17.5 3.13795L4.01298 16.625C3.84977 16.7869 3.72037 16.9796 3.63231 17.192C3.54425 17.4044 3.49927 17.6321 3.50001 17.862V22.75C3.50001 23.2141 3.68438 23.6592 4.01257 23.9874C4.34076 24.3156 4.78588 24.5 5.25001 24.5H23.625C23.8571 24.5 24.0796 24.4078 24.2437 24.2437C24.4078 24.0796 24.5 23.857 24.5 23.625C24.5 23.3929 24.4078 23.1704 24.2437 23.0063C24.0796 22.8422 23.8571 22.75 23.625 22.75H12.6131L24.8631 10.5C25.0257 10.3375 25.1546 10.1445 25.2426 9.93219C25.3306 9.71984 25.3758 9.49225 25.3758 9.2624C25.3758 9.03255 25.3306 8.80496 25.2426 8.59261C25.1546 8.38027 25.0257 8.18733 24.8631 8.02482ZM21 11.8879L16.1131 6.99998L18.7381 4.37498L23.625 9.26295L21 11.8879Z" fill="#212529"/>
</svg>
