<svg width="28" height="28" viewBox="0 0 28 28" fill="none" xmlns="http://www.w3.org/2000/svg">
<path d="M21.875 6.125H3.5C2.80381 6.125 2.13613 6.40156 1.64384 6.89384C1.15156 7.38613 0.875 8.05381 0.875 8.75V19.25C0.875 19.9462 1.15156 20.6139 1.64384 21.1062C2.13613 21.5984 2.80381 21.875 3.5 21.875H21.875C22.5712 21.875 23.2389 21.5984 23.7312 21.1062C24.2234 20.6139 24.5 19.9462 24.5 19.25V8.75C24.5 8.05381 24.2234 7.38613 23.7312 6.89384C23.2389 6.40156 22.5712 6.125 21.875 6.125ZM22.75 19.25C22.75 19.4821 22.6578 19.7046 22.4937 19.8687C22.3296 20.0328 22.1071 20.125 21.875 20.125H3.5C3.26794 20.125 3.04538 20.0328 2.88128 19.8687C2.71719 19.7046 2.625 19.4821 2.625 19.25V8.75C2.625 8.51794 2.71719 8.29538 2.88128 8.13128C3.04538 7.96719 3.26794 7.875 3.5 7.875H21.875C22.1071 7.875 22.3296 7.96719 22.4937 8.13128C22.6578 8.29538 22.75 8.51794 22.75 8.75V19.25ZM28 10.5V17.5C28 17.7321 27.9078 17.9546 27.7437 18.1187C27.5796 18.2828 27.3571 18.375 27.125 18.375C26.8929 18.375 26.6704 18.2828 26.5063 18.1187C26.3422 17.9546 26.25 17.7321 26.25 17.5V10.5C26.25 10.2679 26.3422 10.0454 26.5063 9.88128C26.6704 9.71719 26.8929 9.625 27.125 9.625C27.3571 9.625 27.5796 9.71719 27.7437 9.88128C27.9078 10.0454 28 10.2679 28 10.5Z" fill="#212529"/>
<path d="M11.375 17.5V10.5C11.375 10.2679 11.2828 10.0454 11.1187 9.88128C10.9546 9.71719 10.7321 9.625 10.5 9.625C10.2679 9.625 10.0454 9.71719 9.88128 9.88128C9.71719 10.0454 9.625 10.2679 9.625 10.5V17.5C9.625 17.7321 9.71719 17.9546 9.88128 18.1187C10.0454 18.2828 10.2679 18.375 10.5 18.375C10.7321 18.375 10.9546 18.2828 11.1187 18.1187C11.2828 17.9546 11.375 17.7321 11.375 17.5Z" fill="#37C084"/>
<path d="M7 17.5V10.5C7 10.2679 6.90781 10.0454 6.74372 9.88128C6.57962 9.71719 6.35706 9.625 6.125 9.625C5.89294 9.625 5.67038 9.71719 5.50628 9.88128C5.34219 10.0454 5.25 10.2679 5.25 10.5V17.5C5.25 17.7321 5.34219 17.9546 5.50628 18.1187C5.67038 18.2828 5.89294 18.375 6.125 18.375C6.35706 18.375 6.57962 18.2828 6.74372 18.1187C6.90781 17.9546 7 17.7321 7 17.5Z" fill="#37C084"/>
<path d="M20.125 17.5V10.5C20.125 10.2679 20.0328 10.0454 19.8687 9.88128C19.7046 9.71719 19.4821 9.625 19.25 9.625C19.0179 9.625 18.7954 9.71719 18.6313 9.88128C18.4672 10.0454 18.375 10.2679 18.375 10.5V17.5C18.375 17.7321 18.4672 17.9546 18.6313 18.1187C18.7954 18.2828 19.0179 18.375 19.25 18.375C19.4821 18.375 19.7046 18.2828 19.8687 18.1187C20.0328 17.9546 20.125 17.7321 20.125 17.5Z" fill="#37C084"/>
<path d="M15.75 17.5V10.5C15.75 10.2679 15.6578 10.0454 15.4937 9.88128C15.3296 9.71719 15.1071 9.625 14.875 9.625C14.6429 9.625 14.4204 9.71719 14.2563 9.88128C14.0922 10.0454 14 10.2679 14 10.5V17.5C14 17.7321 14.0922 17.9546 14.2563 18.1187C14.4204 18.2828 14.6429 18.375 14.875 18.375C15.1071 18.375 15.3296 18.2828 15.4937 18.1187C15.6578 17.9546 15.75 17.7321 15.75 17.5Z" fill="#37C084"/>
</svg>
