<svg width="28" height="28" viewBox="0 0 28 28" fill="none" xmlns="http://www.w3.org/2000/svg">
<path d="M13.125 1.75V0.875C13.125 0.642936 13.2172 0.420376 13.3813 0.256282C13.5454 0.0921873 13.7679 0 14 0C14.2321 0 14.4546 0.0921873 14.6187 0.256282C14.7828 0.420376 14.875 0.642936 14.875 0.875V1.75C14.875 1.98206 14.7828 2.20462 14.6187 2.36872C14.4546 2.53281 14.2321 2.625 14 2.625C13.7679 2.625 13.5454 2.53281 13.3813 2.36872C13.2172 2.20462 13.125 1.98206 13.125 1.75ZM21.875 5.25C21.9899 5.25009 22.1038 5.22753 22.21 5.18362C22.3162 5.1397 22.4127 5.07529 22.4941 4.99406L23.3691 4.11906C23.5332 3.95488 23.6255 3.73219 23.6255 3.5C23.6255 3.26781 23.5332 3.04512 23.3691 2.88094C23.2049 2.71675 22.9822 2.62451 22.75 2.62451C22.5178 2.62451 22.2951 2.71675 22.1309 2.88094L21.2559 3.75594C21.1334 3.87831 21.05 4.03428 21.0162 4.20411C20.9823 4.37393 20.9997 4.54997 21.066 4.70994C21.1322 4.86991 21.2445 5.00662 21.3885 5.10276C21.5325 5.19889 21.7018 5.25014 21.875 5.25ZM5.50594 4.99406C5.58723 5.07536 5.68375 5.13985 5.78997 5.18384C5.89618 5.22784 6.01003 5.25049 6.125 5.25049C6.23997 5.25049 6.35382 5.22784 6.46003 5.18384C6.56625 5.13985 6.66277 5.07536 6.74406 4.99406C6.82536 4.91277 6.88985 4.81625 6.93384 4.71003C6.97784 4.60382 7.00049 4.48997 7.00049 4.375C7.00049 4.26003 6.97784 4.14618 6.93384 4.03997C6.88985 3.93375 6.82536 3.83723 6.74406 3.75594L5.86906 2.88094C5.70488 2.71675 5.48219 2.62451 5.25 2.62451C5.01781 2.62451 4.79512 2.71675 4.63094 2.88094C4.46675 3.04512 4.37451 3.26781 4.37451 3.5C4.37451 3.73219 4.46675 3.95488 4.63094 4.11906L5.50594 4.99406ZM25.375 19.25V21.875C25.375 22.3391 25.1906 22.7842 24.8624 23.1124C24.5342 23.4406 24.0891 23.625 23.625 23.625H4.375C3.91087 23.625 3.46575 23.4406 3.13756 23.1124C2.80937 22.7842 2.625 22.3391 2.625 21.875V19.25C2.625 18.7859 2.80937 18.3408 3.13756 18.0126C3.46575 17.6844 3.91087 17.5 4.375 17.5V14C4.37496 12.7298 4.62633 11.4722 5.11461 10.2997C5.60288 9.12711 6.31842 8.06279 7.21996 7.16806C8.1215 6.27333 9.19121 5.56589 10.3674 5.08652C11.5437 4.60715 12.8032 4.36533 14.0733 4.375C19.3397 4.41438 23.625 8.78172 23.625 14.1094V17.5C24.0891 17.5 24.5342 17.6844 24.8624 18.0126C25.1906 18.3408 25.375 18.7859 25.375 19.25ZM14.7306 9.61297C16.8077 9.96187 18.375 11.8475 18.375 14C18.375 14.2321 18.4672 14.4546 18.6313 14.6187C18.7954 14.7828 19.0179 14.875 19.25 14.875C19.4821 14.875 19.7046 14.7828 19.8687 14.6187C20.0328 14.4546 20.125 14.2321 20.125 14C20.125 11.0031 17.9298 8.37484 15.0194 7.88703C14.9056 7.8669 14.7889 7.86952 14.6761 7.89475C14.5633 7.91997 14.4566 7.96729 14.3622 8.03398C14.2678 8.10067 14.1875 8.18541 14.126 8.28329C14.0645 8.38118 14.0231 8.49028 14.004 8.60428C13.9849 8.71829 13.9886 8.83494 14.0149 8.9475C14.0412 9.06007 14.0895 9.16631 14.157 9.2601C14.2246 9.35389 14.3101 9.43336 14.4085 9.49393C14.507 9.55449 14.6164 9.59495 14.7306 9.61297ZM23.625 21.875V19.25H4.375V21.875H23.625Z" fill="#212529"/>
</svg>
