<svg width="28" height="28" viewBox="0 0 28 28" fill="none" xmlns="http://www.w3.org/2000/svg">
<path d="M24.5536 14.9279L16.6786 22.8029C16.432 23.0495 16.0976 23.188 15.7489 23.188C15.4002 23.188 15.0658 23.0495 14.8192 22.8029C14.5727 22.5564 14.4341 22.2219 14.4341 21.8732C14.4341 21.5245 14.5727 21.1901 14.8192 20.9436L20.4531 15.3118H4.375C4.0269 15.3118 3.69306 15.1736 3.44692 14.9274C3.20078 14.6813 3.0625 14.3474 3.0625 13.9993C3.0625 13.6512 3.20078 13.3174 3.44692 13.0713C3.69306 12.8251 4.0269 12.6868 4.375 12.6868H20.4531L14.8214 7.05184C14.5748 6.80527 14.4363 6.47085 14.4363 6.12215C14.4363 5.77345 14.5748 5.43903 14.8214 5.19246C15.068 4.94589 15.4024 4.80737 15.7511 4.80737C16.0998 4.80737 16.4342 4.94589 16.6808 5.19246L24.5558 13.0675C24.6782 13.1896 24.7752 13.3346 24.8414 13.4944C24.9075 13.6541 24.9415 13.8253 24.9413 13.9982C24.9411 14.171 24.9067 14.3422 24.8402 14.5017C24.7737 14.6613 24.6763 14.8061 24.5536 14.9279Z" fill="#212529"/>
</svg>
