<svg width="28" height="28" viewBox="0 0 28 28" fill="none" xmlns="http://www.w3.org/2000/svg">
<path d="M24.9966 9.47894L5.74 3.57269C5.47937 3.49667 5.20462 3.48233 4.93749 3.53082C4.67036 3.5793 4.41817 3.68927 4.20087 3.85203C3.98358 4.01479 3.80713 4.22588 3.68549 4.46859C3.56384 4.71131 3.50034 4.979 3.5 5.2505V21.0005C3.5 21.4646 3.68437 21.9097 4.01256 22.2379C4.34075 22.5661 4.78587 22.7505 5.25 22.7505C5.41734 22.7506 5.58383 22.7266 5.74438 22.6794L14.875 19.8772V21.0005C14.875 21.4646 15.0594 21.9097 15.3876 22.2379C15.7158 22.5661 16.1609 22.7505 16.625 22.7505H20.125C20.5891 22.7505 21.0342 22.5661 21.3624 22.2379C21.6906 21.9097 21.875 21.4646 21.875 21.0005V17.7302L24.9966 16.7732C25.3578 16.6646 25.6747 16.4428 25.9004 16.1406C26.126 15.8383 26.2486 15.4715 26.25 15.0942V11.1567C26.2484 10.7797 26.1257 10.4132 25.9 10.1111C25.6744 9.80903 25.3577 9.58743 24.9966 9.47894ZM20.125 21.0005H16.625V19.3402L20.125 18.2661V21.0005ZM24.5 15.0942H24.488L16.625 17.5092V8.74065L24.488 11.1567H24.5V15.0942Z" fill="black"/>
</svg>
