<svg width="28" height="28" viewBox="0 0 28 28" fill="none" xmlns="http://www.w3.org/2000/svg">
<path d="M23.625 5.25H19.25V4.375C19.25 3.67881 18.9734 3.01113 18.4812 2.51884C17.9889 2.02656 17.3212 1.75 16.625 1.75H11.375C10.6788 1.75 10.0111 2.02656 9.51884 2.51884C9.02656 3.01113 8.75 3.67881 8.75 4.375V5.25H4.375C4.14294 5.25 3.92038 5.34219 3.75628 5.50628C3.59219 5.67038 3.5 5.89294 3.5 6.125C3.5 6.35706 3.59219 6.57962 3.75628 6.74372C3.92038 6.90781 4.14294 7 4.375 7H5.25V22.75C5.25 23.2141 5.43437 23.6592 5.76256 23.9874C6.09075 24.3156 6.53587 24.5 7 24.5H21C21.4641 24.5 21.9092 24.3156 22.2374 23.9874C22.5656 23.6592 22.75 23.2141 22.75 22.75V7H23.625C23.8571 7 24.0796 6.90781 24.2437 6.74372C24.4078 6.57962 24.5 6.35706 24.5 6.125C24.5 5.89294 24.4078 5.67038 24.2437 5.50628C24.0796 5.34219 23.8571 5.25 23.625 5.25ZM12.25 18.375C12.25 18.6071 12.1578 18.8296 11.9937 18.9937C11.8296 19.1578 11.6071 19.25 11.375 19.25C11.1429 19.25 10.9204 19.1578 10.7563 18.9937C10.5922 18.8296 10.5 18.6071 10.5 18.375V11.375C10.5 11.1429 10.5922 10.9204 10.7563 10.7563C10.9204 10.5922 11.1429 10.5 11.375 10.5C11.6071 10.5 11.8296 10.5922 11.9937 10.7563C12.1578 10.9204 12.25 11.1429 12.25 11.375V18.375ZM17.5 18.375C17.5 18.6071 17.4078 18.8296 17.2437 18.9937C17.0796 19.1578 16.8571 19.25 16.625 19.25C16.3929 19.25 16.1704 19.1578 16.0063 18.9937C15.8422 18.8296 15.75 18.6071 15.75 18.375V11.375C15.75 11.1429 15.8422 10.9204 16.0063 10.7563C16.1704 10.5922 16.3929 10.5 16.625 10.5C16.8571 10.5 17.0796 10.5922 17.2437 10.7563C17.4078 10.9204 17.5 11.1429 17.5 11.375V18.375ZM17.5 5.25H10.5V4.375C10.5 4.14294 10.5922 3.92038 10.7563 3.75628C10.9204 3.59219 11.1429 3.5 11.375 3.5H16.625C16.8571 3.5 17.0796 3.59219 17.2437 3.75628C17.4078 3.92038 17.5 4.14294 17.5 4.375V5.25Z" fill="#212529"/>
</svg>
