<svg width="28" height="28" viewBox="0 0 28 28" fill="none" xmlns="http://www.w3.org/2000/svg">
<path d="M17.0625 14C17.0625 14.6057 16.8829 15.1978 16.5464 15.7014C16.2099 16.2051 15.7316 16.5976 15.172 16.8294C14.6124 17.0612 13.9966 17.1218 13.4025 17.0037C12.8085 16.8855 12.2628 16.5938 11.8345 16.1655C11.4062 15.7372 11.1145 15.1915 10.9963 14.5975C10.8782 14.0034 10.9388 13.3876 11.1706 12.828C11.4024 12.2684 11.7949 11.7901 12.2986 11.4536C12.8022 11.1171 13.3943 10.9375 14 10.9375C14.8122 10.9375 15.5912 11.2602 16.1655 11.8345C16.7398 12.4088 17.0625 13.1878 17.0625 14ZM5.25 10.9375C4.6443 10.9375 4.05219 11.1171 3.54857 11.4536C3.04494 11.7901 2.65241 12.2684 2.42062 12.828C2.18883 13.3876 2.12818 14.0034 2.24635 14.5975C2.36451 15.1915 2.65619 15.7372 3.08449 16.1655C3.51279 16.5938 4.05847 16.8855 4.65254 17.0037C5.2466 17.1218 5.86237 17.0612 6.42197 16.8294C6.98157 16.5976 7.45987 16.2051 7.79638 15.7014C8.13289 15.1978 8.3125 14.6057 8.3125 14C8.3125 13.1878 7.98985 12.4088 7.41552 11.8345C6.84119 11.2602 6.06223 10.9375 5.25 10.9375ZM22.75 10.9375C22.1443 10.9375 21.5522 11.1171 21.0486 11.4536C20.5449 11.7901 20.1524 12.2684 19.9206 12.828C19.6888 13.3876 19.6282 14.0034 19.7463 14.5975C19.8645 15.1915 20.1562 15.7372 20.5845 16.1655C21.0128 16.5938 21.5585 16.8855 22.1525 17.0037C22.7466 17.1218 23.3624 17.0612 23.922 16.8294C24.4816 16.5976 24.9599 16.2051 25.2964 15.7014C25.6329 15.1978 25.8125 14.6057 25.8125 14C25.8125 13.5978 25.7333 13.1996 25.5794 12.828C25.4255 12.4565 25.1999 12.1189 24.9155 11.8345C24.6311 11.5501 24.2935 11.3245 23.922 11.1706C23.5504 11.0167 23.1522 10.9375 22.75 10.9375Z" fill="#212529"/>
</svg>
