<svg width="21" height="21" viewBox="0 0 21 21" fill="none" xmlns="http://www.w3.org/2000/svg">
<path d="M11.4378 16.4375C11.4378 16.623 11.3828 16.8042 11.2798 16.9584C11.1768 17.1126 11.0304 17.2327 10.8591 17.3037C10.6878 17.3746 10.4993 17.3932 10.3174 17.357C10.1355 17.3208 9.96849 17.2316 9.83738 17.1004C9.70627 16.9693 9.61698 16.8023 9.58081 16.6204C9.54464 16.4386 9.5632 16.2501 9.63416 16.0788C9.70512 15.9075 9.82528 15.761 9.97945 15.658C10.1336 15.555 10.3149 15.5 10.5003 15.5C10.7489 15.5 10.9874 15.5988 11.1632 15.7746C11.339 15.9504 11.4378 16.1889 11.4378 16.4375ZM19.0222 7.29691C16.6194 5.32611 13.6079 4.24902 10.5003 4.24902C7.3927 4.24902 4.38116 5.32611 1.97842 7.29691C1.91497 7.34903 1.8624 7.41314 1.82372 7.48557C1.78504 7.558 1.761 7.63735 1.75299 7.71907C1.74497 7.80079 1.75313 7.8833 1.777 7.96186C1.80086 8.04043 1.83997 8.11353 1.89209 8.17699C1.94421 8.24044 2.00832 8.29301 2.08075 8.33169C2.15319 8.37037 2.23253 8.39441 2.31425 8.40242C2.4793 8.41861 2.64402 8.36858 2.77217 8.26332C4.95124 6.47637 7.68223 5.49979 10.5003 5.49979C13.3184 5.49979 16.0494 6.47637 18.2284 8.26332C18.3566 8.36858 18.5213 8.41861 18.6863 8.40242C18.8514 8.38623 19.0032 8.30514 19.1085 8.17699C19.2138 8.04884 19.2638 7.88412 19.2476 7.71907C19.2314 7.55402 19.1503 7.40217 19.0222 7.29691ZM16.5159 10.0914C14.8045 8.73646 12.6855 7.99921 10.5026 7.99921C8.31974 7.99921 6.20081 8.73646 4.48936 10.0914C4.35944 10.1944 4.27576 10.3448 4.25671 10.5095C4.23766 10.6741 4.28482 10.8397 4.3878 10.9696C4.49077 11.0995 4.64114 11.1832 4.80582 11.2022C4.9705 11.2213 5.13601 11.1741 5.26592 11.0711C6.75644 9.89131 8.60169 9.24938 10.5026 9.24938C12.4036 9.24938 14.2488 9.89131 15.7394 11.0711C15.8037 11.1221 15.8774 11.16 15.9564 11.1825C16.0353 11.2049 16.1179 11.2117 16.1995 11.2022C16.281 11.1928 16.3599 11.1674 16.4316 11.1275C16.5033 11.0876 16.5665 11.0339 16.6175 10.9696C16.6685 10.9052 16.7063 10.8315 16.7288 10.7526C16.7513 10.6736 16.758 10.591 16.7486 10.5095C16.7392 10.4279 16.7138 10.349 16.6738 10.2773C16.6339 10.2056 16.5803 10.1424 16.5159 10.0914ZM13.9956 12.8852C12.9804 12.1474 11.7576 11.75 10.5026 11.75C9.24764 11.75 8.02488 12.1474 7.00967 12.8852C6.87561 12.9828 6.78581 13.1296 6.76003 13.2934C6.73424 13.4572 6.77458 13.6246 6.87217 13.7586C6.96976 13.8927 7.11661 13.9825 7.28041 14.0083C7.44421 14.0341 7.61155 13.9937 7.74561 13.8961C8.54679 13.3135 9.51198 12.9996 10.5026 12.9996C11.4933 12.9996 12.4585 13.3135 13.2597 13.8961C13.3261 13.9445 13.4013 13.9792 13.4811 13.9985C13.5609 14.0177 13.6438 14.021 13.7249 14.0083C13.806 13.9955 13.8838 13.9669 13.9538 13.9241C14.0239 13.8812 14.0848 13.825 14.1331 13.7586C14.1814 13.6923 14.2162 13.617 14.2354 13.5372C14.2547 13.4574 14.258 13.3745 14.2453 13.2934C14.2325 13.2123 14.2039 13.1345 14.161 13.0645C14.1182 12.9944 14.062 12.9335 13.9956 12.8852Z" fill="#EEA90D"/>
</svg>
