<svg width="28" height="28" viewBox="0 0 28 28" fill="none" xmlns="http://www.w3.org/2000/svg">
<path d="M25.7922 8.28958C25.5081 8.57472 25.1704 8.80085 24.7985 8.95496C24.4267 9.10907 24.028 9.18812 23.6255 9.18755C23.4171 9.18719 23.2094 9.16593 23.0053 9.12411L19.6617 15.3333C20.0634 15.7349 20.3454 16.2402 20.4764 16.7929C20.6074 17.3455 20.5821 17.9237 20.4034 18.4628C20.2247 19.0019 19.8996 19.4807 19.4644 19.8456C19.0292 20.2106 18.5011 20.4474 17.9391 20.5295C17.3771 20.6115 16.8034 20.5357 16.282 20.3105C15.7606 20.0853 15.3121 19.7195 14.9867 19.254C14.6612 18.7886 14.4716 18.2418 14.439 17.6748C14.4064 17.1077 14.5322 16.5428 14.8022 16.0432L11.9519 13.1929C11.506 13.434 11.0074 13.561 10.5005 13.5625C10.2921 13.5622 10.0844 13.541 9.88031 13.4991L6.53672 19.7072C6.96499 20.1355 7.25663 20.6812 7.37477 21.2753C7.49291 21.8693 7.43225 22.4851 7.20045 23.0447C6.96864 23.6043 6.57612 24.0825 6.0725 24.419C5.56888 24.7555 4.97679 24.9351 4.37109 24.9351C3.7654 24.9351 3.17331 24.7555 2.66969 24.419C2.16608 24.0825 1.77355 23.6043 1.54174 23.0447C1.30994 22.4851 1.24928 21.8693 1.36742 21.2753C1.48556 20.6812 1.7772 20.1355 2.20547 19.7072C2.56449 19.3485 3.00703 19.0847 3.49329 18.9394C3.97955 18.7941 4.4943 18.7719 4.99125 18.8749L8.33484 12.6657C7.76145 12.0906 7.43946 11.3116 7.43946 10.4995C7.43946 9.6874 7.76145 8.90842 8.33484 8.33333C8.85498 7.81288 9.54512 7.49709 10.279 7.44375C11.0129 7.3904 11.7414 7.60306 12.3313 8.04283C12.9213 8.48259 13.3332 9.12005 13.4916 9.83859C13.6501 10.5571 13.5446 11.3087 13.1944 11.9558L16.0447 14.8061C16.6803 14.4643 17.416 14.357 18.1228 14.5032L21.4664 8.29395C21.182 8.00957 20.9564 7.67195 20.8025 7.30037C20.6485 6.92879 20.5693 6.53053 20.5693 6.12833C20.5693 5.72613 20.6485 5.32787 20.8025 4.95629C20.9564 4.58471 21.182 4.24709 21.4664 3.9627C22.0408 3.38835 22.8198 3.06567 23.632 3.06567C24.4443 3.06567 25.2233 3.38835 25.7977 3.9627C26.372 4.53706 26.6947 5.31606 26.6947 6.12833C26.6947 6.9406 26.372 7.7196 25.7977 8.29395L25.7922 8.28958Z" fill="#212529"/>
</svg>
