<svg width="28" height="28" viewBox="0 0 28 28" fill="none" xmlns="http://www.w3.org/2000/svg">
<path d="M26.6129 9.94326L12.5691 23.987C12.241 24.3149 11.796 24.4992 11.3321 24.4992C10.8682 24.4992 10.4232 24.3149 10.095 23.987L2.26161 16.112C1.934 15.7839 1.75 15.3392 1.75 14.8755C1.75 14.4119 1.934 13.9671 2.26161 13.639L4.44911 11.4515C4.77709 11.1249 5.2211 10.9416 5.68396 10.9416C6.14681 10.9416 6.59082 11.1249 6.9188 11.4515L11.3758 15.774L21.959 5.32107C22.287 4.99413 22.7312 4.81055 23.1943 4.81055C23.6575 4.81055 24.1017 4.99413 24.4297 5.32107L26.6118 7.45825C26.7759 7.62087 26.9061 7.81436 26.9951 8.02758C27.084 8.24079 27.1299 8.46951 27.13 8.70053C27.1301 8.93155 27.0844 9.1603 26.9957 9.3736C26.9069 9.58689 26.7768 9.7805 26.6129 9.94326Z" fill="#212529"/>
</svg>
