<svg width="28" height="28" viewBox="0 0 28 28" fill="none" xmlns="http://www.w3.org/2000/svg">
<path d="M15.7492 5.25C15.7492 4.55777 15.9544 3.88108 16.339 3.30551C16.7236 2.72993 17.2702 2.28133 17.9098 2.01642C18.5493 1.75152 19.253 1.6822 19.932 1.81725C20.6109 1.9523 21.2345 2.28564 21.724 2.77513C22.2135 3.26461 22.5469 3.88825 22.6819 4.56719C22.8169 5.24612 22.7476 5.94985 22.4827 6.58939C22.2178 7.22894 21.7692 7.77556 21.1936 8.16015C20.6181 8.54473 19.9414 8.75 19.2492 8.75C18.3209 8.75 17.4307 8.38125 16.7743 7.72488C16.1179 7.0685 15.7492 6.17826 15.7492 5.25ZM17.4992 17.5C17.2671 17.5 17.0445 17.5922 16.8804 17.7563C16.7163 17.9204 16.6242 18.1429 16.6242 18.375C16.6242 19.4134 16.3162 20.4284 15.7394 21.2917C15.1625 22.1551 14.3426 22.828 13.3832 23.2254C12.4239 23.6227 11.3683 23.7267 10.3499 23.5241C9.33153 23.3216 8.39607 22.8215 7.66184 22.0873C6.92762 21.3531 6.4276 20.4176 6.22503 19.3992C6.02246 18.3808 6.12642 17.3252 6.52378 16.3659C6.92114 15.4066 7.59405 14.5867 8.45741 14.0098C9.32077 13.4329 10.3358 13.125 11.3742 13.125C11.6062 13.125 11.8288 13.0328 11.9929 12.8687C12.157 12.7046 12.2492 12.4821 12.2492 12.25C12.2492 12.0179 12.157 11.7954 11.9929 11.6313C11.8288 11.4672 11.6062 11.375 11.3742 11.375C9.98968 11.375 8.6363 11.7855 7.48516 12.5547C6.33402 13.3239 5.43681 14.4171 4.907 15.6962C4.37718 16.9753 4.23856 18.3828 4.50866 19.7406C4.77875 21.0985 5.44544 22.3458 6.4244 23.3248C7.40337 24.3037 8.65065 24.9704 10.0085 25.2405C11.3664 25.5106 12.7739 25.372 14.0529 24.8422C15.332 24.3123 16.4253 23.4151 17.1944 22.264C17.9636 21.1128 18.3742 19.7595 18.3742 18.375C18.3742 18.1429 18.282 17.9204 18.1179 17.7563C17.9538 17.5922 17.7312 17.5 17.4992 17.5ZM21.8742 14H15.5107L17.3832 10.7428C17.4947 10.5489 17.5276 10.3197 17.4753 10.1023C17.4231 9.88482 17.2895 9.69565 17.1021 9.5736C15.2277 8.35505 13.0133 7.76659 10.7813 7.89387C8.54928 8.02115 6.41614 8.85753 4.69243 10.2813C4.5991 10.3528 4.52113 10.4424 4.46319 10.5447C4.40526 10.647 4.36854 10.76 4.35523 10.8768C4.34192 10.9936 4.3523 11.1119 4.38574 11.2247C4.41918 11.3374 4.475 11.4422 4.54987 11.5329C4.62473 11.6236 4.7171 11.6982 4.82146 11.7524C4.92582 11.8066 5.04003 11.8392 5.15727 11.8482C5.27451 11.8573 5.39237 11.8426 5.50381 11.8051C5.61525 11.7676 5.71798 11.708 5.80587 11.6298C7.13427 10.5357 8.75556 9.85701 10.4673 9.67864C12.1791 9.50027 13.9054 9.83007 15.4309 10.6269L13.2401 14.4375C13.1632 14.5706 13.1228 14.7216 13.1229 14.8753C13.1229 15.029 13.1635 15.18 13.2404 15.3131C13.3174 15.4461 13.428 15.5566 13.5612 15.6333C13.6944 15.71 13.8454 15.7502 13.9992 15.75H20.8067L19.2667 23.4533C19.2212 23.6807 19.268 23.9168 19.3965 24.1098C19.5251 24.3028 19.7251 24.4368 19.9524 24.4825C20.0089 24.4941 20.0665 24.5 20.1242 24.5C20.3261 24.4996 20.5218 24.4294 20.6779 24.3012C20.834 24.173 20.9409 23.9948 20.9806 23.7967L22.7306 15.0467C22.7559 14.9199 22.7529 14.789 22.7216 14.6635C22.6904 14.538 22.6317 14.421 22.5498 14.3209C22.4679 14.2208 22.3648 14.1401 22.248 14.0846C22.1312 14.0291 22.0035 14.0002 21.8742 14Z" fill="#212529"/>
<path d="M17.759 17.515L17.163 17.5515C14.2077 17.7322 11.8341 15.1493 12.2634 12.2197C7.53388 13.5853 6.68962 14.9796 6.31078 15.7372C5.93194 16.4949 4.57898 21.1492 9.39562 23.3681C13.2489 25.1432 16.41 22.7908 17.759 17.515Z" fill="#212529"/>
</svg>
