<svg width="28" height="28" viewBox="0 0 28 28" fill="none" xmlns="http://www.w3.org/2000/svg">
<path d="M24.2601 19.2434C23.653 18.1978 22.7507 15.2392 22.7507 11.375C22.7507 9.05436 21.8288 6.82876 20.1879 5.18782C18.5469 3.54687 16.3213 2.625 14.0007 2.625C11.68 2.625 9.45444 3.54687 7.8135 5.18782C6.17256 6.82876 5.25069 9.05436 5.25069 11.375C5.25069 15.2403 4.34725 18.1978 3.74022 19.2434C3.5852 19.5093 3.50302 19.8113 3.50196 20.119C3.50091 20.4267 3.58101 20.7293 3.7342 20.9962C3.88739 21.2631 4.10824 21.4848 4.37449 21.6391C4.64073 21.7934 4.94296 21.8748 5.25069 21.875H9.71428C9.91615 22.8628 10.453 23.7506 11.2341 24.3882C12.0151 25.0258 12.9924 25.374 14.0007 25.374C15.0089 25.374 15.9862 25.0258 16.7673 24.3882C17.5483 23.7506 18.0852 22.8628 18.2871 21.875H22.7507C23.0583 21.8746 23.3604 21.7931 23.6265 21.6387C23.8926 21.4843 24.1133 21.2625 24.2663 20.9957C24.4194 20.7288 24.4994 20.4263 24.4983 20.1187C24.4972 19.8111 24.415 19.5092 24.2601 19.2434ZM14.0007 23.625C13.458 23.6248 12.9287 23.4565 12.4856 23.1431C12.0426 22.8297 11.7075 22.3867 11.5266 21.875H16.4747C16.2938 22.3867 15.9588 22.8297 15.5157 23.1431C15.0727 23.4565 14.5434 23.6248 14.0007 23.625Z" fill="#212529"/>
</svg>
