<svg width="42" height="42" viewBox="0 0 42 42" fill="none" xmlns="http://www.w3.org/2000/svg">
<circle cx="21" cy="21" r="21" fill="#9061EE" fill-opacity="0.1"/>
<g clip-path="url(#clip0_1103_6064)">
<path d="M28.8825 18.4645L20.1052 27.2419C19.9001 27.4468 19.622 27.562 19.3321 27.562C19.0421 27.562 18.764 27.4468 18.5589 27.2419L13.663 22.32C13.4583 22.1149 13.3433 21.837 13.3433 21.5472C13.3433 21.2574 13.4583 20.9795 13.663 20.7744L15.0302 19.4072C15.2352 19.2031 15.5127 19.0885 15.802 19.0885C16.0913 19.0885 16.3688 19.2031 16.5738 19.4072L19.3594 22.1088L25.9739 15.5757C26.1789 15.3713 26.4565 15.2566 26.746 15.2566C27.0354 15.2566 27.3131 15.3713 27.5181 15.5757L28.8819 16.9114C28.9844 17.013 29.0658 17.134 29.1214 17.2672C29.177 17.4005 29.2057 17.5434 29.2057 17.6878C29.2058 17.8322 29.1773 17.9752 29.1218 18.1085C29.0663 18.2418 28.985 18.3628 28.8825 18.4645Z" fill="#9061EE"/>
</g>
<defs>
<clipPath id="clip0_1103_6064">
<rect width="17.5" height="17.5" fill="white" transform="translate(12.25 12.25)"/>
</clipPath>
</defs>
</svg>
