<svg width="28" height="28" viewBox="0 0 28 28" fill="none" xmlns="http://www.w3.org/2000/svg">
<path d="M13.1245 17.7122V24.8588C13.1249 24.9207 13.1122 24.982 13.0871 25.0387C13.0621 25.0953 13.0252 25.146 12.9791 25.1874C12.933 25.2287 12.8786 25.2598 12.8196 25.2786C12.7606 25.2974 12.6982 25.3034 12.6367 25.2963C10.6149 25.048 8.6964 24.2627 7.08071 23.0221C5.46503 21.7815 4.21109 20.1308 3.4492 18.2416C3.42643 18.1842 3.41608 18.1226 3.41883 18.0608C3.42158 17.9991 3.43738 17.9387 3.46517 17.8835C3.49297 17.8283 3.53213 17.7797 3.58009 17.7407C3.62805 17.7018 3.68372 17.6734 3.74342 17.6575L10.6439 15.8047C10.7322 15.7815 10.8256 15.7866 10.9109 15.8191C10.9962 15.8517 11.0692 15.9101 11.1197 15.9863C11.5375 16.5907 12.1336 17.0496 12.8248 17.2988C12.9118 17.3276 12.9875 17.3831 13.0412 17.4572C13.095 17.5314 13.1241 17.6206 13.1245 17.7122ZM14.0061 2.62502C13.8906 2.62416 13.7761 2.64615 13.6692 2.68974C13.5623 2.73332 13.4651 2.79764 13.3831 2.87897C13.3012 2.96031 13.2361 3.05706 13.1917 3.16365C13.1474 3.27024 13.1245 3.38456 13.1245 3.50002V9.62502C13.1228 9.85516 13.2124 10.0766 13.3738 10.2406C13.5352 10.4047 13.7552 10.498 13.9853 10.5C14.8117 10.4965 15.6127 10.7854 16.2464 11.3157C16.8802 11.846 17.3059 12.5835 17.4482 13.3975C17.5904 14.2116 17.44 15.0497 17.0236 15.7635C16.6073 16.4773 15.9517 17.0208 15.1731 17.2977C15.0862 17.3268 15.0106 17.3825 14.957 17.4568C14.9034 17.5312 14.8746 17.6205 14.8745 17.7122V24.8588C14.8741 24.9206 14.8868 24.9818 14.9118 25.0384C14.9368 25.095 14.9735 25.1456 15.0195 25.1869C15.0655 25.2283 15.1198 25.2594 15.1787 25.2782C15.2376 25.2971 15.2998 25.3032 15.3612 25.2963C18.2438 24.9553 20.887 23.5253 22.7495 21.2991C24.6121 19.0728 25.5531 16.2188 25.3799 13.3213C25.2067 10.4238 23.9324 7.70216 21.8179 5.71363C19.7034 3.7251 16.9087 2.62015 14.0061 2.62502ZM10.5061 13.7255C10.5468 13.2086 10.7018 12.7073 10.96 12.2577V12.25C11.0467 12.1003 11.087 11.9282 11.0759 11.7555C11.0648 11.5828 11.0028 11.4173 10.8976 11.2799C10.8241 11.1853 10.7327 11.1062 10.6286 11.0469L5.34248 7.99096C5.24289 7.93353 5.13295 7.89629 5.01895 7.88137C4.90496 7.86645 4.78914 7.87414 4.67811 7.90401C4.56709 7.93387 4.46304 7.98532 4.37191 8.05542C4.28078 8.12551 4.20436 8.21288 4.14702 8.31252C2.87401 10.5173 2.37648 13.085 2.73389 15.6056C2.74232 15.6672 2.76376 15.7262 2.79676 15.7788C2.82977 15.8314 2.8736 15.8764 2.92533 15.9107C2.97706 15.9451 3.03551 15.968 3.0968 15.978C3.15808 15.988 3.22079 15.9849 3.28077 15.9688L10.1955 14.1094C10.2811 14.0857 10.3574 14.0361 10.4138 13.9674C10.4702 13.8987 10.504 13.8142 10.5105 13.7255H10.5061Z" fill="#343A40"/>
</svg>
