<svg width="122" height="122" viewBox="0 0 122 122" fill="none" xmlns="http://www.w3.org/2000/svg">
<path d="M88.1693 76.8447C86.3203 78.6302 84.6712 80.6116 83.2512 82.7541C80.4539 82.8352 77.6547 82.6976 74.8789 82.3424C76.1218 84.5689 77.5782 86.6581 79.0345 88.7474C78.2339 90.8366 77.5782 93.1088 76.9148 95.3811C79.4387 94.2678 81.8253 93.1699 84.25 92.1786C85.71 94.2151 87.5229 95.9738 89.6028 97.3712C89.9078 95.1142 90.2204 93.086 90.655 91.0882C92.79 89.2582 94.8107 87.7561 96.6483 86.0557C94.5658 85.0637 92.3526 84.3731 90.0755 84.0046C89.7627 81.5436 89.1216 79.1355 88.1693 76.8447Z" fill="#37C084"/>
<path d="M37.9643 35.0448C36.3935 32.8412 34.9982 30.8053 33.6028 28.7771C32.9928 31.362 32.4514 33.6723 31.7804 36.0818C29.3389 36.2857 26.9289 36.7693 24.5977 37.523C26.2065 38.9565 27.945 40.2375 29.592 41.8158C29.1825 44.0352 29.0417 46.2957 29.1727 48.5487C31.0484 47.0085 32.8098 45.3234 34.6779 43.6153C36.1531 45.3649 38.0507 46.7087 40.1908 47.5194C40.6804 45.1559 40.8268 42.7342 40.6254 40.329C41.914 38.3312 43.1976 36.336 44.476 34.3433C42.2844 34.2993 40.0962 34.535 37.9643 35.0448Z" fill="#E75DCD"/>
<path d="M75.1821 64.0565C72.6374 60.1331 69.8464 56.3751 66.8259 52.8051C66.8198 52.7982 66.819 52.789 66.8129 52.7822C65.1484 50.8165 63.416 48.9148 61.6638 47.1328C61.5007 46.9664 61.2822 46.8657 61.0497 46.8497C60.8173 46.8336 60.587 46.9035 60.4026 47.0459C58.5101 48.5023 56.6262 49.9614 54.7509 51.4234C51.5485 53.902 48.3521 56.3913 45.1618 58.8913C42.0416 61.3313 38.9288 63.7881 35.8234 66.2617C32.5447 68.8648 29.5351 71.2781 26.6223 73.6396C24.164 75.6252 21.7136 77.6252 19.2711 79.6397C19.1018 79.7808 18.9865 79.9761 18.9448 80.1925C18.9031 80.4089 18.9376 80.633 19.0423 80.8269C20.4495 83.4399 22.0392 85.9505 23.7996 88.3398C20.9306 89.5769 18.6203 91.831 17.313 94.6686C16.722 96.0902 16.2701 97.5656 15.9633 99.0743C15.6981 100.357 15.3296 101.616 14.8615 102.839C14.0053 104.823 12.6198 106.533 10.8568 107.783C9.09372 109.033 7.02094 109.774 4.86515 109.925C4.61237 109.932 4.37287 110.04 4.19934 110.224C4.02582 110.407 3.93248 110.653 3.93986 110.906C3.94724 111.158 4.05474 111.398 4.2387 111.571C4.42267 111.745 4.66803 111.838 4.92082 111.831H4.978C7.48939 111.655 9.90397 110.791 11.9575 109.335C14.0111 107.879 15.6246 105.886 16.6214 103.574C17.1301 102.256 17.5304 100.898 17.8185 99.515C18.0979 98.1257 18.5103 96.7666 19.0499 95.4563C20.2328 92.9046 22.3706 90.9196 25.0028 89.9289C25.7882 90.9285 26.5987 91.9045 27.4298 92.8195C29.069 94.644 30.8298 96.3554 32.7002 97.942C32.8609 98.0784 33.0622 98.1577 33.2728 98.1675C33.4833 98.1773 33.6911 98.117 33.8638 97.9961C35.5787 96.7944 37.1746 95.656 38.7392 94.5191C41.9257 92.2225 45.1816 89.8038 48.4131 87.328C51.4631 85.0001 54.6221 82.5182 57.7971 79.9546C57.8048 79.9478 57.8086 79.9379 57.8162 79.9318C61.1659 77.2188 64.2021 74.6934 67.0996 72.2084C69.7013 69.988 72.3609 67.6586 75.0159 65.2864C75.1859 65.135 75.2962 64.9278 75.3266 64.7022C75.3571 64.4766 75.3059 64.2476 75.1821 64.0565ZM37.6191 92.9705C36.208 93.9958 34.793 95.0071 33.3743 96.0045C31.7749 94.6082 30.2616 93.1163 28.8427 91.537C28.5774 91.245 28.3189 90.9369 28.0581 90.635C27.7999 85.6111 27.5416 80.5867 27.2834 75.5619C27.4634 75.4155 27.6426 75.2675 27.8225 75.1219C30.5759 72.8946 33.4215 70.6071 36.4929 68.1671C37.0297 76.3198 37.5667 84.4704 38.1041 92.619C37.9424 92.7341 37.7792 92.8538 37.6176 92.9705H37.6191ZM47.7451 85.4317C47.1097 77.2109 46.4743 68.9957 45.8389 60.7861C46.0058 60.6558 46.1713 60.5231 46.3383 60.3919C49.3563 58.0251 52.3808 55.669 55.412 53.3236C55.9773 61.5652 56.5443 69.803 57.1132 78.0369C56.9378 78.1788 56.7716 78.316 56.5947 78.4586C56.5863 78.4655 56.5832 78.4746 56.5756 78.4815C53.5904 80.8925 50.6243 83.2258 47.7436 85.4317H47.7451ZM66.4546 70.248C66.3448 65.1489 66.2329 60.0483 66.1191 54.9461C68.6292 57.9703 70.9711 61.1303 73.1341 64.4118C70.8961 66.4073 68.6574 68.3601 66.4546 70.248Z" fill="#212529"/>
<path d="M105.818 25.0404C106.801 26.9161 107.8 28.7537 108.929 30.5075C109.813 28.5174 110.667 26.6264 111.514 24.7277C113.326 23.9001 115.184 23.177 117.08 22.5622C115.624 21.0095 113.79 19.8613 111.758 19.2301C111.605 16.386 111.544 14.0527 111.483 11.7195C109.401 13.4427 107.732 15.0897 106.054 16.7367C103.686 16.2825 101.288 16.0047 98.8789 15.9056C99.753 17.9941 100.831 19.9913 102.097 21.8684C101.048 23.6013 100.106 25.3965 99.2754 27.244C101.504 26.66 103.69 25.9237 105.818 25.0404Z" fill="#9061EE"/>
<path d="M91.7838 42.1253C91.8698 42.2617 91.9889 42.3741 92.1301 42.452C92.2713 42.5299 92.43 42.5707 92.5913 42.5706C92.7708 42.5711 92.9467 42.5203 93.0983 42.4242C96.5155 40.3345 100.436 39.211 104.441 39.1737C108.446 39.1364 112.387 40.1865 115.842 42.2122C115.949 42.2789 116.069 42.3237 116.193 42.3439C116.318 42.3641 116.445 42.3593 116.568 42.3298C116.691 42.3004 116.807 42.2468 116.908 42.1723C117.01 42.0977 117.096 42.0037 117.162 41.8956C117.227 41.7875 117.27 41.6676 117.289 41.5427C117.307 41.4178 117.301 41.2905 117.269 41.1681C117.238 41.0458 117.183 40.9308 117.107 40.83C117.031 40.7291 116.936 40.6443 116.827 40.5805C113.068 38.3766 108.781 37.2339 104.424 37.2742C100.066 37.3145 95.8013 38.5362 92.0834 40.8092C91.9772 40.8759 91.8852 40.9628 91.8126 41.065C91.74 41.1673 91.6883 41.2828 91.6605 41.4051C91.6327 41.5273 91.6292 41.6539 91.6504 41.7775C91.6715 41.9011 91.7169 42.0193 91.7838 42.1253Z" fill="#212529"/>
<path d="M87.4891 29.8831C87.7299 29.9597 87.9912 29.9376 88.2157 29.8217C88.4402 29.7057 88.6094 29.5054 88.6862 29.2647C90.5467 23.3851 91.2905 17.2093 90.8792 11.0562C90.8593 10.806 90.7416 10.5737 90.5515 10.4098C90.3614 10.2458 90.1143 10.1635 89.8639 10.1807C89.6134 10.1979 89.3799 10.3131 89.214 10.5015C89.048 10.6898 88.963 10.936 88.9775 11.1866C89.3723 17.0988 88.6575 23.0328 86.87 28.6821C86.8316 28.8016 86.8171 28.9275 86.8275 29.0526C86.8378 29.1777 86.8727 29.2995 86.9303 29.4111C86.9878 29.5227 87.0668 29.6218 87.1627 29.7028C87.2586 29.7838 87.3695 29.845 87.4891 29.8831Z" fill="#E75DCD"/>
<path d="M78.9534 46.7508C79.1298 46.9319 79.3709 47.0355 79.6236 47.0389C79.8764 47.0424 80.1202 46.9453 80.3015 46.7691C83.24 43.9053 85.4226 40.3575 86.6539 36.4433C86.7295 36.2021 86.7062 35.9406 86.5891 35.7166C86.472 35.4925 86.2706 35.3241 86.0294 35.2485C85.7881 35.1729 85.5267 35.1962 85.3026 35.3133C85.0785 35.4304 84.9102 35.6317 84.8345 35.873C83.6983 39.4859 81.6839 42.7607 78.9717 45.4042C78.7907 45.5804 78.6871 45.8212 78.6837 46.0737C78.6802 46.3262 78.7773 46.5698 78.9534 46.7508Z" fill="#E75DCD"/>
<path d="M57.1953 36.8977C57.1968 37.2457 57.3014 37.5855 57.4959 37.8741C57.6903 38.1628 57.9659 38.3874 58.2879 38.5195C58.6099 38.6517 58.9638 38.6855 59.305 38.6166C59.6461 38.5478 59.9593 38.3795 60.2048 38.1328C60.4504 37.8862 60.6174 37.5723 60.6848 37.2309C60.7521 36.8894 60.7168 36.5356 60.5832 36.2142C60.4497 35.8928 60.2239 35.6182 59.9345 35.425C59.645 35.2318 59.3047 35.1287 58.9567 35.1287C58.4887 35.1301 58.0403 35.3172 57.7101 35.6488C57.3798 35.9805 57.1947 36.4296 57.1953 36.8977Z" fill="#1368EB"/>
<path d="M68.5188 12.5975C67.0206 12.6818 65.5491 13.0309 64.1726 13.6284C62.9313 13.0034 61.5969 12.5837 60.2213 12.3856C57.2507 11.9823 54.2269 12.4564 51.5222 13.7493C48.8174 15.0423 46.5497 17.0978 44.998 19.6629C44.9347 19.7708 44.8933 19.8902 44.8762 20.0142C44.859 20.1382 44.8665 20.2644 44.8981 20.3855C44.9298 20.5066 44.985 20.6202 45.0606 20.72C45.1363 20.8197 45.2308 20.9036 45.3388 20.9667C45.4468 21.0301 45.5661 21.0715 45.6901 21.0887C45.814 21.1059 45.9402 21.0985 46.0613 21.0669C46.1824 21.0354 46.296 20.9802 46.3958 20.9047C46.4956 20.8291 46.5795 20.7347 46.6427 20.6267C47.9985 18.3862 49.9797 16.591 52.3425 15.4618C54.7052 14.3326 57.3466 13.9188 59.9415 14.2712C60.6834 14.3803 61.4128 14.5619 62.1192 14.8134C60.4437 16.0423 59.3113 17.8741 58.9609 19.9221C58.7807 21.0673 58.9175 22.24 59.3563 23.313C59.7952 24.3861 60.5194 25.3185 61.4505 26.0092C62.3448 26.6217 63.4043 26.9477 64.4883 26.944C65.1497 26.9538 65.8064 26.8312 66.4196 26.5833C67.0329 26.3354 67.5903 25.9673 68.0591 25.5006C68.6602 24.8269 69.0997 24.0249 69.3442 23.1558C69.5886 22.2866 69.6315 21.3731 69.4697 20.4848C69.0926 18.2926 67.9283 16.3134 66.1955 14.9186C66.9939 14.6938 67.8138 14.5542 68.6416 14.5023C72.3374 14.2628 75.7946 15.6636 77.646 18.1546C79.7733 21.0041 79.6857 24.9844 79.2365 27.8209C78.1993 34.3639 74.9327 40.3475 69.9897 44.7583C69.8932 44.8407 69.8142 44.9416 69.7572 45.0549C69.7002 45.1683 69.6665 45.2919 69.6579 45.4185C69.6493 45.5451 69.6661 45.6721 69.7073 45.7922C69.7484 45.9122 69.8132 46.0228 69.8976 46.1175C69.9821 46.2122 70.0847 46.289 70.1992 46.3435C70.3138 46.3981 70.4381 46.4292 70.5649 46.435C70.6916 46.4409 70.8183 46.4214 70.9374 46.3776C71.0565 46.3339 71.1657 46.2668 71.2585 46.1803C76.5295 41.4768 80.0133 35.0963 81.1199 28.119C81.8451 23.531 81.1725 19.6918 79.174 17.0162C76.9437 14.0112 72.8628 12.3177 68.5188 12.5975ZM67.5848 20.7647C67.7029 21.3631 67.6838 21.9805 67.5289 22.5705C67.374 23.1605 67.0873 23.7076 66.6904 24.1708C66.127 24.6729 65.4118 24.972 64.6587 25.0205C63.9056 25.069 63.1579 24.8641 62.5347 24.4384C61.8943 23.9528 61.3988 23.3014 61.1016 22.5546C60.8045 21.8078 60.7171 20.9941 60.8489 20.2012C61.0042 19.3668 61.327 18.5725 61.7979 17.8664C62.2688 17.1603 62.8779 16.5569 63.5885 16.0928C63.7677 15.9724 63.9454 15.8641 64.1223 15.7627C64.4048 15.9388 64.6762 16.1321 64.9351 16.3414C66.3326 17.4395 67.276 19.0144 67.5848 20.7647Z" fill="#212529"/>
<path d="M106.222 76.8448C105.872 76.8425 105.53 76.944 105.239 77.1364C104.947 77.3288 104.719 77.6035 104.583 77.9256C104.448 78.2477 104.411 78.6028 104.478 78.9459C104.544 79.2889 104.711 79.6045 104.957 79.8527C105.203 80.1008 105.517 80.2704 105.86 80.3399C106.202 80.4093 106.557 80.3756 106.881 80.2429C107.204 80.1102 107.481 79.8846 107.676 79.5946C107.87 79.3046 107.975 78.9632 107.976 78.6138C107.977 78.1468 107.793 77.6983 107.465 77.3667C107.136 77.0351 106.689 76.8474 106.222 76.8448Z" fill="#9061EE"/>
<path d="M109.258 48.5481C109.259 48.8961 109.364 49.2359 109.558 49.5245C109.753 49.8132 110.028 50.0378 110.35 50.1699C110.672 50.3021 111.026 50.3358 111.367 50.267C111.709 50.1982 112.022 50.0299 112.267 49.7832C112.513 49.5366 112.68 49.2227 112.747 48.8813C112.815 48.5398 112.779 48.186 112.646 47.8646C112.512 47.5432 112.286 47.2686 111.997 47.0754C111.707 46.8822 111.367 46.7791 111.019 46.7791C110.787 46.7792 110.558 46.825 110.344 46.9141C110.129 47.0031 109.935 47.1335 109.771 47.2979C109.608 47.4622 109.478 47.6572 109.39 47.8718C109.302 48.0863 109.257 48.3161 109.258 48.5481Z" fill="#37C084"/>
<path d="M104.361 57.1871C103.988 56.4133 103.528 55.6849 102.989 55.0162C101.534 53.3108 99.6976 51.9721 97.6291 51.1082C95.5606 50.2444 93.3177 49.8798 91.0821 50.044C86.6537 50.4331 82.5244 52.4421 79.4852 55.6864C79.3916 55.7751 79.317 55.8818 79.2658 56.0001C79.2146 56.1185 79.188 56.2459 79.1875 56.3748C79.187 56.5038 79.2127 56.6314 79.2629 56.7501C79.3132 56.8689 79.387 56.9761 79.48 57.0655C79.5729 57.1548 79.683 57.2244 79.8035 57.27C79.9241 57.3156 80.0527 57.3363 80.1815 57.3307C80.3103 57.3252 80.4366 57.2936 80.5529 57.2378C80.6691 57.1821 80.7728 57.1033 80.8577 57.0063C83.5661 54.1037 87.2495 52.3013 91.2033 51.9441C93.1347 51.7991 95.073 52.1099 96.8621 52.8516C98.6512 53.5933 100.241 54.7451 101.503 56.2141C101.755 56.5266 101.986 56.8549 102.196 57.197C101.684 57.2313 101.165 57.2862 100.645 57.3632C99.1898 57.5276 97.7899 58.0136 96.5462 58.786C95.8661 59.2086 95.2875 59.7758 94.8513 60.4472C94.4151 61.1186 94.132 61.8778 94.0223 62.671C93.9633 63.3568 94.0581 64.0471 94.2998 64.6916C94.5414 65.3361 94.9239 65.9186 95.4192 66.3965C96.4207 67.4258 97.7897 68.0157 99.2256 68.0367C99.3781 68.0367 99.5276 68.0295 99.674 68.0153C102.358 67.7584 104.749 65.3694 105.24 62.4529C105.405 61.3523 105.348 60.2299 105.071 59.152C109.086 59.5074 112.861 61.2194 115.774 64.0061C115.955 64.1823 116.199 64.2793 116.452 64.2758C116.705 64.2722 116.946 64.1683 117.122 63.987C117.298 63.8057 117.395 63.5618 117.392 63.309C117.388 63.0562 117.284 62.8152 117.103 62.6389C113.656 59.3385 109.128 57.4013 104.361 57.1871ZM103.356 62.1433C103.217 63.1299 102.768 64.0466 102.074 64.7611C101.379 65.4755 100.475 65.9505 99.4932 66.1175C98.9906 66.1468 98.4876 66.0672 98.0186 65.8841C97.5495 65.7011 97.1256 65.4189 96.7757 65.0568C96.4806 64.7784 96.2508 64.4381 96.1026 64.0605C95.9545 63.6828 95.8916 63.277 95.9186 62.8723C96.0032 62.3594 96.1973 61.8709 96.4877 61.4398C96.7781 61.0087 97.158 60.6453 97.6015 60.3743C98.6138 59.7605 99.7488 59.3767 100.926 59.2504C101.637 59.144 102.354 59.0833 103.073 59.0689C103.409 60.0569 103.506 61.1106 103.356 62.1433Z" fill="#1368EB"/>
</svg>
