<svg width="28" height="28" viewBox="0 0 28 28" fill="none" xmlns="http://www.w3.org/2000/svg">
<path d="M15.6822 1.95241C15.5743 1.86273 15.4465 1.8003 15.3094 1.77038C15.1724 1.74046 15.0301 1.74393 14.8947 1.78049C14.7593 1.81706 14.6346 1.88564 14.5313 1.98048C14.4279 2.07531 14.3489 2.1936 14.3008 2.32538L11.8945 8.93272L9.25203 6.37225C9.16329 6.28618 9.05731 6.21989 8.94109 6.17775C8.82486 6.13561 8.70103 6.11858 8.57774 6.12778C8.45445 6.13697 8.33452 6.17219 8.22583 6.23111C8.11714 6.29003 8.02218 6.37131 7.94719 6.4696C5.57813 9.57366 4.375 12.6963 4.375 15.7501C4.375 18.3028 5.38906 20.7509 7.1941 22.556C8.99913 24.361 11.4473 25.3751 14 25.3751C16.5527 25.3751 19.0009 24.361 20.8059 22.556C22.6109 20.7509 23.625 18.3028 23.625 15.7501C23.625 9.24772 18.0698 3.93757 15.6822 1.95241ZM20.113 16.7716C19.8861 18.039 19.2763 19.2064 18.3659 20.1166C17.4554 21.0269 16.2879 21.6364 15.0205 21.863C14.9724 21.8713 14.9237 21.8753 14.875 21.8751C14.6555 21.875 14.4441 21.7925 14.2826 21.6438C14.1211 21.4952 14.0214 21.2912 14.0032 21.0725C13.9851 20.8538 14.0498 20.6362 14.1845 20.4629C14.3192 20.2897 14.5142 20.1734 14.7306 20.1371C16.543 19.8319 18.0808 18.2941 18.3881 16.4785C18.427 16.2496 18.5552 16.0456 18.7445 15.9112C18.9338 15.7769 19.1688 15.7232 19.3977 15.7621C19.6265 15.801 19.8306 15.9292 19.9649 16.1185C20.0993 16.3078 20.1529 16.5428 20.1141 16.7716H20.113Z" fill="#212529"/>
</svg>
