<svg width="28" height="28" viewBox="0 0 28 28" fill="none" xmlns="http://www.w3.org/2000/svg">
<path d="M23.625 4.375H4.375C3.91087 4.375 3.46575 4.55937 3.13756 4.88756C2.80937 5.21575 2.625 5.66087 2.625 6.125V23.625C2.62508 23.7741 2.66328 23.9208 2.73596 24.051C2.80865 24.1812 2.91341 24.2907 3.0403 24.369C3.1672 24.4474 3.31201 24.492 3.461 24.4987C3.60998 24.5053 3.75819 24.4738 3.89156 24.407L7 22.8528L10.1084 24.407C10.23 24.4679 10.3641 24.4995 10.5 24.4995C10.6359 24.4995 10.77 24.4679 10.8916 24.407L14 22.8528L17.1084 24.407C17.23 24.4679 17.3641 24.4995 17.5 24.4995C17.6359 24.4995 17.77 24.4679 17.8916 24.407L21 22.8528L24.1084 24.407C24.2418 24.4738 24.39 24.5053 24.539 24.4987C24.688 24.492 24.8328 24.4474 24.9597 24.369C25.0866 24.2907 25.1914 24.1812 25.264 24.051C25.3367 23.9208 25.3749 23.7741 25.375 23.625V6.125C25.375 5.66087 25.1906 5.21575 24.8624 4.88756C24.5342 4.55937 24.0891 4.375 23.625 4.375ZM12.6875 17.5C12.6875 17.616 12.6414 17.7273 12.5594 17.8094C12.4773 17.8914 12.366 17.9375 12.25 17.9375H7C6.88397 17.9375 6.77269 17.8914 6.69064 17.8094C6.60859 17.7273 6.5625 17.616 6.5625 17.5V10.5C6.5625 10.384 6.60859 10.2727 6.69064 10.1906C6.77269 10.1086 6.88397 10.0625 7 10.0625H12.25C12.366 10.0625 12.4773 10.1086 12.5594 10.1906C12.6414 10.2727 12.6875 10.384 12.6875 10.5V17.5ZM21 16.625H15.75C15.5179 16.625 15.2954 16.5328 15.1313 16.3687C14.9672 16.2046 14.875 15.9821 14.875 15.75C14.875 15.5179 14.9672 15.2954 15.1313 15.1313C15.2954 14.9672 15.5179 14.875 15.75 14.875H21C21.2321 14.875 21.4546 14.9672 21.6187 15.1313C21.7828 15.2954 21.875 15.5179 21.875 15.75C21.875 15.9821 21.7828 16.2046 21.6187 16.3687C21.4546 16.5328 21.2321 16.625 21 16.625ZM21 13.125H15.75C15.5179 13.125 15.2954 13.0328 15.1313 12.8687C14.9672 12.7046 14.875 12.4821 14.875 12.25C14.875 12.0179 14.9672 11.7954 15.1313 11.6313C15.2954 11.4672 15.5179 11.375 15.75 11.375H21C21.2321 11.375 21.4546 11.4672 21.6187 11.6313C21.7828 11.7954 21.875 12.0179 21.875 12.25C21.875 12.4821 21.7828 12.7046 21.6187 12.8687C21.4546 13.0328 21.2321 13.125 21 13.125Z" fill="#212529"/>
</svg>
