<svg width="28" height="28" viewBox="0 0 28 28" fill="none" xmlns="http://www.w3.org/2000/svg">
<path d="M27.0495 13.6456C27.0112 13.5592 26.0848 11.5041 24.0253 9.44453C21.2811 6.70031 17.815 5.25 14 5.25C10.185 5.25 6.7189 6.70031 3.97468 9.44453C1.91515 11.5041 0.984365 13.5625 0.950458 13.6456C0.900707 13.7575 0.875 13.8786 0.875 14.0011C0.875 14.1236 0.900707 14.2447 0.950458 14.3566C0.98874 14.443 1.91515 16.497 3.97468 18.5566C6.7189 21.2997 10.185 22.75 14 22.75C17.815 22.75 21.2811 21.2997 24.0253 18.5566C26.0848 16.497 27.0112 14.443 27.0495 14.3566C27.0993 14.2447 27.125 14.1236 27.125 14.0011C27.125 13.8786 27.0993 13.7575 27.0495 13.6456ZM14 21C10.6334 21 7.69233 19.7761 5.25765 17.3633C4.25866 16.3698 3.40876 15.237 2.73436 14C3.40858 12.7629 4.2585 11.63 5.25765 10.6367C7.69233 8.22391 10.6334 7 14 7C17.3666 7 20.3076 8.22391 22.7423 10.6367C23.7433 11.6298 24.595 12.7627 25.2711 14C24.4825 15.4722 21.047 21 14 21Z" fill="#212529"/>
<circle cx="14" cy="14" r="5.25" fill="#212529"/>
</svg>
