<svg width="28" height="28" viewBox="0 0 28 28" fill="none" xmlns="http://www.w3.org/2000/svg">
<path d="M25.2571 24.0625C25.1803 24.1956 25.0698 24.3061 24.9367 24.3829C24.8037 24.4597 24.6527 24.5001 24.4991 24.5H3.4991C3.34558 24.4999 3.19481 24.4593 3.06192 24.3825C2.92903 24.3056 2.81869 24.1951 2.742 24.0622C2.66531 23.9292 2.62496 23.7783 2.625 23.6248C2.62504 23.4713 2.66547 23.3205 2.74223 23.1875C4.40801 20.3077 6.97504 18.2427 9.97082 17.2638C8.48897 16.3816 7.33767 15.0374 6.69371 13.4376C6.04976 11.8378 5.94876 10.0709 6.40623 8.40809C6.86369 6.74532 7.85433 5.27869 9.22601 4.23343C10.5977 3.18817 12.2746 2.62207 13.9991 2.62207C15.7237 2.62207 17.4005 3.18817 18.7722 4.23343C20.1439 5.27869 21.1345 6.74532 21.592 8.40809C22.0494 10.0709 21.9484 11.8378 21.3045 13.4376C20.6605 15.0374 19.5092 16.3816 18.0274 17.2638C21.0232 18.2427 23.5902 20.3077 25.256 23.1875C25.3329 23.3205 25.3736 23.4713 25.3738 23.6249C25.3739 23.7785 25.3337 23.9294 25.2571 24.0625Z" fill="#212529"/>
</svg>
