<svg width="28" height="28" viewBox="0 0 28 28" fill="none" xmlns="http://www.w3.org/2000/svg">
<path d="M6.12482 11.3751C6.12482 9.64447 6.638 7.95275 7.59946 6.51382C8.56093 5.07489 9.92749 3.95338 11.5263 3.29111C13.1252 2.62884 14.8845 2.45557 16.5819 2.79319C18.2792 3.13081 19.8383 3.96416 21.062 5.18787C22.2857 6.41158 23.1191 7.97068 23.4567 9.66802C23.7943 11.3653 23.621 13.1247 22.9588 14.7235C22.2965 16.3224 21.175 17.689 19.7361 18.6504C18.2971 19.6119 16.6054 20.1251 14.8748 20.1251C12.555 20.1225 10.3309 19.1997 8.69052 17.5594C7.05014 15.919 6.12743 13.6949 6.12482 11.3751ZM22.1439 18.9526C20.1626 20.86 17.512 21.9139 14.7619 21.8878C12.0118 21.8616 9.38174 20.7575 7.43704 18.8128C5.49233 16.8681 4.38826 14.2381 4.36213 11.488C4.33601 8.73787 5.38992 6.08729 7.29732 4.10599C7.37899 4.02354 7.44344 3.92567 7.48693 3.81807C7.53041 3.71047 7.55205 3.5953 7.55059 3.47925C7.54914 3.36321 7.52461 3.24861 7.47844 3.14214C7.43227 3.03567 7.36539 2.93944 7.28167 2.85906C7.19796 2.77869 7.09909 2.71577 6.99083 2.67397C6.88257 2.63217 6.76707 2.61232 6.65106 2.61558C6.53506 2.61884 6.42086 2.64515 6.31512 2.69297C6.20937 2.74079 6.1142 2.80917 6.03514 2.89412C4.42442 4.57309 3.32515 6.67604 2.86596 8.95694C2.40676 11.2378 2.60662 13.6023 3.44216 15.7738C4.2777 17.9452 5.71435 19.8339 7.58404 21.2186C9.45372 22.6034 11.6791 23.4271 13.9998 23.5933V25.3751H11.3748C11.1428 25.3751 10.9202 25.4672 10.7561 25.6313C10.592 25.7954 10.4998 26.018 10.4998 26.2501C10.4998 26.4821 10.592 26.7047 10.7561 26.8688C10.9202 27.0329 11.1428 27.1251 11.3748 27.1251H18.3748C18.6069 27.1251 18.8294 27.0329 18.9935 26.8688C19.1576 26.7047 19.2498 26.4821 19.2498 26.2501C19.2498 26.018 19.1576 25.7954 18.9935 25.6313C18.8294 25.4672 18.6069 25.3751 18.3748 25.3751H15.7498V23.5944C18.6037 23.3973 21.2967 22.2006 23.3558 20.2147C23.4407 20.1357 23.5091 20.0405 23.5569 19.9348C23.6047 19.829 23.631 19.7148 23.6343 19.5988C23.6376 19.4828 23.6177 19.3673 23.5759 19.2591C23.5341 19.1508 23.4712 19.0519 23.3908 18.9682C23.3104 18.8845 23.2142 18.8176 23.1077 18.7714C23.0013 18.7253 22.8867 18.7007 22.7706 18.6993C22.6546 18.6978 22.5394 18.7195 22.4318 18.763C22.3242 18.8064 22.2263 18.8709 22.1439 18.9526Z" fill="#212529"/>
</svg>
