<svg width="28" height="28" viewBox="0 0 28 28" fill="none" xmlns="http://www.w3.org/2000/svg">
<path d="M23.3696 11.1195L14.6195 19.8696C14.5383 19.9509 14.4418 20.0154 14.3356 20.0595C14.2293 20.1035 14.1155 20.1262 14.0005 20.1262C13.8855 20.1262 13.7716 20.1035 13.6654 20.0595C13.5592 20.0154 13.4627 19.9509 13.3814 19.8696L4.63142 11.1195C4.46724 10.9554 4.375 10.7327 4.375 10.5005C4.375 10.2683 4.46724 10.0456 4.63142 9.88142C4.79561 9.71724 5.01829 9.625 5.25049 9.625C5.48268 9.625 5.70536 9.71724 5.86955 9.88142L14.0005 18.0135L22.1314 9.88142C22.2127 9.80013 22.3092 9.73564 22.4155 9.69164C22.5217 9.64764 22.6355 9.625 22.7505 9.625C22.8655 9.625 22.9793 9.64764 23.0855 9.69164C23.1917 9.73564 23.2883 9.80013 23.3696 9.88142C23.4508 9.96272 23.5153 10.0592 23.5593 10.1655C23.6033 10.2717 23.626 10.3855 23.626 10.5005C23.626 10.6155 23.6033 10.7293 23.5593 10.8355C23.5153 10.9417 23.4508 11.0383 23.3696 11.1195Z" fill="#212529"/>
</svg>
