<svg width="28" height="28" viewBox="0 0 28 28" fill="none" xmlns="http://www.w3.org/2000/svg">
<path d="M22.6121 11.3814V21.6891C22.6121 23.8167 21.5111 24.8909 19.3196 24.8909H7.2925C5.10099 24.8909 4 23.8167 4 21.6891V11.3814C4 9.25382 5.10099 8.17969 7.2925 8.17969H10.4487V9.84254H7.31347C6.26491 9.84254 5.6882 10.4003 5.6882 11.4744V21.5961C5.6882 22.6702 6.26491 23.228 7.31347 23.228H19.2881C20.3262 23.228 20.9238 22.6702 20.9238 21.5961V11.4744C20.9238 10.4003 20.3262 9.84254 19.2881 9.84254H16.1633V8.17969H19.3196C21.5111 8.17969 22.6121 9.25382 22.6121 11.3814Z" fill="#212529"/>
<path d="M13.2997 16.8043C13.7506 16.8043 14.1386 16.4324 14.1386 15.9987V5.39147L14.0757 3.84222L14.7783 4.57553L16.372 6.24871C16.5189 6.41396 16.7286 6.49659 16.9383 6.49659C17.3682 6.49659 17.7038 6.18674 17.7038 5.76328C17.7038 5.54639 17.6094 5.38113 17.4521 5.22621L13.9079 1.85918C13.6982 1.65262 13.5199 1.58032 13.2997 1.58032C13.09 1.58032 12.9118 1.65262 12.6916 1.85918L9.14742 5.22621C8.99014 5.38113 8.90625 5.54639 8.90625 5.76328C8.90625 6.18674 9.22082 6.49659 9.66122 6.49659C9.86044 6.49659 10.0911 6.41396 10.2379 6.24871L11.8213 4.57553L12.5343 3.84222L12.4714 5.39147V15.9987C12.4714 16.4324 12.8489 16.8043 13.2997 16.8043Z" fill="#212529"/>
</svg>
